%TF.GenerationSoftware,KiCad,Pcbnew,(6.0.1)*%
%TF.CreationDate,2022-02-13T09:40:18+01:00*%
%TF.ProjectId,RC-MultiSwitcher,52432d4d-756c-4746-9953-776974636865,rev?*%
%TF.SameCoordinates,Original*%
%TF.FileFunction,Legend,Bot*%
%TF.FilePolarity,Positive*%
%FSLAX46Y46*%
G04 Gerber Fmt 4.6, Leading zero omitted, Abs format (unit mm)*
G04 Created by KiCad (PCBNEW (6.0.1)) date 2022-02-13 09:40:18*
%MOMM*%
%LPD*%
G01*
G04 APERTURE LIST*
%ADD10C,0.150000*%
%ADD11C,0.100000*%
%ADD12R,2.200000X2.200000*%
%ADD13O,2.200000X2.200000*%
%ADD14R,1.700000X1.700000*%
%ADD15O,1.700000X1.700000*%
%ADD16R,1.600000X1.600000*%
%ADD17C,1.600000*%
G04 APERTURE END LIST*
D10*
X133619761Y-71566428D02*
X132667380Y-70899761D01*
X133619761Y-70423571D02*
X131619761Y-70423571D01*
X131619761Y-71185476D01*
X131715000Y-71375952D01*
X131810238Y-71471190D01*
X132000714Y-71566428D01*
X132286428Y-71566428D01*
X132476904Y-71471190D01*
X132572142Y-71375952D01*
X132667380Y-71185476D01*
X132667380Y-70423571D01*
X133429285Y-73566428D02*
X133524523Y-73471190D01*
X133619761Y-73185476D01*
X133619761Y-72995000D01*
X133524523Y-72709285D01*
X133334047Y-72518809D01*
X133143571Y-72423571D01*
X132762619Y-72328333D01*
X132476904Y-72328333D01*
X132095952Y-72423571D01*
X131905476Y-72518809D01*
X131715000Y-72709285D01*
X131619761Y-72995000D01*
X131619761Y-73185476D01*
X131715000Y-73471190D01*
X131810238Y-73566428D01*
X132857857Y-74423571D02*
X132857857Y-75947380D01*
X133619761Y-76899761D02*
X131619761Y-76899761D01*
X133048333Y-77566428D01*
X131619761Y-78233095D01*
X133619761Y-78233095D01*
X132286428Y-80042619D02*
X133619761Y-80042619D01*
X132286428Y-79185476D02*
X133334047Y-79185476D01*
X133524523Y-79280714D01*
X133619761Y-79471190D01*
X133619761Y-79756904D01*
X133524523Y-79947380D01*
X133429285Y-80042619D01*
X133619761Y-81280714D02*
X133524523Y-81090238D01*
X133334047Y-80995000D01*
X131619761Y-80995000D01*
X132286428Y-81756904D02*
X132286428Y-82518809D01*
X131619761Y-82042619D02*
X133334047Y-82042619D01*
X133524523Y-82137857D01*
X133619761Y-82328333D01*
X133619761Y-82518809D01*
X133619761Y-83185476D02*
X132286428Y-83185476D01*
X131619761Y-83185476D02*
X131715000Y-83090238D01*
X131810238Y-83185476D01*
X131715000Y-83280714D01*
X131619761Y-83185476D01*
X131810238Y-83185476D01*
X133524523Y-84042619D02*
X133619761Y-84328333D01*
X133619761Y-84804523D01*
X133524523Y-84995000D01*
X133429285Y-85090238D01*
X133238809Y-85185476D01*
X133048333Y-85185476D01*
X132857857Y-85090238D01*
X132762619Y-84995000D01*
X132667380Y-84804523D01*
X132572142Y-84423571D01*
X132476904Y-84233095D01*
X132381666Y-84137857D01*
X132191190Y-84042619D01*
X132000714Y-84042619D01*
X131810238Y-84137857D01*
X131715000Y-84233095D01*
X131619761Y-84423571D01*
X131619761Y-84899761D01*
X131715000Y-85185476D01*
X132286428Y-85852142D02*
X133619761Y-86233095D01*
X132667380Y-86614047D01*
X133619761Y-86995000D01*
X132286428Y-87375952D01*
X133619761Y-88137857D02*
X132286428Y-88137857D01*
X131619761Y-88137857D02*
X131715000Y-88042619D01*
X131810238Y-88137857D01*
X131715000Y-88233095D01*
X131619761Y-88137857D01*
X131810238Y-88137857D01*
X132286428Y-88804523D02*
X132286428Y-89566428D01*
X131619761Y-89090238D02*
X133334047Y-89090238D01*
X133524523Y-89185476D01*
X133619761Y-89375952D01*
X133619761Y-89566428D01*
X133524523Y-91090238D02*
X133619761Y-90899761D01*
X133619761Y-90518809D01*
X133524523Y-90328333D01*
X133429285Y-90233095D01*
X133238809Y-90137857D01*
X132667380Y-90137857D01*
X132476904Y-90233095D01*
X132381666Y-90328333D01*
X132286428Y-90518809D01*
X132286428Y-90899761D01*
X132381666Y-91090238D01*
X133619761Y-91947380D02*
X131619761Y-91947380D01*
X133619761Y-92804523D02*
X132572142Y-92804523D01*
X132381666Y-92709285D01*
X132286428Y-92518809D01*
X132286428Y-92233095D01*
X132381666Y-92042619D01*
X132476904Y-91947380D01*
X133524523Y-94518809D02*
X133619761Y-94328333D01*
X133619761Y-93947380D01*
X133524523Y-93756904D01*
X133334047Y-93661666D01*
X132572142Y-93661666D01*
X132381666Y-93756904D01*
X132286428Y-93947380D01*
X132286428Y-94328333D01*
X132381666Y-94518809D01*
X132572142Y-94614047D01*
X132762619Y-94614047D01*
X132953095Y-93661666D01*
X133619761Y-95471190D02*
X132286428Y-95471190D01*
X132667380Y-95471190D02*
X132476904Y-95566428D01*
X132381666Y-95661666D01*
X132286428Y-95852142D01*
X132286428Y-96042619D01*
X132286428Y-98042619D02*
X133619761Y-98518809D01*
X132286428Y-98994999D01*
X133619761Y-100804523D02*
X133619761Y-99661666D01*
X133619761Y-100233095D02*
X131619761Y-100233095D01*
X131905476Y-100042619D01*
X132095952Y-99852142D01*
X132191190Y-99661666D01*
X133429285Y-101661666D02*
X133524523Y-101756904D01*
X133619761Y-101661666D01*
X133524523Y-101566428D01*
X133429285Y-101661666D01*
X133619761Y-101661666D01*
X131619761Y-102994999D02*
X131619761Y-103185476D01*
X131715000Y-103375952D01*
X131810238Y-103471190D01*
X132000714Y-103566428D01*
X132381666Y-103661666D01*
X132857857Y-103661666D01*
X133238809Y-103566428D01*
X133429285Y-103471190D01*
X133524523Y-103375952D01*
X133619761Y-103185476D01*
X133619761Y-102994999D01*
X133524523Y-102804523D01*
X133429285Y-102709285D01*
X133238809Y-102614047D01*
X132857857Y-102518809D01*
X132381666Y-102518809D01*
X132000714Y-102614047D01*
X131810238Y-102709285D01*
X131715000Y-102804523D01*
X131619761Y-102994999D01*
X161496428Y-78598571D02*
X163115476Y-78598571D01*
X163305952Y-78503333D01*
X163401190Y-78408095D01*
X163496428Y-78217619D01*
X163496428Y-77931904D01*
X163401190Y-77741428D01*
X162734523Y-78598571D02*
X162829761Y-78408095D01*
X162829761Y-78027142D01*
X162734523Y-77836666D01*
X162639285Y-77741428D01*
X162448809Y-77646190D01*
X161877380Y-77646190D01*
X161686904Y-77741428D01*
X161591666Y-77836666D01*
X161496428Y-78027142D01*
X161496428Y-78408095D01*
X161591666Y-78598571D01*
X162829761Y-79550952D02*
X161496428Y-79550952D01*
X160829761Y-79550952D02*
X160925000Y-79455714D01*
X161020238Y-79550952D01*
X160925000Y-79646190D01*
X160829761Y-79550952D01*
X161020238Y-79550952D01*
X161496428Y-80217619D02*
X161496428Y-80979523D01*
X160829761Y-80503333D02*
X162544047Y-80503333D01*
X162734523Y-80598571D01*
X162829761Y-80789047D01*
X162829761Y-80979523D01*
X162829761Y-81646190D02*
X160829761Y-81646190D01*
X162829761Y-82503333D02*
X161782142Y-82503333D01*
X161591666Y-82408095D01*
X161496428Y-82217619D01*
X161496428Y-81931904D01*
X161591666Y-81741428D01*
X161686904Y-81646190D01*
X161496428Y-84312857D02*
X162829761Y-84312857D01*
X161496428Y-83455714D02*
X162544047Y-83455714D01*
X162734523Y-83550952D01*
X162829761Y-83741428D01*
X162829761Y-84027142D01*
X162734523Y-84217619D01*
X162639285Y-84312857D01*
X162829761Y-85265238D02*
X160829761Y-85265238D01*
X161591666Y-85265238D02*
X161496428Y-85455714D01*
X161496428Y-85836666D01*
X161591666Y-86027142D01*
X161686904Y-86122380D01*
X161877380Y-86217619D01*
X162448809Y-86217619D01*
X162639285Y-86122380D01*
X162734523Y-86027142D01*
X162829761Y-85836666D01*
X162829761Y-85455714D01*
X162734523Y-85265238D01*
X162639285Y-87074761D02*
X162734523Y-87170000D01*
X162829761Y-87074761D01*
X162734523Y-86979523D01*
X162639285Y-87074761D01*
X162829761Y-87074761D01*
X162734523Y-88884285D02*
X162829761Y-88693809D01*
X162829761Y-88312857D01*
X162734523Y-88122380D01*
X162639285Y-88027142D01*
X162448809Y-87931904D01*
X161877380Y-87931904D01*
X161686904Y-88027142D01*
X161591666Y-88122380D01*
X161496428Y-88312857D01*
X161496428Y-88693809D01*
X161591666Y-88884285D01*
X162829761Y-90027142D02*
X162734523Y-89836666D01*
X162639285Y-89741428D01*
X162448809Y-89646190D01*
X161877380Y-89646190D01*
X161686904Y-89741428D01*
X161591666Y-89836666D01*
X161496428Y-90027142D01*
X161496428Y-90312857D01*
X161591666Y-90503333D01*
X161686904Y-90598571D01*
X161877380Y-90693809D01*
X162448809Y-90693809D01*
X162639285Y-90598571D01*
X162734523Y-90503333D01*
X162829761Y-90312857D01*
X162829761Y-90027142D01*
X162829761Y-91550952D02*
X161496428Y-91550952D01*
X161686904Y-91550952D02*
X161591666Y-91646190D01*
X161496428Y-91836666D01*
X161496428Y-92122380D01*
X161591666Y-92312857D01*
X161782142Y-92408095D01*
X162829761Y-92408095D01*
X161782142Y-92408095D02*
X161591666Y-92503333D01*
X161496428Y-92693809D01*
X161496428Y-92979523D01*
X161591666Y-93170000D01*
X161782142Y-93265238D01*
X162829761Y-93265238D01*
X160734523Y-95646190D02*
X163305952Y-93931904D01*
X161496428Y-96312857D02*
X163210714Y-96312857D01*
X163401190Y-96217619D01*
X163496428Y-96027142D01*
X163496428Y-95931904D01*
X160829761Y-96312857D02*
X160925000Y-96217619D01*
X161020238Y-96312857D01*
X160925000Y-96408095D01*
X160829761Y-96312857D01*
X161020238Y-96312857D01*
X161496428Y-98122380D02*
X162829761Y-98122380D01*
X161496428Y-97265238D02*
X162544047Y-97265238D01*
X162734523Y-97360476D01*
X162829761Y-97550952D01*
X162829761Y-97836666D01*
X162734523Y-98027142D01*
X162639285Y-98122380D01*
X162734523Y-99836666D02*
X162829761Y-99646190D01*
X162829761Y-99265238D01*
X162734523Y-99074761D01*
X162544047Y-98979523D01*
X161782142Y-98979523D01*
X161591666Y-99074761D01*
X161496428Y-99265238D01*
X161496428Y-99646190D01*
X161591666Y-99836666D01*
X161782142Y-99931904D01*
X161972619Y-99931904D01*
X162163095Y-98979523D01*
X161496428Y-100789047D02*
X163496428Y-100789047D01*
X161591666Y-100789047D02*
X161496428Y-100979523D01*
X161496428Y-101360476D01*
X161591666Y-101550952D01*
X161686904Y-101646190D01*
X161877380Y-101741428D01*
X162448809Y-101741428D01*
X162639285Y-101646190D01*
X162734523Y-101550952D01*
X162829761Y-101360476D01*
X162829761Y-100979523D01*
X162734523Y-100789047D01*
X162829761Y-102598571D02*
X161496428Y-102598571D01*
X160829761Y-102598571D02*
X160925000Y-102503333D01*
X161020238Y-102598571D01*
X160925000Y-102693809D01*
X160829761Y-102598571D01*
X161020238Y-102598571D01*
X153796904Y-90257380D02*
X153796904Y-91066904D01*
X153749285Y-91162142D01*
X153701666Y-91209761D01*
X153606428Y-91257380D01*
X153415952Y-91257380D01*
X153320714Y-91209761D01*
X153273095Y-91162142D01*
X153225476Y-91066904D01*
X153225476Y-90257380D01*
X152225476Y-91257380D02*
X152796904Y-91257380D01*
X152511190Y-91257380D02*
X152511190Y-90257380D01*
X152606428Y-90400238D01*
X152701666Y-90495476D01*
X152796904Y-90543095D01*
X151065666Y-79603333D02*
X150365666Y-79603333D01*
X150865666Y-79836666D01*
X150365666Y-80070000D01*
X151065666Y-80070000D01*
X151065666Y-80403333D02*
X150365666Y-80403333D01*
X151065666Y-80803333D02*
X150665666Y-80503333D01*
X150365666Y-80803333D02*
X150765666Y-80403333D01*
X150432333Y-81070000D02*
X150399000Y-81103333D01*
X150365666Y-81170000D01*
X150365666Y-81336666D01*
X150399000Y-81403333D01*
X150432333Y-81436666D01*
X150499000Y-81470000D01*
X150565666Y-81470000D01*
X150665666Y-81436666D01*
X151065666Y-81036666D01*
X151065666Y-81470000D01*
X150365666Y-81903333D02*
X150365666Y-81970000D01*
X150399000Y-82036666D01*
X150432333Y-82070000D01*
X150499000Y-82103333D01*
X150632333Y-82136666D01*
X150799000Y-82136666D01*
X150932333Y-82103333D01*
X150999000Y-82070000D01*
X151032333Y-82036666D01*
X151065666Y-81970000D01*
X151065666Y-81903333D01*
X151032333Y-81836666D01*
X150999000Y-81803333D01*
X150932333Y-81770000D01*
X150799000Y-81736666D01*
X150632333Y-81736666D01*
X150499000Y-81770000D01*
X150432333Y-81803333D01*
X150399000Y-81836666D01*
X150365666Y-81903333D01*
X151065666Y-82436666D02*
X150365666Y-82436666D01*
X150365666Y-82603333D01*
X150399000Y-82703333D01*
X150465666Y-82770000D01*
X150532333Y-82803333D01*
X150665666Y-82836666D01*
X150765666Y-82836666D01*
X150899000Y-82803333D01*
X150965666Y-82770000D01*
X151032333Y-82703333D01*
X151065666Y-82603333D01*
X151065666Y-82436666D01*
X150365666Y-83070000D02*
X151065666Y-83536666D01*
X150365666Y-83536666D02*
X151065666Y-83070000D01*
X150432333Y-83770000D02*
X150399000Y-83803333D01*
X150365666Y-83870000D01*
X150365666Y-84036666D01*
X150399000Y-84103333D01*
X150432333Y-84136666D01*
X150499000Y-84170000D01*
X150565666Y-84170000D01*
X150665666Y-84136666D01*
X151065666Y-83736666D01*
X151065666Y-84170000D01*
X150365666Y-84803333D02*
X150365666Y-84470000D01*
X150699000Y-84436666D01*
X150665666Y-84470000D01*
X150632333Y-84536666D01*
X150632333Y-84703333D01*
X150665666Y-84770000D01*
X150699000Y-84803333D01*
X150765666Y-84836666D01*
X150932333Y-84836666D01*
X150999000Y-84803333D01*
X151032333Y-84770000D01*
X151065666Y-84703333D01*
X151065666Y-84536666D01*
X151032333Y-84470000D01*
X150999000Y-84436666D01*
X150365666Y-85436666D02*
X150365666Y-85303333D01*
X150399000Y-85236666D01*
X150432333Y-85203333D01*
X150532333Y-85136666D01*
X150665666Y-85103333D01*
X150932333Y-85103333D01*
X150999000Y-85136666D01*
X151032333Y-85170000D01*
X151065666Y-85236666D01*
X151065666Y-85370000D01*
X151032333Y-85436666D01*
X150999000Y-85470000D01*
X150932333Y-85503333D01*
X150765666Y-85503333D01*
X150699000Y-85470000D01*
X150665666Y-85436666D01*
X150632333Y-85370000D01*
X150632333Y-85236666D01*
X150665666Y-85170000D01*
X150699000Y-85136666D01*
X150765666Y-85103333D01*
X150365666Y-85703333D02*
X151065666Y-85936666D01*
X150365666Y-86170000D01*
X151065666Y-86736666D02*
X151065666Y-86403333D01*
X150365666Y-86403333D01*
X151065666Y-86970000D02*
X150365666Y-86970000D01*
X150699000Y-86970000D02*
X150699000Y-87370000D01*
X151065666Y-87370000D02*
X150365666Y-87370000D01*
X150365666Y-87636666D02*
X150365666Y-88103333D01*
X151065666Y-87803333D01*
X148525666Y-80086666D02*
X147825666Y-80086666D01*
X148325666Y-80320000D01*
X147825666Y-80553333D01*
X148525666Y-80553333D01*
X148525666Y-80886666D02*
X147825666Y-80886666D01*
X148525666Y-81286666D02*
X148125666Y-80986666D01*
X147825666Y-81286666D02*
X148225666Y-80886666D01*
X148525666Y-81920000D02*
X148525666Y-81586666D01*
X147825666Y-81586666D01*
X147892333Y-82120000D02*
X147859000Y-82153333D01*
X147825666Y-82220000D01*
X147825666Y-82386666D01*
X147859000Y-82453333D01*
X147892333Y-82486666D01*
X147959000Y-82520000D01*
X148025666Y-82520000D01*
X148125666Y-82486666D01*
X148525666Y-82086666D01*
X148525666Y-82520000D01*
X147825666Y-83120000D02*
X147825666Y-82986666D01*
X147859000Y-82920000D01*
X147892333Y-82886666D01*
X147992333Y-82820000D01*
X148125666Y-82786666D01*
X148392333Y-82786666D01*
X148459000Y-82820000D01*
X148492333Y-82853333D01*
X148525666Y-82920000D01*
X148525666Y-83053333D01*
X148492333Y-83120000D01*
X148459000Y-83153333D01*
X148392333Y-83186666D01*
X148225666Y-83186666D01*
X148159000Y-83153333D01*
X148125666Y-83120000D01*
X148092333Y-83053333D01*
X148092333Y-82920000D01*
X148125666Y-82853333D01*
X148159000Y-82820000D01*
X148225666Y-82786666D01*
X147825666Y-83420000D02*
X147825666Y-83886666D01*
X148525666Y-83420000D01*
X148525666Y-83886666D01*
X147825666Y-84453333D02*
X147825666Y-84320000D01*
X147859000Y-84253333D01*
X147892333Y-84220000D01*
X147992333Y-84153333D01*
X148125666Y-84120000D01*
X148392333Y-84120000D01*
X148459000Y-84153333D01*
X148492333Y-84186666D01*
X148525666Y-84253333D01*
X148525666Y-84386666D01*
X148492333Y-84453333D01*
X148459000Y-84486666D01*
X148392333Y-84520000D01*
X148225666Y-84520000D01*
X148159000Y-84486666D01*
X148125666Y-84453333D01*
X148092333Y-84386666D01*
X148092333Y-84253333D01*
X148125666Y-84186666D01*
X148159000Y-84153333D01*
X148225666Y-84120000D01*
X148059000Y-85120000D02*
X148525666Y-85120000D01*
X147792333Y-84953333D02*
X148292333Y-84786666D01*
X148292333Y-85220000D01*
X147825666Y-85386666D02*
X148525666Y-85620000D01*
X147825666Y-85853333D01*
X148159000Y-86320000D02*
X148159000Y-86086666D01*
X148525666Y-86086666D02*
X147825666Y-86086666D01*
X147825666Y-86420000D01*
X147825666Y-86586666D02*
X147825666Y-86986666D01*
X148525666Y-86786666D02*
X147825666Y-86786666D01*
X148059000Y-87520000D02*
X148525666Y-87520000D01*
X147792333Y-87353333D02*
X148292333Y-87186666D01*
X148292333Y-87620000D01*
X149795666Y-79603333D02*
X149095666Y-79603333D01*
X149595666Y-79836666D01*
X149095666Y-80070000D01*
X149795666Y-80070000D01*
X149795666Y-80403333D02*
X149095666Y-80403333D01*
X149795666Y-80803333D02*
X149395666Y-80503333D01*
X149095666Y-80803333D02*
X149495666Y-80403333D01*
X149162333Y-81070000D02*
X149129000Y-81103333D01*
X149095666Y-81170000D01*
X149095666Y-81336666D01*
X149129000Y-81403333D01*
X149162333Y-81436666D01*
X149229000Y-81470000D01*
X149295666Y-81470000D01*
X149395666Y-81436666D01*
X149795666Y-81036666D01*
X149795666Y-81470000D01*
X149095666Y-81903333D02*
X149095666Y-81970000D01*
X149129000Y-82036666D01*
X149162333Y-82070000D01*
X149229000Y-82103333D01*
X149362333Y-82136666D01*
X149529000Y-82136666D01*
X149662333Y-82103333D01*
X149729000Y-82070000D01*
X149762333Y-82036666D01*
X149795666Y-81970000D01*
X149795666Y-81903333D01*
X149762333Y-81836666D01*
X149729000Y-81803333D01*
X149662333Y-81770000D01*
X149529000Y-81736666D01*
X149362333Y-81736666D01*
X149229000Y-81770000D01*
X149162333Y-81803333D01*
X149129000Y-81836666D01*
X149095666Y-81903333D01*
X149795666Y-82436666D02*
X149095666Y-82436666D01*
X149095666Y-82603333D01*
X149129000Y-82703333D01*
X149195666Y-82770000D01*
X149262333Y-82803333D01*
X149395666Y-82836666D01*
X149495666Y-82836666D01*
X149629000Y-82803333D01*
X149695666Y-82770000D01*
X149762333Y-82703333D01*
X149795666Y-82603333D01*
X149795666Y-82436666D01*
X149095666Y-83070000D02*
X149795666Y-83536666D01*
X149095666Y-83536666D02*
X149795666Y-83070000D01*
X149795666Y-84170000D02*
X149795666Y-83770000D01*
X149795666Y-83970000D02*
X149095666Y-83970000D01*
X149195666Y-83903333D01*
X149262333Y-83836666D01*
X149295666Y-83770000D01*
X149162333Y-84436666D02*
X149129000Y-84470000D01*
X149095666Y-84536666D01*
X149095666Y-84703333D01*
X149129000Y-84770000D01*
X149162333Y-84803333D01*
X149229000Y-84836666D01*
X149295666Y-84836666D01*
X149395666Y-84803333D01*
X149795666Y-84403333D01*
X149795666Y-84836666D01*
X149395666Y-85236666D02*
X149362333Y-85170000D01*
X149329000Y-85136666D01*
X149262333Y-85103333D01*
X149229000Y-85103333D01*
X149162333Y-85136666D01*
X149129000Y-85170000D01*
X149095666Y-85236666D01*
X149095666Y-85370000D01*
X149129000Y-85436666D01*
X149162333Y-85470000D01*
X149229000Y-85503333D01*
X149262333Y-85503333D01*
X149329000Y-85470000D01*
X149362333Y-85436666D01*
X149395666Y-85370000D01*
X149395666Y-85236666D01*
X149429000Y-85170000D01*
X149462333Y-85136666D01*
X149529000Y-85103333D01*
X149662333Y-85103333D01*
X149729000Y-85136666D01*
X149762333Y-85170000D01*
X149795666Y-85236666D01*
X149795666Y-85370000D01*
X149762333Y-85436666D01*
X149729000Y-85470000D01*
X149662333Y-85503333D01*
X149529000Y-85503333D01*
X149462333Y-85470000D01*
X149429000Y-85436666D01*
X149395666Y-85370000D01*
X149095666Y-85703333D02*
X149795666Y-85936666D01*
X149095666Y-86170000D01*
X149795666Y-86736666D02*
X149795666Y-86403333D01*
X149095666Y-86403333D01*
X149795666Y-86970000D02*
X149095666Y-86970000D01*
X149429000Y-86970000D02*
X149429000Y-87370000D01*
X149795666Y-87370000D02*
X149095666Y-87370000D01*
X149095666Y-88036666D02*
X149095666Y-87703333D01*
X149429000Y-87670000D01*
X149395666Y-87703333D01*
X149362333Y-87770000D01*
X149362333Y-87936666D01*
X149395666Y-88003333D01*
X149429000Y-88036666D01*
X149495666Y-88070000D01*
X149662333Y-88070000D01*
X149729000Y-88036666D01*
X149762333Y-88003333D01*
X149795666Y-87936666D01*
X149795666Y-87770000D01*
X149762333Y-87703333D01*
X149729000Y-87670000D01*
X144145000Y-107315000D02*
X151765000Y-107315000D01*
X142875000Y-97155000D02*
X145415000Y-97155000D01*
X153035000Y-88265000D02*
X142875000Y-88265000D01*
X145415000Y-75565000D02*
X150495000Y-75565000D01*
X145415000Y-73025000D02*
X145415000Y-75565000D01*
X142875000Y-79375000D02*
X142875000Y-88265000D01*
X151765000Y-107315000D02*
X151765000Y-106045000D01*
X142875000Y-79375000D02*
X153035000Y-79375000D01*
X139065000Y-106045000D02*
X156845000Y-106045000D01*
X145415000Y-94615000D02*
X142875000Y-94615000D01*
X145415000Y-90805000D02*
X145415000Y-94615000D01*
X142875000Y-94615000D02*
X142875000Y-90805000D01*
X151765000Y-100965000D02*
X151765000Y-106045000D01*
X145415000Y-99695000D02*
X142875000Y-99695000D01*
X144145000Y-106045000D02*
X144145000Y-107315000D01*
X142875000Y-99695000D02*
X142875000Y-97155000D01*
X142875000Y-90805000D02*
X145415000Y-90805000D01*
X144145000Y-100965000D02*
X144145000Y-106045000D01*
X139065000Y-70485000D02*
X139065000Y-106045000D01*
X150495000Y-75565000D02*
X150495000Y-73025000D01*
X150495000Y-73025000D02*
X145415000Y-73025000D01*
X145415000Y-97155000D02*
X145415000Y-99695000D01*
X156845000Y-70485000D02*
X139065000Y-70485000D01*
X153035000Y-79375000D02*
X153035000Y-88265000D01*
X144145000Y-100965000D02*
X151765000Y-100965000D01*
X156845000Y-106045000D02*
X156845000Y-70485000D01*
D11*
X145034000Y-84328000D02*
X145288000Y-84582000D01*
X145288000Y-84582000D02*
X145542000Y-84201000D01*
X145542000Y-84201000D02*
X145288000Y-83947000D01*
X145288000Y-83947000D02*
X145034000Y-84328000D01*
G36*
X145542000Y-84201000D02*
G01*
X145288000Y-84582000D01*
X145034000Y-84328000D01*
X145288000Y-83947000D01*
X145542000Y-84201000D01*
G37*
X145542000Y-84201000D02*
X145288000Y-84582000D01*
X145034000Y-84328000D01*
X145288000Y-83947000D01*
X145542000Y-84201000D01*
X144272000Y-84455000D02*
X144526000Y-84709000D01*
X144526000Y-84709000D02*
X144780000Y-84328000D01*
X144780000Y-84328000D02*
X144526000Y-84074000D01*
X144526000Y-84074000D02*
X144272000Y-84455000D01*
G36*
X144780000Y-84328000D02*
G01*
X144526000Y-84709000D01*
X144272000Y-84455000D01*
X144526000Y-84074000D01*
X144780000Y-84328000D01*
G37*
X144780000Y-84328000D02*
X144526000Y-84709000D01*
X144272000Y-84455000D01*
X144526000Y-84074000D01*
X144780000Y-84328000D01*
X143510000Y-83693000D02*
X143764000Y-83947000D01*
X143764000Y-83947000D02*
X144018000Y-83566000D01*
X144018000Y-83566000D02*
X143764000Y-83312000D01*
X143764000Y-83312000D02*
X143510000Y-83693000D01*
G36*
X144018000Y-83566000D02*
G01*
X143764000Y-83947000D01*
X143510000Y-83693000D01*
X143764000Y-83312000D01*
X144018000Y-83566000D01*
G37*
X144018000Y-83566000D02*
X143764000Y-83947000D01*
X143510000Y-83693000D01*
X143764000Y-83312000D01*
X144018000Y-83566000D01*
X144653000Y-83947000D02*
X144907000Y-84201000D01*
X144907000Y-84201000D02*
X145161000Y-83820000D01*
X145161000Y-83820000D02*
X144907000Y-83566000D01*
X144907000Y-83566000D02*
X144653000Y-83947000D01*
G36*
X145161000Y-83820000D02*
G01*
X144907000Y-84201000D01*
X144653000Y-83947000D01*
X144907000Y-83566000D01*
X145161000Y-83820000D01*
G37*
X145161000Y-83820000D02*
X144907000Y-84201000D01*
X144653000Y-83947000D01*
X144907000Y-83566000D01*
X145161000Y-83820000D01*
X143891000Y-84074000D02*
X144145000Y-84328000D01*
X144145000Y-84328000D02*
X144399000Y-83947000D01*
X144399000Y-83947000D02*
X144145000Y-83693000D01*
X144145000Y-83693000D02*
X143891000Y-84074000D01*
G36*
X144399000Y-83947000D02*
G01*
X144145000Y-84328000D01*
X143891000Y-84074000D01*
X144145000Y-83693000D01*
X144399000Y-83947000D01*
G37*
X144399000Y-83947000D02*
X144145000Y-84328000D01*
X143891000Y-84074000D01*
X144145000Y-83693000D01*
X144399000Y-83947000D01*
X145796000Y-83312000D02*
X146050000Y-83566000D01*
X146050000Y-83566000D02*
X146304000Y-83185000D01*
X146304000Y-83185000D02*
X146050000Y-82931000D01*
X146050000Y-82931000D02*
X145796000Y-83312000D01*
G36*
X146304000Y-83185000D02*
G01*
X146050000Y-83566000D01*
X145796000Y-83312000D01*
X146050000Y-82931000D01*
X146304000Y-83185000D01*
G37*
X146304000Y-83185000D02*
X146050000Y-83566000D01*
X145796000Y-83312000D01*
X146050000Y-82931000D01*
X146304000Y-83185000D01*
X145415000Y-83820000D02*
X145669000Y-84074000D01*
X145669000Y-84074000D02*
X145923000Y-83693000D01*
X145923000Y-83693000D02*
X145669000Y-83439000D01*
X145669000Y-83439000D02*
X145415000Y-83820000D01*
G36*
X145923000Y-83693000D02*
G01*
X145669000Y-84074000D01*
X145415000Y-83820000D01*
X145669000Y-83439000D01*
X145923000Y-83693000D01*
G37*
X145923000Y-83693000D02*
X145669000Y-84074000D01*
X145415000Y-83820000D01*
X145669000Y-83439000D01*
X145923000Y-83693000D01*
X145034000Y-83439000D02*
X145288000Y-83693000D01*
X145288000Y-83693000D02*
X145542000Y-83312000D01*
X145542000Y-83312000D02*
X145288000Y-83058000D01*
X145288000Y-83058000D02*
X145034000Y-83439000D01*
G36*
X145542000Y-83312000D02*
G01*
X145288000Y-83693000D01*
X145034000Y-83439000D01*
X145288000Y-83058000D01*
X145542000Y-83312000D01*
G37*
X145542000Y-83312000D02*
X145288000Y-83693000D01*
X145034000Y-83439000D01*
X145288000Y-83058000D01*
X145542000Y-83312000D01*
%LPC*%
D12*
X159821766Y-64135000D03*
D13*
X157281766Y-64135000D03*
D12*
X148391766Y-64135000D03*
D13*
X145851766Y-64135000D03*
D12*
X136961766Y-64135000D03*
D13*
X134421766Y-64135000D03*
D12*
X142676766Y-64135000D03*
D13*
X140136766Y-64135000D03*
D14*
X135890000Y-85090000D03*
D15*
X135890000Y-82550000D03*
X135890000Y-80010000D03*
X135890000Y-77470000D03*
X135890000Y-74930000D03*
X135890000Y-72390000D03*
D14*
X133345000Y-67945000D03*
D15*
X135885000Y-67945000D03*
X138425000Y-67945000D03*
X140965000Y-67945000D03*
X143505000Y-67945000D03*
X146045000Y-67945000D03*
X148585000Y-67945000D03*
X151125000Y-67945000D03*
X153665000Y-67945000D03*
X156205000Y-67945000D03*
X158745000Y-67945000D03*
X161285000Y-67945000D03*
D14*
X159385000Y-75560000D03*
D15*
X159385000Y-78100000D03*
X159385000Y-80640000D03*
X159385000Y-83180000D03*
X159385000Y-85720000D03*
X159385000Y-88260000D03*
X159385000Y-90800000D03*
X159385000Y-93340000D03*
X159385000Y-95880000D03*
X159385000Y-98420000D03*
X159385000Y-100960000D03*
X159385000Y-103500000D03*
D12*
X161091766Y-71755000D03*
D13*
X158551766Y-71755000D03*
D12*
X154106766Y-64135000D03*
D13*
X151566766Y-64135000D03*
D16*
X140335000Y-104775000D03*
D17*
X140335000Y-102235000D03*
X140335000Y-99695000D03*
X140335000Y-97155000D03*
X140335000Y-94615000D03*
X140335000Y-92075000D03*
X140335000Y-89535000D03*
X140335000Y-86995000D03*
X140335000Y-84455000D03*
X140335000Y-81915000D03*
X140335000Y-79375000D03*
X140335000Y-76835000D03*
X140335000Y-74295000D03*
X140335000Y-71755000D03*
X155575000Y-71755000D03*
X155575000Y-74295000D03*
X155575000Y-76835000D03*
X155575000Y-79375000D03*
X155575000Y-81915000D03*
X155575000Y-84455000D03*
X155575000Y-86995000D03*
X155575000Y-89535000D03*
X155575000Y-92075000D03*
X155575000Y-94615000D03*
X155575000Y-97155000D03*
X155575000Y-99695000D03*
X155575000Y-102235000D03*
X155575000Y-104775000D03*
M02*
