%TF.GenerationSoftware,KiCad,Pcbnew,(6.0.1)*%
%TF.CreationDate,2022-02-13T09:40:18+01:00*%
%TF.ProjectId,RC-MultiSwitcher,52432d4d-756c-4746-9953-776974636865,rev?*%
%TF.SameCoordinates,Original*%
%TF.FileFunction,Soldermask,Bot*%
%TF.FilePolarity,Negative*%
%FSLAX46Y46*%
G04 Gerber Fmt 4.6, Leading zero omitted, Abs format (unit mm)*
G04 Created by KiCad (PCBNEW (6.0.1)) date 2022-02-13 09:40:18*
%MOMM*%
%LPD*%
G01*
G04 APERTURE LIST*
%ADD10R,2.200000X2.200000*%
%ADD11O,2.200000X2.200000*%
%ADD12R,1.700000X1.700000*%
%ADD13O,1.700000X1.700000*%
%ADD14R,1.600000X1.600000*%
%ADD15C,1.600000*%
G04 APERTURE END LIST*
D10*
X159821766Y-64135000D03*
D11*
X157281766Y-64135000D03*
D10*
X148391766Y-64135000D03*
D11*
X145851766Y-64135000D03*
D10*
X136961766Y-64135000D03*
D11*
X134421766Y-64135000D03*
D10*
X142676766Y-64135000D03*
D11*
X140136766Y-64135000D03*
D12*
X135890000Y-85090000D03*
D13*
X135890000Y-82550000D03*
X135890000Y-80010000D03*
X135890000Y-77470000D03*
X135890000Y-74930000D03*
X135890000Y-72390000D03*
D12*
X133345000Y-67945000D03*
D13*
X135885000Y-67945000D03*
X138425000Y-67945000D03*
X140965000Y-67945000D03*
X143505000Y-67945000D03*
X146045000Y-67945000D03*
X148585000Y-67945000D03*
X151125000Y-67945000D03*
X153665000Y-67945000D03*
X156205000Y-67945000D03*
X158745000Y-67945000D03*
X161285000Y-67945000D03*
D12*
X159385000Y-75560000D03*
D13*
X159385000Y-78100000D03*
X159385000Y-80640000D03*
X159385000Y-83180000D03*
X159385000Y-85720000D03*
X159385000Y-88260000D03*
X159385000Y-90800000D03*
X159385000Y-93340000D03*
X159385000Y-95880000D03*
X159385000Y-98420000D03*
X159385000Y-100960000D03*
X159385000Y-103500000D03*
D10*
X161091766Y-71755000D03*
D11*
X158551766Y-71755000D03*
D10*
X154106766Y-64135000D03*
D11*
X151566766Y-64135000D03*
D14*
X140335000Y-104775000D03*
D15*
X140335000Y-102235000D03*
X140335000Y-99695000D03*
X140335000Y-97155000D03*
X140335000Y-94615000D03*
X140335000Y-92075000D03*
X140335000Y-89535000D03*
X140335000Y-86995000D03*
X140335000Y-84455000D03*
X140335000Y-81915000D03*
X140335000Y-79375000D03*
X140335000Y-76835000D03*
X140335000Y-74295000D03*
X140335000Y-71755000D03*
X155575000Y-71755000D03*
X155575000Y-74295000D03*
X155575000Y-76835000D03*
X155575000Y-79375000D03*
X155575000Y-81915000D03*
X155575000Y-84455000D03*
X155575000Y-86995000D03*
X155575000Y-89535000D03*
X155575000Y-92075000D03*
X155575000Y-94615000D03*
X155575000Y-97155000D03*
X155575000Y-99695000D03*
X155575000Y-102235000D03*
X155575000Y-104775000D03*
M02*
