%FSLAX45Y45*%
G04 Gerber Fmt 4.5, Leading zero omitted, Abs format (unit mm)*
G04 Created by KiCad (PCBNEW (6.0.1)) date 2022-02-24 09:22:36*
%MOMM*%
%LPD*%
G01*
G04 APERTURE LIST*
%TA.AperFunction,Profile*%
%ADD10C,0.100000*%
%TD*%
%ADD11C,0.200000*%
%ADD12C,0.040000*%
%ADD13C,0.050000*%
%ADD14C,0.100000*%
%ADD15C,0.110000*%
G04 APERTURE END LIST*
D10*
X13081000Y-6223000D02*
X16383000Y-6223000D01*
X16383000Y-6223000D02*
X16383000Y-10731500D01*
X16383000Y-10731500D02*
X13081000Y-10731500D01*
X13081000Y-10731500D02*
X13081000Y-6223000D01*
D11*
D12*
X13315000Y-9695500D02*
X13355000Y-9735500D01*
X13355000Y-9695500D02*
X13315000Y-9735500D01*
X13315000Y-9822500D02*
X13355000Y-9862500D01*
X13355000Y-9822500D02*
X13315000Y-9862500D01*
X13315000Y-9949500D02*
X13355000Y-9989500D01*
X13355000Y-9949500D02*
X13315000Y-9989500D01*
X13696000Y-9695500D02*
X13736000Y-9735500D01*
X13736000Y-9695500D02*
X13696000Y-9735500D01*
X13696000Y-9822500D02*
X13736000Y-9862500D01*
X13736000Y-9822500D02*
X13696000Y-9862500D01*
X13696000Y-9949500D02*
X13736000Y-9989500D01*
X13736000Y-9949500D02*
X13696000Y-9989500D01*
X14458000Y-7409500D02*
X14498000Y-7449500D01*
X14498000Y-7409500D02*
X14458000Y-7449500D01*
X14458000Y-7663500D02*
X14498000Y-7703500D01*
X14498000Y-7663500D02*
X14458000Y-7703500D01*
X14458000Y-8044500D02*
X14498000Y-8084500D01*
X14498000Y-8044500D02*
X14458000Y-8084500D01*
X14458000Y-8298500D02*
X14498000Y-8338500D01*
X14498000Y-8298500D02*
X14458000Y-8338500D01*
X14458000Y-8679500D02*
X14498000Y-8719500D01*
X14498000Y-8679500D02*
X14458000Y-8719500D01*
X14458000Y-8933500D02*
X14498000Y-8973500D01*
X14498000Y-8933500D02*
X14458000Y-8973500D01*
X14585000Y-10267000D02*
X14625000Y-10307000D01*
X14625000Y-10267000D02*
X14585000Y-10307000D01*
X14712000Y-9251000D02*
X14752000Y-9291000D01*
X14752000Y-9251000D02*
X14712000Y-9291000D01*
D13*
X15011000Y-7556500D02*
G75*
G03*
X15011000Y-7556500I-25000J0D01*
G01*
X15011000Y-8191500D02*
G75*
G03*
X15011000Y-8191500I-25000J0D01*
G01*
X15011000Y-8826500D02*
G75*
G03*
X15011000Y-8826500I-25000J0D01*
G01*
D14*
X13334500Y-6744500D02*
X13334500Y-6844500D01*
X13284500Y-6794500D02*
X13384500Y-6794500D01*
X13409500Y-8969000D02*
X13409500Y-9069000D01*
X13359500Y-9019000D02*
X13459500Y-9019000D01*
X13409500Y-9219000D02*
X13409500Y-9319000D01*
X13359500Y-9269000D02*
X13459500Y-9269000D01*
X13588500Y-6744500D02*
X13588500Y-6844500D01*
X13538500Y-6794500D02*
X13638500Y-6794500D01*
X13589000Y-7189000D02*
X13589000Y-7289000D01*
X13539000Y-7239000D02*
X13639000Y-7239000D01*
X13589000Y-7443000D02*
X13589000Y-7543000D01*
X13539000Y-7493000D02*
X13639000Y-7493000D01*
X13589000Y-7697000D02*
X13589000Y-7797000D01*
X13539000Y-7747000D02*
X13639000Y-7747000D01*
X13589000Y-7951000D02*
X13589000Y-8051000D01*
X13539000Y-8001000D02*
X13639000Y-8001000D01*
X13589000Y-8205000D02*
X13589000Y-8305000D01*
X13539000Y-8255000D02*
X13639000Y-8255000D01*
X13589000Y-8459000D02*
X13589000Y-8559000D01*
X13539000Y-8509000D02*
X13639000Y-8509000D01*
X13842500Y-6744500D02*
X13842500Y-6844500D01*
X13792500Y-6794500D02*
X13892500Y-6794500D01*
X14096500Y-6744500D02*
X14096500Y-6844500D01*
X14046500Y-6794500D02*
X14146500Y-6794500D01*
X14350500Y-6744500D02*
X14350500Y-6844500D01*
X14300500Y-6794500D02*
X14400500Y-6794500D01*
X14604500Y-6744500D02*
X14604500Y-6844500D01*
X14554500Y-6794500D02*
X14654500Y-6794500D01*
X14858500Y-6744500D02*
X14858500Y-6844500D01*
X14808500Y-6794500D02*
X14908500Y-6794500D01*
X15112500Y-6744500D02*
X15112500Y-6844500D01*
X15062500Y-6794500D02*
X15162500Y-6794500D01*
X15366500Y-6744500D02*
X15366500Y-6844500D01*
X15316500Y-6794500D02*
X15416500Y-6794500D01*
X15620500Y-6744500D02*
X15620500Y-6844500D01*
X15570500Y-6794500D02*
X15670500Y-6794500D01*
X15874500Y-6744500D02*
X15874500Y-6844500D01*
X15824500Y-6794500D02*
X15924500Y-6794500D01*
X15938500Y-7506000D02*
X15938500Y-7606000D01*
X15888500Y-7556000D02*
X15988500Y-7556000D01*
X15938500Y-7760000D02*
X15938500Y-7860000D01*
X15888500Y-7810000D02*
X15988500Y-7810000D01*
X15938500Y-8014000D02*
X15938500Y-8114000D01*
X15888500Y-8064000D02*
X15988500Y-8064000D01*
X15938500Y-8268000D02*
X15938500Y-8368000D01*
X15888500Y-8318000D02*
X15988500Y-8318000D01*
X15938500Y-8522000D02*
X15938500Y-8622000D01*
X15888500Y-8572000D02*
X15988500Y-8572000D01*
X15938500Y-8776000D02*
X15938500Y-8876000D01*
X15888500Y-8826000D02*
X15988500Y-8826000D01*
X15938500Y-9030000D02*
X15938500Y-9130000D01*
X15888500Y-9080000D02*
X15988500Y-9080000D01*
X15938500Y-9284000D02*
X15938500Y-9384000D01*
X15888500Y-9334000D02*
X15988500Y-9334000D01*
X15938500Y-9538000D02*
X15938500Y-9638000D01*
X15888500Y-9588000D02*
X15988500Y-9588000D01*
X15938500Y-9792000D02*
X15938500Y-9892000D01*
X15888500Y-9842000D02*
X15988500Y-9842000D01*
X15938500Y-10046000D02*
X15938500Y-10146000D01*
X15888500Y-10096000D02*
X15988500Y-10096000D01*
X15938500Y-10300000D02*
X15938500Y-10400000D01*
X15888500Y-10350000D02*
X15988500Y-10350000D01*
X16128500Y-6744500D02*
X16128500Y-6844500D01*
X16078500Y-6794500D02*
X16178500Y-6794500D01*
D15*
X13481068Y-6452391D02*
X13481068Y-6374609D01*
X13403285Y-6374609D01*
X13403285Y-6452391D01*
X13481068Y-6452391D01*
X13735068Y-6452391D02*
X13735068Y-6374609D01*
X13657285Y-6374609D01*
X13657285Y-6452391D01*
X13735068Y-6452391D01*
X14052568Y-6452391D02*
X14052568Y-6374609D01*
X13974785Y-6374609D01*
X13974785Y-6452391D01*
X14052568Y-6452391D01*
X14072391Y-7214391D02*
X14072391Y-7136609D01*
X13994609Y-7136609D01*
X13994609Y-7214391D01*
X14072391Y-7214391D01*
X14072391Y-7468391D02*
X14072391Y-7390609D01*
X13994609Y-7390609D01*
X13994609Y-7468391D01*
X14072391Y-7468391D01*
X14072391Y-7722391D02*
X14072391Y-7644609D01*
X13994609Y-7644609D01*
X13994609Y-7722391D01*
X14072391Y-7722391D01*
X14072391Y-7976391D02*
X14072391Y-7898609D01*
X13994609Y-7898609D01*
X13994609Y-7976391D01*
X14072391Y-7976391D01*
X14072391Y-8230391D02*
X14072391Y-8152609D01*
X13994609Y-8152609D01*
X13994609Y-8230391D01*
X14072391Y-8230391D01*
X14072391Y-8484391D02*
X14072391Y-8406609D01*
X13994609Y-8406609D01*
X13994609Y-8484391D01*
X14072391Y-8484391D01*
X14072391Y-8738391D02*
X14072391Y-8660609D01*
X13994609Y-8660609D01*
X13994609Y-8738391D01*
X14072391Y-8738391D01*
X14072391Y-8992391D02*
X14072391Y-8914609D01*
X13994609Y-8914609D01*
X13994609Y-8992391D01*
X14072391Y-8992391D01*
X14072391Y-9246391D02*
X14072391Y-9168609D01*
X13994609Y-9168609D01*
X13994609Y-9246391D01*
X14072391Y-9246391D01*
X14072391Y-9500391D02*
X14072391Y-9422609D01*
X13994609Y-9422609D01*
X13994609Y-9500391D01*
X14072391Y-9500391D01*
X14072391Y-9754391D02*
X14072391Y-9676609D01*
X13994609Y-9676609D01*
X13994609Y-9754391D01*
X14072391Y-9754391D01*
X14072391Y-10008391D02*
X14072391Y-9930609D01*
X13994609Y-9930609D01*
X13994609Y-10008391D01*
X14072391Y-10008391D01*
X14072391Y-10262391D02*
X14072391Y-10184609D01*
X13994609Y-10184609D01*
X13994609Y-10262391D01*
X14072391Y-10262391D01*
X14072391Y-10516391D02*
X14072391Y-10438609D01*
X13994609Y-10438609D01*
X13994609Y-10516391D01*
X14072391Y-10516391D01*
X14306568Y-6452391D02*
X14306568Y-6374609D01*
X14228785Y-6374609D01*
X14228785Y-6452391D01*
X14306568Y-6452391D01*
X14624068Y-6452391D02*
X14624068Y-6374609D01*
X14546285Y-6374609D01*
X14546285Y-6452391D01*
X14624068Y-6452391D01*
X14878068Y-6452391D02*
X14878068Y-6374609D01*
X14800285Y-6374609D01*
X14800285Y-6452391D01*
X14878068Y-6452391D01*
X15195568Y-6452391D02*
X15195568Y-6374609D01*
X15117785Y-6374609D01*
X15117785Y-6452391D01*
X15195568Y-6452391D01*
X15449568Y-6452391D02*
X15449568Y-6374609D01*
X15371785Y-6374609D01*
X15371785Y-6452391D01*
X15449568Y-6452391D01*
X15596391Y-7214391D02*
X15596391Y-7136609D01*
X15518609Y-7136609D01*
X15518609Y-7214391D01*
X15596391Y-7214391D01*
X15596391Y-7468391D02*
X15596391Y-7390609D01*
X15518609Y-7390609D01*
X15518609Y-7468391D01*
X15596391Y-7468391D01*
X15596391Y-7722391D02*
X15596391Y-7644609D01*
X15518609Y-7644609D01*
X15518609Y-7722391D01*
X15596391Y-7722391D01*
X15596391Y-7976391D02*
X15596391Y-7898609D01*
X15518609Y-7898609D01*
X15518609Y-7976391D01*
X15596391Y-7976391D01*
X15596391Y-8230391D02*
X15596391Y-8152609D01*
X15518609Y-8152609D01*
X15518609Y-8230391D01*
X15596391Y-8230391D01*
X15596391Y-8484391D02*
X15596391Y-8406609D01*
X15518609Y-8406609D01*
X15518609Y-8484391D01*
X15596391Y-8484391D01*
X15596391Y-8738391D02*
X15596391Y-8660609D01*
X15518609Y-8660609D01*
X15518609Y-8738391D01*
X15596391Y-8738391D01*
X15596391Y-8992391D02*
X15596391Y-8914609D01*
X15518609Y-8914609D01*
X15518609Y-8992391D01*
X15596391Y-8992391D01*
X15596391Y-9246391D02*
X15596391Y-9168609D01*
X15518609Y-9168609D01*
X15518609Y-9246391D01*
X15596391Y-9246391D01*
X15596391Y-9500391D02*
X15596391Y-9422609D01*
X15518609Y-9422609D01*
X15518609Y-9500391D01*
X15596391Y-9500391D01*
X15596391Y-9754391D02*
X15596391Y-9676609D01*
X15518609Y-9676609D01*
X15518609Y-9754391D01*
X15596391Y-9754391D01*
X15596391Y-10008391D02*
X15596391Y-9930609D01*
X15518609Y-9930609D01*
X15518609Y-10008391D01*
X15596391Y-10008391D01*
X15596391Y-10262391D02*
X15596391Y-10184609D01*
X15518609Y-10184609D01*
X15518609Y-10262391D01*
X15596391Y-10262391D01*
X15596391Y-10516391D02*
X15596391Y-10438609D01*
X15518609Y-10438609D01*
X15518609Y-10516391D01*
X15596391Y-10516391D01*
X15767068Y-6452391D02*
X15767068Y-6374609D01*
X15689285Y-6374609D01*
X15689285Y-6452391D01*
X15767068Y-6452391D01*
X15894068Y-7214391D02*
X15894068Y-7136609D01*
X15816285Y-7136609D01*
X15816285Y-7214391D01*
X15894068Y-7214391D01*
X16021068Y-6452391D02*
X16021068Y-6374609D01*
X15943285Y-6374609D01*
X15943285Y-6452391D01*
X16021068Y-6452391D01*
X16148068Y-7214391D02*
X16148068Y-7136609D01*
X16070285Y-7136609D01*
X16070285Y-7214391D01*
X16148068Y-7214391D01*
D11*
X13333619Y-11046976D02*
X13333619Y-10846976D01*
X13381238Y-10846976D01*
X13409809Y-10856500D01*
X13428857Y-10875548D01*
X13438381Y-10894595D01*
X13447905Y-10932690D01*
X13447905Y-10961262D01*
X13438381Y-10999357D01*
X13428857Y-11018405D01*
X13409809Y-11037452D01*
X13381238Y-11046976D01*
X13333619Y-11046976D01*
X13533619Y-11046976D02*
X13533619Y-10913643D01*
X13533619Y-10951738D02*
X13543143Y-10932690D01*
X13552667Y-10923167D01*
X13571714Y-10913643D01*
X13590762Y-10913643D01*
X13657428Y-11046976D02*
X13657428Y-10913643D01*
X13657428Y-10846976D02*
X13647905Y-10856500D01*
X13657428Y-10866024D01*
X13666952Y-10856500D01*
X13657428Y-10846976D01*
X13657428Y-10866024D01*
X13781238Y-11046976D02*
X13762190Y-11037452D01*
X13752667Y-11018405D01*
X13752667Y-10846976D01*
X13886000Y-11046976D02*
X13866952Y-11037452D01*
X13857428Y-11018405D01*
X13857428Y-10846976D01*
X14114571Y-11046976D02*
X14114571Y-10846976D01*
X14181238Y-10989833D01*
X14247905Y-10846976D01*
X14247905Y-11046976D01*
X14428857Y-11046976D02*
X14428857Y-10942214D01*
X14419333Y-10923167D01*
X14400286Y-10913643D01*
X14362190Y-10913643D01*
X14343143Y-10923167D01*
X14428857Y-11037452D02*
X14409809Y-11046976D01*
X14362190Y-11046976D01*
X14343143Y-11037452D01*
X14333619Y-11018405D01*
X14333619Y-10999357D01*
X14343143Y-10980310D01*
X14362190Y-10970786D01*
X14409809Y-10970786D01*
X14428857Y-10961262D01*
X14524095Y-10913643D02*
X14524095Y-11113643D01*
X14524095Y-10923167D02*
X14543143Y-10913643D01*
X14581238Y-10913643D01*
X14600286Y-10923167D01*
X14609809Y-10932690D01*
X14619333Y-10951738D01*
X14619333Y-11008881D01*
X14609809Y-11027929D01*
X14600286Y-11037452D01*
X14581238Y-11046976D01*
X14543143Y-11046976D01*
X14524095Y-11037452D01*
X14705048Y-11027929D02*
X14714571Y-11037452D01*
X14705048Y-11046976D01*
X14695524Y-11037452D01*
X14705048Y-11027929D01*
X14705048Y-11046976D01*
X14705048Y-10923167D02*
X14714571Y-10932690D01*
X14705048Y-10942214D01*
X14695524Y-10932690D01*
X14705048Y-10923167D01*
X14705048Y-10942214D01*
D12*
X13036000Y-11356500D02*
X13076000Y-11396500D01*
X13076000Y-11356500D02*
X13036000Y-11396500D01*
D11*
X13371714Y-11266976D02*
X13390762Y-11266976D01*
X13409809Y-11276500D01*
X13419333Y-11286024D01*
X13428857Y-11305071D01*
X13438381Y-11343167D01*
X13438381Y-11390786D01*
X13428857Y-11428881D01*
X13419333Y-11447928D01*
X13409809Y-11457452D01*
X13390762Y-11466976D01*
X13371714Y-11466976D01*
X13352667Y-11457452D01*
X13343143Y-11447928D01*
X13333619Y-11428881D01*
X13324095Y-11390786D01*
X13324095Y-11343167D01*
X13333619Y-11305071D01*
X13343143Y-11286024D01*
X13352667Y-11276500D01*
X13371714Y-11266976D01*
X13524095Y-11447928D02*
X13533619Y-11457452D01*
X13524095Y-11466976D01*
X13514571Y-11457452D01*
X13524095Y-11447928D01*
X13524095Y-11466976D01*
X13705048Y-11333643D02*
X13705048Y-11466976D01*
X13657428Y-11257452D02*
X13609809Y-11400309D01*
X13733619Y-11400309D01*
X13847905Y-11266976D02*
X13866952Y-11266976D01*
X13886000Y-11276500D01*
X13895524Y-11286024D01*
X13905048Y-11305071D01*
X13914571Y-11343167D01*
X13914571Y-11390786D01*
X13905048Y-11428881D01*
X13895524Y-11447928D01*
X13886000Y-11457452D01*
X13866952Y-11466976D01*
X13847905Y-11466976D01*
X13828857Y-11457452D01*
X13819333Y-11447928D01*
X13809809Y-11428881D01*
X13800286Y-11390786D01*
X13800286Y-11343167D01*
X13809809Y-11305071D01*
X13819333Y-11286024D01*
X13828857Y-11276500D01*
X13847905Y-11266976D01*
X14038381Y-11266976D02*
X14057428Y-11266976D01*
X14076476Y-11276500D01*
X14086000Y-11286024D01*
X14095524Y-11305071D01*
X14105048Y-11343167D01*
X14105048Y-11390786D01*
X14095524Y-11428881D01*
X14086000Y-11447928D01*
X14076476Y-11457452D01*
X14057428Y-11466976D01*
X14038381Y-11466976D01*
X14019333Y-11457452D01*
X14009809Y-11447928D01*
X14000286Y-11428881D01*
X13990762Y-11390786D01*
X13990762Y-11343167D01*
X14000286Y-11305071D01*
X14009809Y-11286024D01*
X14019333Y-11276500D01*
X14038381Y-11266976D01*
X14190762Y-11466976D02*
X14190762Y-11333643D01*
X14190762Y-11352690D02*
X14200286Y-11343167D01*
X14219333Y-11333643D01*
X14247905Y-11333643D01*
X14266952Y-11343167D01*
X14276476Y-11362214D01*
X14276476Y-11466976D01*
X14276476Y-11362214D02*
X14286000Y-11343167D01*
X14305048Y-11333643D01*
X14333619Y-11333643D01*
X14352667Y-11343167D01*
X14362190Y-11362214D01*
X14362190Y-11466976D01*
X14457428Y-11466976D02*
X14457428Y-11333643D01*
X14457428Y-11352690D02*
X14466952Y-11343167D01*
X14486000Y-11333643D01*
X14514571Y-11333643D01*
X14533619Y-11343167D01*
X14543143Y-11362214D01*
X14543143Y-11466976D01*
X14543143Y-11362214D02*
X14552667Y-11343167D01*
X14571714Y-11333643D01*
X14600286Y-11333643D01*
X14619333Y-11343167D01*
X14628857Y-11362214D01*
X14628857Y-11466976D01*
X15019333Y-11257452D02*
X14847905Y-11514595D01*
X15276476Y-11266976D02*
X15295524Y-11266976D01*
X15314571Y-11276500D01*
X15324095Y-11286024D01*
X15333619Y-11305071D01*
X15343143Y-11343167D01*
X15343143Y-11390786D01*
X15333619Y-11428881D01*
X15324095Y-11447928D01*
X15314571Y-11457452D01*
X15295524Y-11466976D01*
X15276476Y-11466976D01*
X15257428Y-11457452D01*
X15247905Y-11447928D01*
X15238381Y-11428881D01*
X15228857Y-11390786D01*
X15228857Y-11343167D01*
X15238381Y-11305071D01*
X15247905Y-11286024D01*
X15257428Y-11276500D01*
X15276476Y-11266976D01*
X15428857Y-11447928D02*
X15438381Y-11457452D01*
X15428857Y-11466976D01*
X15419333Y-11457452D01*
X15428857Y-11447928D01*
X15428857Y-11466976D01*
X15562190Y-11266976D02*
X15581238Y-11266976D01*
X15600286Y-11276500D01*
X15609809Y-11286024D01*
X15619333Y-11305071D01*
X15628857Y-11343167D01*
X15628857Y-11390786D01*
X15619333Y-11428881D01*
X15609809Y-11447928D01*
X15600286Y-11457452D01*
X15581238Y-11466976D01*
X15562190Y-11466976D01*
X15543143Y-11457452D01*
X15533619Y-11447928D01*
X15524095Y-11428881D01*
X15514571Y-11390786D01*
X15514571Y-11343167D01*
X15524095Y-11305071D01*
X15533619Y-11286024D01*
X15543143Y-11276500D01*
X15562190Y-11266976D01*
X15819333Y-11466976D02*
X15705048Y-11466976D01*
X15762190Y-11466976D02*
X15762190Y-11266976D01*
X15743143Y-11295548D01*
X15724095Y-11314595D01*
X15705048Y-11324119D01*
X16000286Y-11266976D02*
X15905048Y-11266976D01*
X15895524Y-11362214D01*
X15905048Y-11352690D01*
X15924095Y-11343167D01*
X15971714Y-11343167D01*
X15990762Y-11352690D01*
X16000286Y-11362214D01*
X16009809Y-11381262D01*
X16009809Y-11428881D01*
X16000286Y-11447928D01*
X15990762Y-11457452D01*
X15971714Y-11466976D01*
X15924095Y-11466976D01*
X15905048Y-11457452D01*
X15895524Y-11447928D01*
X16076476Y-11266976D02*
X16209809Y-11266976D01*
X16124095Y-11466976D01*
X16276476Y-11266976D02*
X16276476Y-11305071D01*
X16352667Y-11266976D02*
X16352667Y-11305071D01*
X16647905Y-11543167D02*
X16638381Y-11533643D01*
X16619333Y-11505071D01*
X16609809Y-11486024D01*
X16600286Y-11457452D01*
X16590762Y-11409833D01*
X16590762Y-11371738D01*
X16600286Y-11324119D01*
X16609809Y-11295548D01*
X16619333Y-11276500D01*
X16638381Y-11247928D01*
X16647905Y-11238405D01*
X16828857Y-11466976D02*
X16714571Y-11466976D01*
X16771714Y-11466976D02*
X16771714Y-11266976D01*
X16752667Y-11295548D01*
X16733619Y-11314595D01*
X16714571Y-11324119D01*
X17000286Y-11333643D02*
X17000286Y-11466976D01*
X16952667Y-11257452D02*
X16905048Y-11400309D01*
X17028857Y-11400309D01*
X17257429Y-11466976D02*
X17257429Y-11266976D01*
X17343143Y-11466976D02*
X17343143Y-11362214D01*
X17333619Y-11343167D01*
X17314571Y-11333643D01*
X17286000Y-11333643D01*
X17266952Y-11343167D01*
X17257429Y-11352690D01*
X17466952Y-11466976D02*
X17447905Y-11457452D01*
X17438381Y-11447928D01*
X17428857Y-11428881D01*
X17428857Y-11371738D01*
X17438381Y-11352690D01*
X17447905Y-11343167D01*
X17466952Y-11333643D01*
X17495524Y-11333643D01*
X17514571Y-11343167D01*
X17524095Y-11352690D01*
X17533619Y-11371738D01*
X17533619Y-11428881D01*
X17524095Y-11447928D01*
X17514571Y-11457452D01*
X17495524Y-11466976D01*
X17466952Y-11466976D01*
X17647905Y-11466976D02*
X17628857Y-11457452D01*
X17619333Y-11438405D01*
X17619333Y-11266976D01*
X17800286Y-11457452D02*
X17781238Y-11466976D01*
X17743143Y-11466976D01*
X17724095Y-11457452D01*
X17714571Y-11438405D01*
X17714571Y-11362214D01*
X17724095Y-11343167D01*
X17743143Y-11333643D01*
X17781238Y-11333643D01*
X17800286Y-11343167D01*
X17809810Y-11362214D01*
X17809810Y-11381262D01*
X17714571Y-11400309D01*
X17886000Y-11457452D02*
X17905048Y-11466976D01*
X17943143Y-11466976D01*
X17962190Y-11457452D01*
X17971714Y-11438405D01*
X17971714Y-11428881D01*
X17962190Y-11409833D01*
X17943143Y-11400309D01*
X17914571Y-11400309D01*
X17895524Y-11390786D01*
X17886000Y-11371738D01*
X17886000Y-11362214D01*
X17895524Y-11343167D01*
X17914571Y-11333643D01*
X17943143Y-11333643D01*
X17962190Y-11343167D01*
X18038381Y-11543167D02*
X18047905Y-11533643D01*
X18066952Y-11505071D01*
X18076476Y-11486024D01*
X18086000Y-11457452D01*
X18095524Y-11409833D01*
X18095524Y-11371738D01*
X18086000Y-11324119D01*
X18076476Y-11295548D01*
X18066952Y-11276500D01*
X18047905Y-11247928D01*
X18038381Y-11238405D01*
D13*
X13076000Y-11640500D02*
G75*
G03*
X13076000Y-11640500I-25000J0D01*
G01*
D11*
X13371714Y-11530976D02*
X13390762Y-11530976D01*
X13409809Y-11540500D01*
X13419333Y-11550024D01*
X13428857Y-11569071D01*
X13438381Y-11607167D01*
X13438381Y-11654786D01*
X13428857Y-11692881D01*
X13419333Y-11711928D01*
X13409809Y-11721452D01*
X13390762Y-11730976D01*
X13371714Y-11730976D01*
X13352667Y-11721452D01*
X13343143Y-11711928D01*
X13333619Y-11692881D01*
X13324095Y-11654786D01*
X13324095Y-11607167D01*
X13333619Y-11569071D01*
X13343143Y-11550024D01*
X13352667Y-11540500D01*
X13371714Y-11530976D01*
X13524095Y-11711928D02*
X13533619Y-11721452D01*
X13524095Y-11730976D01*
X13514571Y-11721452D01*
X13524095Y-11711928D01*
X13524095Y-11730976D01*
X13714571Y-11530976D02*
X13619333Y-11530976D01*
X13609809Y-11626214D01*
X13619333Y-11616690D01*
X13638381Y-11607167D01*
X13686000Y-11607167D01*
X13705048Y-11616690D01*
X13714571Y-11626214D01*
X13724095Y-11645262D01*
X13724095Y-11692881D01*
X13714571Y-11711928D01*
X13705048Y-11721452D01*
X13686000Y-11730976D01*
X13638381Y-11730976D01*
X13619333Y-11721452D01*
X13609809Y-11711928D01*
X13847905Y-11530976D02*
X13866952Y-11530976D01*
X13886000Y-11540500D01*
X13895524Y-11550024D01*
X13905048Y-11569071D01*
X13914571Y-11607167D01*
X13914571Y-11654786D01*
X13905048Y-11692881D01*
X13895524Y-11711928D01*
X13886000Y-11721452D01*
X13866952Y-11730976D01*
X13847905Y-11730976D01*
X13828857Y-11721452D01*
X13819333Y-11711928D01*
X13809809Y-11692881D01*
X13800286Y-11654786D01*
X13800286Y-11607167D01*
X13809809Y-11569071D01*
X13819333Y-11550024D01*
X13828857Y-11540500D01*
X13847905Y-11530976D01*
X14038381Y-11530976D02*
X14057428Y-11530976D01*
X14076476Y-11540500D01*
X14086000Y-11550024D01*
X14095524Y-11569071D01*
X14105048Y-11607167D01*
X14105048Y-11654786D01*
X14095524Y-11692881D01*
X14086000Y-11711928D01*
X14076476Y-11721452D01*
X14057428Y-11730976D01*
X14038381Y-11730976D01*
X14019333Y-11721452D01*
X14009809Y-11711928D01*
X14000286Y-11692881D01*
X13990762Y-11654786D01*
X13990762Y-11607167D01*
X14000286Y-11569071D01*
X14009809Y-11550024D01*
X14019333Y-11540500D01*
X14038381Y-11530976D01*
X14190762Y-11730976D02*
X14190762Y-11597643D01*
X14190762Y-11616690D02*
X14200286Y-11607167D01*
X14219333Y-11597643D01*
X14247905Y-11597643D01*
X14266952Y-11607167D01*
X14276476Y-11626214D01*
X14276476Y-11730976D01*
X14276476Y-11626214D02*
X14286000Y-11607167D01*
X14305048Y-11597643D01*
X14333619Y-11597643D01*
X14352667Y-11607167D01*
X14362190Y-11626214D01*
X14362190Y-11730976D01*
X14457428Y-11730976D02*
X14457428Y-11597643D01*
X14457428Y-11616690D02*
X14466952Y-11607167D01*
X14486000Y-11597643D01*
X14514571Y-11597643D01*
X14533619Y-11607167D01*
X14543143Y-11626214D01*
X14543143Y-11730976D01*
X14543143Y-11626214D02*
X14552667Y-11607167D01*
X14571714Y-11597643D01*
X14600286Y-11597643D01*
X14619333Y-11607167D01*
X14628857Y-11626214D01*
X14628857Y-11730976D01*
X15019333Y-11521452D02*
X14847905Y-11778595D01*
X15276476Y-11530976D02*
X15295524Y-11530976D01*
X15314571Y-11540500D01*
X15324095Y-11550024D01*
X15333619Y-11569071D01*
X15343143Y-11607167D01*
X15343143Y-11654786D01*
X15333619Y-11692881D01*
X15324095Y-11711928D01*
X15314571Y-11721452D01*
X15295524Y-11730976D01*
X15276476Y-11730976D01*
X15257428Y-11721452D01*
X15247905Y-11711928D01*
X15238381Y-11692881D01*
X15228857Y-11654786D01*
X15228857Y-11607167D01*
X15238381Y-11569071D01*
X15247905Y-11550024D01*
X15257428Y-11540500D01*
X15276476Y-11530976D01*
X15428857Y-11711928D02*
X15438381Y-11721452D01*
X15428857Y-11730976D01*
X15419333Y-11721452D01*
X15428857Y-11711928D01*
X15428857Y-11730976D01*
X15562190Y-11530976D02*
X15581238Y-11530976D01*
X15600286Y-11540500D01*
X15609809Y-11550024D01*
X15619333Y-11569071D01*
X15628857Y-11607167D01*
X15628857Y-11654786D01*
X15619333Y-11692881D01*
X15609809Y-11711928D01*
X15600286Y-11721452D01*
X15581238Y-11730976D01*
X15562190Y-11730976D01*
X15543143Y-11721452D01*
X15533619Y-11711928D01*
X15524095Y-11692881D01*
X15514571Y-11654786D01*
X15514571Y-11607167D01*
X15524095Y-11569071D01*
X15533619Y-11550024D01*
X15543143Y-11540500D01*
X15562190Y-11530976D01*
X15819333Y-11730976D02*
X15705048Y-11730976D01*
X15762190Y-11730976D02*
X15762190Y-11530976D01*
X15743143Y-11559548D01*
X15724095Y-11578595D01*
X15705048Y-11588119D01*
X15914571Y-11730976D02*
X15952667Y-11730976D01*
X15971714Y-11721452D01*
X15981238Y-11711928D01*
X16000286Y-11683357D01*
X16009809Y-11645262D01*
X16009809Y-11569071D01*
X16000286Y-11550024D01*
X15990762Y-11540500D01*
X15971714Y-11530976D01*
X15933619Y-11530976D01*
X15914571Y-11540500D01*
X15905048Y-11550024D01*
X15895524Y-11569071D01*
X15895524Y-11616690D01*
X15905048Y-11635738D01*
X15914571Y-11645262D01*
X15933619Y-11654786D01*
X15971714Y-11654786D01*
X15990762Y-11645262D01*
X16000286Y-11635738D01*
X16009809Y-11616690D01*
X16076476Y-11530976D02*
X16209809Y-11530976D01*
X16124095Y-11730976D01*
X16276476Y-11530976D02*
X16276476Y-11569071D01*
X16352667Y-11530976D02*
X16352667Y-11569071D01*
X16647905Y-11807167D02*
X16638381Y-11797643D01*
X16619333Y-11769071D01*
X16609809Y-11750024D01*
X16600286Y-11721452D01*
X16590762Y-11673833D01*
X16590762Y-11635738D01*
X16600286Y-11588119D01*
X16609809Y-11559548D01*
X16619333Y-11540500D01*
X16638381Y-11511928D01*
X16647905Y-11502405D01*
X16705048Y-11530976D02*
X16828857Y-11530976D01*
X16762190Y-11607167D01*
X16790762Y-11607167D01*
X16809810Y-11616690D01*
X16819333Y-11626214D01*
X16828857Y-11645262D01*
X16828857Y-11692881D01*
X16819333Y-11711928D01*
X16809810Y-11721452D01*
X16790762Y-11730976D01*
X16733619Y-11730976D01*
X16714571Y-11721452D01*
X16705048Y-11711928D01*
X17066952Y-11730976D02*
X17066952Y-11530976D01*
X17152667Y-11730976D02*
X17152667Y-11626214D01*
X17143143Y-11607167D01*
X17124095Y-11597643D01*
X17095524Y-11597643D01*
X17076476Y-11607167D01*
X17066952Y-11616690D01*
X17276476Y-11730976D02*
X17257429Y-11721452D01*
X17247905Y-11711928D01*
X17238381Y-11692881D01*
X17238381Y-11635738D01*
X17247905Y-11616690D01*
X17257429Y-11607167D01*
X17276476Y-11597643D01*
X17305048Y-11597643D01*
X17324095Y-11607167D01*
X17333619Y-11616690D01*
X17343143Y-11635738D01*
X17343143Y-11692881D01*
X17333619Y-11711928D01*
X17324095Y-11721452D01*
X17305048Y-11730976D01*
X17276476Y-11730976D01*
X17457429Y-11730976D02*
X17438381Y-11721452D01*
X17428857Y-11702405D01*
X17428857Y-11530976D01*
X17609810Y-11721452D02*
X17590762Y-11730976D01*
X17552667Y-11730976D01*
X17533619Y-11721452D01*
X17524095Y-11702405D01*
X17524095Y-11626214D01*
X17533619Y-11607167D01*
X17552667Y-11597643D01*
X17590762Y-11597643D01*
X17609810Y-11607167D01*
X17619333Y-11626214D01*
X17619333Y-11645262D01*
X17524095Y-11664309D01*
X17695524Y-11721452D02*
X17714571Y-11730976D01*
X17752667Y-11730976D01*
X17771714Y-11721452D01*
X17781238Y-11702405D01*
X17781238Y-11692881D01*
X17771714Y-11673833D01*
X17752667Y-11664309D01*
X17724095Y-11664309D01*
X17705048Y-11654786D01*
X17695524Y-11635738D01*
X17695524Y-11626214D01*
X17705048Y-11607167D01*
X17724095Y-11597643D01*
X17752667Y-11597643D01*
X17771714Y-11607167D01*
X17847905Y-11807167D02*
X17857429Y-11797643D01*
X17876476Y-11769071D01*
X17886000Y-11750024D01*
X17895524Y-11721452D01*
X17905048Y-11673833D01*
X17905048Y-11635738D01*
X17895524Y-11588119D01*
X17886000Y-11559548D01*
X17876476Y-11540500D01*
X17857429Y-11511928D01*
X17847905Y-11502405D01*
D14*
X13026000Y-11854500D02*
X13026000Y-11954500D01*
X12976000Y-11904500D02*
X13076000Y-11904500D01*
D11*
X13438381Y-11994976D02*
X13324095Y-11994976D01*
X13381238Y-11994976D02*
X13381238Y-11794976D01*
X13362190Y-11823548D01*
X13343143Y-11842595D01*
X13324095Y-11852119D01*
X13524095Y-11975928D02*
X13533619Y-11985452D01*
X13524095Y-11994976D01*
X13514571Y-11985452D01*
X13524095Y-11975928D01*
X13524095Y-11994976D01*
X13657428Y-11794976D02*
X13676476Y-11794976D01*
X13695524Y-11804500D01*
X13705048Y-11814024D01*
X13714571Y-11833071D01*
X13724095Y-11871167D01*
X13724095Y-11918786D01*
X13714571Y-11956881D01*
X13705048Y-11975928D01*
X13695524Y-11985452D01*
X13676476Y-11994976D01*
X13657428Y-11994976D01*
X13638381Y-11985452D01*
X13628857Y-11975928D01*
X13619333Y-11956881D01*
X13609809Y-11918786D01*
X13609809Y-11871167D01*
X13619333Y-11833071D01*
X13628857Y-11814024D01*
X13638381Y-11804500D01*
X13657428Y-11794976D01*
X13847905Y-11794976D02*
X13866952Y-11794976D01*
X13886000Y-11804500D01*
X13895524Y-11814024D01*
X13905048Y-11833071D01*
X13914571Y-11871167D01*
X13914571Y-11918786D01*
X13905048Y-11956881D01*
X13895524Y-11975928D01*
X13886000Y-11985452D01*
X13866952Y-11994976D01*
X13847905Y-11994976D01*
X13828857Y-11985452D01*
X13819333Y-11975928D01*
X13809809Y-11956881D01*
X13800286Y-11918786D01*
X13800286Y-11871167D01*
X13809809Y-11833071D01*
X13819333Y-11814024D01*
X13828857Y-11804500D01*
X13847905Y-11794976D01*
X14038381Y-11794976D02*
X14057428Y-11794976D01*
X14076476Y-11804500D01*
X14086000Y-11814024D01*
X14095524Y-11833071D01*
X14105048Y-11871167D01*
X14105048Y-11918786D01*
X14095524Y-11956881D01*
X14086000Y-11975928D01*
X14076476Y-11985452D01*
X14057428Y-11994976D01*
X14038381Y-11994976D01*
X14019333Y-11985452D01*
X14009809Y-11975928D01*
X14000286Y-11956881D01*
X13990762Y-11918786D01*
X13990762Y-11871167D01*
X14000286Y-11833071D01*
X14009809Y-11814024D01*
X14019333Y-11804500D01*
X14038381Y-11794976D01*
X14190762Y-11994976D02*
X14190762Y-11861643D01*
X14190762Y-11880690D02*
X14200286Y-11871167D01*
X14219333Y-11861643D01*
X14247905Y-11861643D01*
X14266952Y-11871167D01*
X14276476Y-11890214D01*
X14276476Y-11994976D01*
X14276476Y-11890214D02*
X14286000Y-11871167D01*
X14305048Y-11861643D01*
X14333619Y-11861643D01*
X14352667Y-11871167D01*
X14362190Y-11890214D01*
X14362190Y-11994976D01*
X14457428Y-11994976D02*
X14457428Y-11861643D01*
X14457428Y-11880690D02*
X14466952Y-11871167D01*
X14486000Y-11861643D01*
X14514571Y-11861643D01*
X14533619Y-11871167D01*
X14543143Y-11890214D01*
X14543143Y-11994976D01*
X14543143Y-11890214D02*
X14552667Y-11871167D01*
X14571714Y-11861643D01*
X14600286Y-11861643D01*
X14619333Y-11871167D01*
X14628857Y-11890214D01*
X14628857Y-11994976D01*
X15019333Y-11785452D02*
X14847905Y-12042595D01*
X15276476Y-11794976D02*
X15295524Y-11794976D01*
X15314571Y-11804500D01*
X15324095Y-11814024D01*
X15333619Y-11833071D01*
X15343143Y-11871167D01*
X15343143Y-11918786D01*
X15333619Y-11956881D01*
X15324095Y-11975928D01*
X15314571Y-11985452D01*
X15295524Y-11994976D01*
X15276476Y-11994976D01*
X15257428Y-11985452D01*
X15247905Y-11975928D01*
X15238381Y-11956881D01*
X15228857Y-11918786D01*
X15228857Y-11871167D01*
X15238381Y-11833071D01*
X15247905Y-11814024D01*
X15257428Y-11804500D01*
X15276476Y-11794976D01*
X15428857Y-11975928D02*
X15438381Y-11985452D01*
X15428857Y-11994976D01*
X15419333Y-11985452D01*
X15428857Y-11975928D01*
X15428857Y-11994976D01*
X15562190Y-11794976D02*
X15581238Y-11794976D01*
X15600286Y-11804500D01*
X15609809Y-11814024D01*
X15619333Y-11833071D01*
X15628857Y-11871167D01*
X15628857Y-11918786D01*
X15619333Y-11956881D01*
X15609809Y-11975928D01*
X15600286Y-11985452D01*
X15581238Y-11994976D01*
X15562190Y-11994976D01*
X15543143Y-11985452D01*
X15533619Y-11975928D01*
X15524095Y-11956881D01*
X15514571Y-11918786D01*
X15514571Y-11871167D01*
X15524095Y-11833071D01*
X15533619Y-11814024D01*
X15543143Y-11804500D01*
X15562190Y-11794976D01*
X15695524Y-11794976D02*
X15819333Y-11794976D01*
X15752667Y-11871167D01*
X15781238Y-11871167D01*
X15800286Y-11880690D01*
X15809809Y-11890214D01*
X15819333Y-11909262D01*
X15819333Y-11956881D01*
X15809809Y-11975928D01*
X15800286Y-11985452D01*
X15781238Y-11994976D01*
X15724095Y-11994976D01*
X15705048Y-11985452D01*
X15695524Y-11975928D01*
X15914571Y-11994976D02*
X15952667Y-11994976D01*
X15971714Y-11985452D01*
X15981238Y-11975928D01*
X16000286Y-11947357D01*
X16009809Y-11909262D01*
X16009809Y-11833071D01*
X16000286Y-11814024D01*
X15990762Y-11804500D01*
X15971714Y-11794976D01*
X15933619Y-11794976D01*
X15914571Y-11804500D01*
X15905048Y-11814024D01*
X15895524Y-11833071D01*
X15895524Y-11880690D01*
X15905048Y-11899738D01*
X15914571Y-11909262D01*
X15933619Y-11918786D01*
X15971714Y-11918786D01*
X15990762Y-11909262D01*
X16000286Y-11899738D01*
X16009809Y-11880690D01*
X16181238Y-11861643D02*
X16181238Y-11994976D01*
X16133619Y-11785452D02*
X16086000Y-11928309D01*
X16209809Y-11928309D01*
X16276476Y-11794976D02*
X16276476Y-11833071D01*
X16352667Y-11794976D02*
X16352667Y-11833071D01*
X16647905Y-12071167D02*
X16638381Y-12061643D01*
X16619333Y-12033071D01*
X16609809Y-12014024D01*
X16600286Y-11985452D01*
X16590762Y-11937833D01*
X16590762Y-11899738D01*
X16600286Y-11852119D01*
X16609809Y-11823548D01*
X16619333Y-11804500D01*
X16638381Y-11775928D01*
X16647905Y-11766405D01*
X16705048Y-11794976D02*
X16828857Y-11794976D01*
X16762190Y-11871167D01*
X16790762Y-11871167D01*
X16809810Y-11880690D01*
X16819333Y-11890214D01*
X16828857Y-11909262D01*
X16828857Y-11956881D01*
X16819333Y-11975928D01*
X16809810Y-11985452D01*
X16790762Y-11994976D01*
X16733619Y-11994976D01*
X16714571Y-11985452D01*
X16705048Y-11975928D01*
X16905048Y-11814024D02*
X16914571Y-11804500D01*
X16933619Y-11794976D01*
X16981238Y-11794976D01*
X17000286Y-11804500D01*
X17009810Y-11814024D01*
X17019333Y-11833071D01*
X17019333Y-11852119D01*
X17009810Y-11880690D01*
X16895524Y-11994976D01*
X17019333Y-11994976D01*
X17257429Y-11994976D02*
X17257429Y-11794976D01*
X17343143Y-11994976D02*
X17343143Y-11890214D01*
X17333619Y-11871167D01*
X17314571Y-11861643D01*
X17286000Y-11861643D01*
X17266952Y-11871167D01*
X17257429Y-11880690D01*
X17466952Y-11994976D02*
X17447905Y-11985452D01*
X17438381Y-11975928D01*
X17428857Y-11956881D01*
X17428857Y-11899738D01*
X17438381Y-11880690D01*
X17447905Y-11871167D01*
X17466952Y-11861643D01*
X17495524Y-11861643D01*
X17514571Y-11871167D01*
X17524095Y-11880690D01*
X17533619Y-11899738D01*
X17533619Y-11956881D01*
X17524095Y-11975928D01*
X17514571Y-11985452D01*
X17495524Y-11994976D01*
X17466952Y-11994976D01*
X17647905Y-11994976D02*
X17628857Y-11985452D01*
X17619333Y-11966405D01*
X17619333Y-11794976D01*
X17800286Y-11985452D02*
X17781238Y-11994976D01*
X17743143Y-11994976D01*
X17724095Y-11985452D01*
X17714571Y-11966405D01*
X17714571Y-11890214D01*
X17724095Y-11871167D01*
X17743143Y-11861643D01*
X17781238Y-11861643D01*
X17800286Y-11871167D01*
X17809810Y-11890214D01*
X17809810Y-11909262D01*
X17714571Y-11928309D01*
X17886000Y-11985452D02*
X17905048Y-11994976D01*
X17943143Y-11994976D01*
X17962190Y-11985452D01*
X17971714Y-11966405D01*
X17971714Y-11956881D01*
X17962190Y-11937833D01*
X17943143Y-11928309D01*
X17914571Y-11928309D01*
X17895524Y-11918786D01*
X17886000Y-11899738D01*
X17886000Y-11890214D01*
X17895524Y-11871167D01*
X17914571Y-11861643D01*
X17943143Y-11861643D01*
X17962190Y-11871167D01*
X18038381Y-12071167D02*
X18047905Y-12061643D01*
X18066952Y-12033071D01*
X18076476Y-12014024D01*
X18086000Y-11985452D01*
X18095524Y-11937833D01*
X18095524Y-11899738D01*
X18086000Y-11852119D01*
X18076476Y-11823548D01*
X18066952Y-11804500D01*
X18047905Y-11775928D01*
X18038381Y-11766405D01*
D15*
X13059891Y-12207391D02*
X13059891Y-12129609D01*
X12982109Y-12129609D01*
X12982109Y-12207391D01*
X13059891Y-12207391D01*
D11*
X13438381Y-12258976D02*
X13324095Y-12258976D01*
X13381238Y-12258976D02*
X13381238Y-12058976D01*
X13362190Y-12087548D01*
X13343143Y-12106595D01*
X13324095Y-12116119D01*
X13524095Y-12239928D02*
X13533619Y-12249452D01*
X13524095Y-12258976D01*
X13514571Y-12249452D01*
X13524095Y-12239928D01*
X13524095Y-12258976D01*
X13724095Y-12258976D02*
X13609809Y-12258976D01*
X13666952Y-12258976D02*
X13666952Y-12058976D01*
X13647905Y-12087548D01*
X13628857Y-12106595D01*
X13609809Y-12116119D01*
X13847905Y-12058976D02*
X13866952Y-12058976D01*
X13886000Y-12068500D01*
X13895524Y-12078024D01*
X13905048Y-12097071D01*
X13914571Y-12135167D01*
X13914571Y-12182786D01*
X13905048Y-12220881D01*
X13895524Y-12239928D01*
X13886000Y-12249452D01*
X13866952Y-12258976D01*
X13847905Y-12258976D01*
X13828857Y-12249452D01*
X13819333Y-12239928D01*
X13809809Y-12220881D01*
X13800286Y-12182786D01*
X13800286Y-12135167D01*
X13809809Y-12097071D01*
X13819333Y-12078024D01*
X13828857Y-12068500D01*
X13847905Y-12058976D01*
X14038381Y-12058976D02*
X14057428Y-12058976D01*
X14076476Y-12068500D01*
X14086000Y-12078024D01*
X14095524Y-12097071D01*
X14105048Y-12135167D01*
X14105048Y-12182786D01*
X14095524Y-12220881D01*
X14086000Y-12239928D01*
X14076476Y-12249452D01*
X14057428Y-12258976D01*
X14038381Y-12258976D01*
X14019333Y-12249452D01*
X14009809Y-12239928D01*
X14000286Y-12220881D01*
X13990762Y-12182786D01*
X13990762Y-12135167D01*
X14000286Y-12097071D01*
X14009809Y-12078024D01*
X14019333Y-12068500D01*
X14038381Y-12058976D01*
X14190762Y-12258976D02*
X14190762Y-12125643D01*
X14190762Y-12144690D02*
X14200286Y-12135167D01*
X14219333Y-12125643D01*
X14247905Y-12125643D01*
X14266952Y-12135167D01*
X14276476Y-12154214D01*
X14276476Y-12258976D01*
X14276476Y-12154214D02*
X14286000Y-12135167D01*
X14305048Y-12125643D01*
X14333619Y-12125643D01*
X14352667Y-12135167D01*
X14362190Y-12154214D01*
X14362190Y-12258976D01*
X14457428Y-12258976D02*
X14457428Y-12125643D01*
X14457428Y-12144690D02*
X14466952Y-12135167D01*
X14486000Y-12125643D01*
X14514571Y-12125643D01*
X14533619Y-12135167D01*
X14543143Y-12154214D01*
X14543143Y-12258976D01*
X14543143Y-12154214D02*
X14552667Y-12135167D01*
X14571714Y-12125643D01*
X14600286Y-12125643D01*
X14619333Y-12135167D01*
X14628857Y-12154214D01*
X14628857Y-12258976D01*
X15019333Y-12049452D02*
X14847905Y-12306595D01*
X15276476Y-12058976D02*
X15295524Y-12058976D01*
X15314571Y-12068500D01*
X15324095Y-12078024D01*
X15333619Y-12097071D01*
X15343143Y-12135167D01*
X15343143Y-12182786D01*
X15333619Y-12220881D01*
X15324095Y-12239928D01*
X15314571Y-12249452D01*
X15295524Y-12258976D01*
X15276476Y-12258976D01*
X15257428Y-12249452D01*
X15247905Y-12239928D01*
X15238381Y-12220881D01*
X15228857Y-12182786D01*
X15228857Y-12135167D01*
X15238381Y-12097071D01*
X15247905Y-12078024D01*
X15257428Y-12068500D01*
X15276476Y-12058976D01*
X15428857Y-12239928D02*
X15438381Y-12249452D01*
X15428857Y-12258976D01*
X15419333Y-12249452D01*
X15428857Y-12239928D01*
X15428857Y-12258976D01*
X15562190Y-12058976D02*
X15581238Y-12058976D01*
X15600286Y-12068500D01*
X15609809Y-12078024D01*
X15619333Y-12097071D01*
X15628857Y-12135167D01*
X15628857Y-12182786D01*
X15619333Y-12220881D01*
X15609809Y-12239928D01*
X15600286Y-12249452D01*
X15581238Y-12258976D01*
X15562190Y-12258976D01*
X15543143Y-12249452D01*
X15533619Y-12239928D01*
X15524095Y-12220881D01*
X15514571Y-12182786D01*
X15514571Y-12135167D01*
X15524095Y-12097071D01*
X15533619Y-12078024D01*
X15543143Y-12068500D01*
X15562190Y-12058976D01*
X15800286Y-12125643D02*
X15800286Y-12258976D01*
X15752667Y-12049452D02*
X15705048Y-12192309D01*
X15828857Y-12192309D01*
X15886000Y-12058976D02*
X16009809Y-12058976D01*
X15943143Y-12135167D01*
X15971714Y-12135167D01*
X15990762Y-12144690D01*
X16000286Y-12154214D01*
X16009809Y-12173262D01*
X16009809Y-12220881D01*
X16000286Y-12239928D01*
X15990762Y-12249452D01*
X15971714Y-12258976D01*
X15914571Y-12258976D01*
X15895524Y-12249452D01*
X15886000Y-12239928D01*
X16076476Y-12058976D02*
X16200286Y-12058976D01*
X16133619Y-12135167D01*
X16162190Y-12135167D01*
X16181238Y-12144690D01*
X16190762Y-12154214D01*
X16200286Y-12173262D01*
X16200286Y-12220881D01*
X16190762Y-12239928D01*
X16181238Y-12249452D01*
X16162190Y-12258976D01*
X16105048Y-12258976D01*
X16086000Y-12249452D01*
X16076476Y-12239928D01*
X16276476Y-12058976D02*
X16276476Y-12097071D01*
X16352667Y-12058976D02*
X16352667Y-12097071D01*
X16647905Y-12335167D02*
X16638381Y-12325643D01*
X16619333Y-12297071D01*
X16609809Y-12278024D01*
X16600286Y-12249452D01*
X16590762Y-12201833D01*
X16590762Y-12163738D01*
X16600286Y-12116119D01*
X16609809Y-12087548D01*
X16619333Y-12068500D01*
X16638381Y-12039928D01*
X16647905Y-12030405D01*
X16809810Y-12125643D02*
X16809810Y-12258976D01*
X16762190Y-12049452D02*
X16714571Y-12192309D01*
X16838381Y-12192309D01*
X16952667Y-12058976D02*
X16971714Y-12058976D01*
X16990762Y-12068500D01*
X17000286Y-12078024D01*
X17009810Y-12097071D01*
X17019333Y-12135167D01*
X17019333Y-12182786D01*
X17009810Y-12220881D01*
X17000286Y-12239928D01*
X16990762Y-12249452D01*
X16971714Y-12258976D01*
X16952667Y-12258976D01*
X16933619Y-12249452D01*
X16924095Y-12239928D01*
X16914571Y-12220881D01*
X16905048Y-12182786D01*
X16905048Y-12135167D01*
X16914571Y-12097071D01*
X16924095Y-12078024D01*
X16933619Y-12068500D01*
X16952667Y-12058976D01*
X17257429Y-12258976D02*
X17257429Y-12058976D01*
X17343143Y-12258976D02*
X17343143Y-12154214D01*
X17333619Y-12135167D01*
X17314571Y-12125643D01*
X17286000Y-12125643D01*
X17266952Y-12135167D01*
X17257429Y-12144690D01*
X17466952Y-12258976D02*
X17447905Y-12249452D01*
X17438381Y-12239928D01*
X17428857Y-12220881D01*
X17428857Y-12163738D01*
X17438381Y-12144690D01*
X17447905Y-12135167D01*
X17466952Y-12125643D01*
X17495524Y-12125643D01*
X17514571Y-12135167D01*
X17524095Y-12144690D01*
X17533619Y-12163738D01*
X17533619Y-12220881D01*
X17524095Y-12239928D01*
X17514571Y-12249452D01*
X17495524Y-12258976D01*
X17466952Y-12258976D01*
X17647905Y-12258976D02*
X17628857Y-12249452D01*
X17619333Y-12230405D01*
X17619333Y-12058976D01*
X17800286Y-12249452D02*
X17781238Y-12258976D01*
X17743143Y-12258976D01*
X17724095Y-12249452D01*
X17714571Y-12230405D01*
X17714571Y-12154214D01*
X17724095Y-12135167D01*
X17743143Y-12125643D01*
X17781238Y-12125643D01*
X17800286Y-12135167D01*
X17809810Y-12154214D01*
X17809810Y-12173262D01*
X17714571Y-12192309D01*
X17886000Y-12249452D02*
X17905048Y-12258976D01*
X17943143Y-12258976D01*
X17962190Y-12249452D01*
X17971714Y-12230405D01*
X17971714Y-12220881D01*
X17962190Y-12201833D01*
X17943143Y-12192309D01*
X17914571Y-12192309D01*
X17895524Y-12182786D01*
X17886000Y-12163738D01*
X17886000Y-12154214D01*
X17895524Y-12135167D01*
X17914571Y-12125643D01*
X17943143Y-12125643D01*
X17962190Y-12135167D01*
X18038381Y-12335167D02*
X18047905Y-12325643D01*
X18066952Y-12297071D01*
X18076476Y-12278024D01*
X18086000Y-12249452D01*
X18095524Y-12201833D01*
X18095524Y-12163738D01*
X18086000Y-12116119D01*
X18076476Y-12087548D01*
X18066952Y-12068500D01*
X18047905Y-12039928D01*
X18038381Y-12030405D01*
M02*
