%TF.GenerationSoftware,KiCad,Pcbnew,(6.0.1)*%
%TF.CreationDate,2022-02-24T09:20:58+01:00*%
%TF.ProjectId,RC-MultiSwitcher,52432d4d-756c-4746-9953-776974636865,rev?*%
%TF.SameCoordinates,Original*%
%TF.FileFunction,Soldermask,Top*%
%TF.FilePolarity,Negative*%
%FSLAX46Y46*%
G04 Gerber Fmt 4.6, Leading zero omitted, Abs format (unit mm)*
G04 Created by KiCad (PCBNEW (6.0.1)) date 2022-02-24 09:20:58*
%MOMM*%
%LPD*%
G01*
G04 APERTURE LIST*
G04 Aperture macros list*
%AMRoundRect*
0 Rectangle with rounded corners*
0 $1 Rounding radius*
0 $2 $3 $4 $5 $6 $7 $8 $9 X,Y pos of 4 corners*
0 Add a 4 corners polygon primitive as box body*
4,1,4,$2,$3,$4,$5,$6,$7,$8,$9,$2,$3,0*
0 Add four circle primitives for the rounded corners*
1,1,$1+$1,$2,$3*
1,1,$1+$1,$4,$5*
1,1,$1+$1,$6,$7*
1,1,$1+$1,$8,$9*
0 Add four rect primitives between the rounded corners*
20,1,$1+$1,$2,$3,$4,$5,0*
20,1,$1+$1,$4,$5,$6,$7,0*
20,1,$1+$1,$6,$7,$8,$9,0*
20,1,$1+$1,$8,$9,$2,$3,0*%
G04 Aperture macros list end*
%ADD10R,2.200000X2.200000*%
%ADD11O,2.200000X2.200000*%
%ADD12RoundRect,0.135000X-0.185000X0.135000X-0.185000X-0.135000X0.185000X-0.135000X0.185000X0.135000X0*%
%ADD13R,1.700000X1.700000*%
%ADD14O,1.700000X1.700000*%
%ADD15RoundRect,0.250000X-0.312500X-1.450000X0.312500X-1.450000X0.312500X1.450000X-0.312500X1.450000X0*%
%ADD16RoundRect,0.225000X-0.225000X-0.250000X0.225000X-0.250000X0.225000X0.250000X-0.225000X0.250000X0*%
%ADD17R,1.500000X0.650000*%
%ADD18RoundRect,0.135000X0.185000X-0.135000X0.185000X0.135000X-0.185000X0.135000X-0.185000X-0.135000X0*%
%ADD19RoundRect,0.135000X-0.135000X-0.185000X0.135000X-0.185000X0.135000X0.185000X-0.135000X0.185000X0*%
%ADD20R,1.750000X0.950000*%
%ADD21R,1.750000X3.200000*%
%ADD22RoundRect,0.250000X0.750000X-0.600000X0.750000X0.600000X-0.750000X0.600000X-0.750000X-0.600000X0*%
%ADD23O,2.000000X1.700000*%
%ADD24RoundRect,0.250000X-0.787500X-1.025000X0.787500X-1.025000X0.787500X1.025000X-0.787500X1.025000X0*%
%ADD25R,1.500000X1.000000*%
%ADD26R,1.600000X1.600000*%
%ADD27C,1.600000*%
G04 APERTURE END LIST*
D10*
X159821766Y-64135000D03*
D11*
X157281766Y-64135000D03*
D10*
X148391766Y-64135000D03*
D11*
X145851766Y-64135000D03*
D10*
X136961766Y-64135000D03*
D11*
X134421766Y-64135000D03*
D12*
X142240000Y-75055000D03*
X142240000Y-76075000D03*
D10*
X142676766Y-64135000D03*
D11*
X140136766Y-64135000D03*
D13*
X135890000Y-85090000D03*
D14*
X135890000Y-82550000D03*
X135890000Y-80010000D03*
X135890000Y-77470000D03*
X135890000Y-74930000D03*
X135890000Y-72390000D03*
D15*
X133117500Y-98425000D03*
X137392500Y-98425000D03*
D13*
X133345000Y-67945000D03*
D14*
X135885000Y-67945000D03*
X138425000Y-67945000D03*
X140965000Y-67945000D03*
X143505000Y-67945000D03*
X146045000Y-67945000D03*
X148585000Y-67945000D03*
X151125000Y-67945000D03*
X153665000Y-67945000D03*
X156205000Y-67945000D03*
X158745000Y-67945000D03*
X161285000Y-67945000D03*
D12*
X138430000Y-71245000D03*
X138430000Y-72265000D03*
D16*
X148450000Y-92710000D03*
X150000000Y-92710000D03*
D13*
X159385000Y-75560000D03*
D14*
X159385000Y-78100000D03*
X159385000Y-80640000D03*
X159385000Y-83180000D03*
X159385000Y-85720000D03*
X159385000Y-88260000D03*
X159385000Y-90800000D03*
X159385000Y-93340000D03*
X159385000Y-95880000D03*
X159385000Y-98420000D03*
X159385000Y-100960000D03*
X159385000Y-103500000D03*
D17*
X144620000Y-85725000D03*
X144620000Y-86995000D03*
X144620000Y-88265000D03*
X144620000Y-89535000D03*
X150020000Y-89535000D03*
X150020000Y-88265000D03*
X150020000Y-86995000D03*
X150020000Y-85725000D03*
D12*
X138430000Y-77595000D03*
X138430000Y-78615000D03*
D18*
X142240000Y-81155000D03*
X142240000Y-80135000D03*
X142240000Y-93220000D03*
X142240000Y-92200000D03*
D19*
X136650000Y-102870000D03*
X137670000Y-102870000D03*
D17*
X144620000Y-79375000D03*
X144620000Y-80645000D03*
X144620000Y-81915000D03*
X144620000Y-83185000D03*
X150020000Y-83185000D03*
X150020000Y-81915000D03*
X150020000Y-80645000D03*
X150020000Y-79375000D03*
D19*
X136650000Y-104140000D03*
X137670000Y-104140000D03*
D10*
X161091766Y-71755000D03*
D11*
X158551766Y-71755000D03*
D20*
X146075000Y-94855000D03*
X146075000Y-97155000D03*
X146075000Y-99455000D03*
D21*
X152375000Y-97155000D03*
D22*
X134095000Y-92690000D03*
D23*
X134095000Y-90190000D03*
D17*
X144620000Y-73025000D03*
X144620000Y-74295000D03*
X144620000Y-75565000D03*
X144620000Y-76835000D03*
X150020000Y-76835000D03*
X150020000Y-75565000D03*
X150020000Y-74295000D03*
X150020000Y-73025000D03*
D24*
X146112500Y-103505000D03*
X152337500Y-103505000D03*
D10*
X154106766Y-64135000D03*
D11*
X151566766Y-64135000D03*
D25*
X143510000Y-97775000D03*
X143510000Y-99075000D03*
D18*
X138430000Y-83060000D03*
X138430000Y-82040000D03*
X138430000Y-86235000D03*
X138430000Y-85215000D03*
X138430000Y-74805000D03*
X138430000Y-73785000D03*
D26*
X140335000Y-104775000D03*
D27*
X140335000Y-102235000D03*
X140335000Y-99695000D03*
X140335000Y-97155000D03*
X140335000Y-94615000D03*
X140335000Y-92075000D03*
X140335000Y-89535000D03*
X140335000Y-86995000D03*
X140335000Y-84455000D03*
X140335000Y-81915000D03*
X140335000Y-79375000D03*
X140335000Y-76835000D03*
X140335000Y-74295000D03*
X140335000Y-71755000D03*
X155575000Y-71755000D03*
X155575000Y-74295000D03*
X155575000Y-76835000D03*
X155575000Y-79375000D03*
X155575000Y-81915000D03*
X155575000Y-84455000D03*
X155575000Y-86995000D03*
X155575000Y-89535000D03*
X155575000Y-92075000D03*
X155575000Y-94615000D03*
X155575000Y-97155000D03*
X155575000Y-99695000D03*
X155575000Y-102235000D03*
X155575000Y-104775000D03*
M02*
