M48
; DRILL file {KiCad (6.0.1)} date Sun Feb 13 09:40:23 2022
; FORMAT={-:-/ absolute / metric / decimal}
; #@! TF.CreationDate,2022-02-13T09:40:23+01:00
; #@! TF.GenerationSoftware,Kicad,Pcbnew,(6.0.1)
; #@! TF.FileFunction,Plated,1,2,PTH
FMAT,2
METRIC
; #@! TA.AperFunction,Plated,PTH,ViaDrill
T1C0.400
; #@! TA.AperFunction,Plated,PTH,ViaDrill
T2C0.500
; #@! TA.AperFunction,Plated,PTH,ComponentDrill
T3C1.000
; #@! TA.AperFunction,Plated,PTH,ComponentDrill
T4C1.100
%
G90
G05
T1
X134.62Y-90.17
X134.62Y-93.98
X135.89Y-90.17
X135.89Y-93.98
X137.16Y-90.17
X137.16Y-93.98
X144.78Y-74.295
X144.78Y-76.835
X144.78Y-80.645
X144.78Y-83.185
X144.78Y-86.995
X144.78Y-89.535
X146.05Y-102.87
X147.32Y-92.71
T2
X149.86Y-75.565
X149.86Y-81.915
X149.86Y-88.265
T3
X133.345Y-67.945
X135.885Y-67.945
X135.89Y-72.39
X135.89Y-74.93
X135.89Y-77.47
X135.89Y-80.01
X135.89Y-82.55
X135.89Y-85.09
X138.425Y-67.945
X140.965Y-67.945
X143.505Y-67.945
X146.045Y-67.945
X148.585Y-67.945
X151.125Y-67.945
X153.665Y-67.945
X156.205Y-67.945
X158.745Y-67.945
X159.385Y-75.56
X159.385Y-78.1
X159.385Y-80.64
X159.385Y-83.18
X159.385Y-85.72
X159.385Y-88.26
X159.385Y-90.8
X159.385Y-93.34
X159.385Y-95.88
X159.385Y-98.42
X159.385Y-100.96
X159.385Y-103.5
X161.285Y-67.945
T4
X134.422Y-64.135
X136.962Y-64.135
X140.137Y-64.135
X140.335Y-71.755
X140.335Y-74.295
X140.335Y-76.835
X140.335Y-79.375
X140.335Y-81.915
X140.335Y-84.455
X140.335Y-86.995
X140.335Y-89.535
X140.335Y-92.075
X140.335Y-94.615
X140.335Y-97.155
X140.335Y-99.695
X140.335Y-102.235
X140.335Y-104.775
X142.677Y-64.135
X145.852Y-64.135
X148.392Y-64.135
X151.567Y-64.135
X154.107Y-64.135
X155.575Y-71.755
X155.575Y-74.295
X155.575Y-76.835
X155.575Y-79.375
X155.575Y-81.915
X155.575Y-84.455
X155.575Y-86.995
X155.575Y-89.535
X155.575Y-92.075
X155.575Y-94.615
X155.575Y-97.155
X155.575Y-99.695
X155.575Y-102.235
X155.575Y-104.775
X157.282Y-64.135
X158.552Y-71.755
X159.822Y-64.135
X161.092Y-71.755
T0
M30
