%TF.GenerationSoftware,KiCad,Pcbnew,(6.0.1)*%
%TF.CreationDate,2022-02-24T09:20:58+01:00*%
%TF.ProjectId,RC-MultiSwitcher,52432d4d-756c-4746-9953-776974636865,rev?*%
%TF.SameCoordinates,Original*%
%TF.FileFunction,Copper,L1,Top*%
%TF.FilePolarity,Positive*%
%FSLAX46Y46*%
G04 Gerber Fmt 4.6, Leading zero omitted, Abs format (unit mm)*
G04 Created by KiCad (PCBNEW (6.0.1)) date 2022-02-24 09:20:58*
%MOMM*%
%LPD*%
G01*
G04 APERTURE LIST*
G04 Aperture macros list*
%AMRoundRect*
0 Rectangle with rounded corners*
0 $1 Rounding radius*
0 $2 $3 $4 $5 $6 $7 $8 $9 X,Y pos of 4 corners*
0 Add a 4 corners polygon primitive as box body*
4,1,4,$2,$3,$4,$5,$6,$7,$8,$9,$2,$3,0*
0 Add four circle primitives for the rounded corners*
1,1,$1+$1,$2,$3*
1,1,$1+$1,$4,$5*
1,1,$1+$1,$6,$7*
1,1,$1+$1,$8,$9*
0 Add four rect primitives between the rounded corners*
20,1,$1+$1,$2,$3,$4,$5,0*
20,1,$1+$1,$4,$5,$6,$7,0*
20,1,$1+$1,$6,$7,$8,$9,0*
20,1,$1+$1,$8,$9,$2,$3,0*%
G04 Aperture macros list end*
%TA.AperFunction,ComponentPad*%
%ADD10R,2.200000X2.200000*%
%TD*%
%TA.AperFunction,ComponentPad*%
%ADD11O,2.200000X2.200000*%
%TD*%
%TA.AperFunction,SMDPad,CuDef*%
%ADD12RoundRect,0.135000X-0.185000X0.135000X-0.185000X-0.135000X0.185000X-0.135000X0.185000X0.135000X0*%
%TD*%
%TA.AperFunction,ComponentPad*%
%ADD13R,1.700000X1.700000*%
%TD*%
%TA.AperFunction,ComponentPad*%
%ADD14O,1.700000X1.700000*%
%TD*%
%TA.AperFunction,SMDPad,CuDef*%
%ADD15RoundRect,0.250000X-0.312500X-1.450000X0.312500X-1.450000X0.312500X1.450000X-0.312500X1.450000X0*%
%TD*%
%TA.AperFunction,SMDPad,CuDef*%
%ADD16RoundRect,0.225000X-0.225000X-0.250000X0.225000X-0.250000X0.225000X0.250000X-0.225000X0.250000X0*%
%TD*%
%TA.AperFunction,SMDPad,CuDef*%
%ADD17R,1.500000X0.650000*%
%TD*%
%TA.AperFunction,SMDPad,CuDef*%
%ADD18RoundRect,0.135000X0.185000X-0.135000X0.185000X0.135000X-0.185000X0.135000X-0.185000X-0.135000X0*%
%TD*%
%TA.AperFunction,SMDPad,CuDef*%
%ADD19RoundRect,0.135000X-0.135000X-0.185000X0.135000X-0.185000X0.135000X0.185000X-0.135000X0.185000X0*%
%TD*%
%TA.AperFunction,SMDPad,CuDef*%
%ADD20R,1.750000X0.950000*%
%TD*%
%TA.AperFunction,SMDPad,CuDef*%
%ADD21R,1.750000X3.200000*%
%TD*%
%TA.AperFunction,ComponentPad*%
%ADD22RoundRect,0.250000X0.750000X-0.600000X0.750000X0.600000X-0.750000X0.600000X-0.750000X-0.600000X0*%
%TD*%
%TA.AperFunction,ComponentPad*%
%ADD23O,2.000000X1.700000*%
%TD*%
%TA.AperFunction,SMDPad,CuDef*%
%ADD24RoundRect,0.250000X-0.787500X-1.025000X0.787500X-1.025000X0.787500X1.025000X-0.787500X1.025000X0*%
%TD*%
%TA.AperFunction,SMDPad,CuDef*%
%ADD25R,1.500000X1.000000*%
%TD*%
%TA.AperFunction,ComponentPad*%
%ADD26R,1.600000X1.600000*%
%TD*%
%TA.AperFunction,ComponentPad*%
%ADD27C,1.600000*%
%TD*%
%TA.AperFunction,ViaPad*%
%ADD28C,0.800000*%
%TD*%
%TA.AperFunction,ViaPad*%
%ADD29C,0.900000*%
%TD*%
%TA.AperFunction,Conductor*%
%ADD30C,0.500000*%
%TD*%
%TA.AperFunction,Conductor*%
%ADD31C,0.250000*%
%TD*%
%TA.AperFunction,Conductor*%
%ADD32C,1.000000*%
%TD*%
%TA.AperFunction,Conductor*%
%ADD33C,0.800000*%
%TD*%
G04 APERTURE END LIST*
D10*
X159821766Y-64135000D03*
D11*
X157281766Y-64135000D03*
D10*
X148391766Y-64135000D03*
D11*
X145851766Y-64135000D03*
D10*
X136961766Y-64135000D03*
D11*
X134421766Y-64135000D03*
D12*
X142240000Y-75055000D03*
X142240000Y-76075000D03*
D10*
X142676766Y-64135000D03*
D11*
X140136766Y-64135000D03*
D13*
X135890000Y-85090000D03*
D14*
X135890000Y-82550000D03*
X135890000Y-80010000D03*
X135890000Y-77470000D03*
X135890000Y-74930000D03*
X135890000Y-72390000D03*
D15*
X133117500Y-98425000D03*
X137392500Y-98425000D03*
D13*
X133345000Y-67945000D03*
D14*
X135885000Y-67945000D03*
X138425000Y-67945000D03*
X140965000Y-67945000D03*
X143505000Y-67945000D03*
X146045000Y-67945000D03*
X148585000Y-67945000D03*
X151125000Y-67945000D03*
X153665000Y-67945000D03*
X156205000Y-67945000D03*
X158745000Y-67945000D03*
X161285000Y-67945000D03*
D12*
X138430000Y-71245000D03*
X138430000Y-72265000D03*
D16*
X148450000Y-92710000D03*
X150000000Y-92710000D03*
D13*
X159385000Y-75560000D03*
D14*
X159385000Y-78100000D03*
X159385000Y-80640000D03*
X159385000Y-83180000D03*
X159385000Y-85720000D03*
X159385000Y-88260000D03*
X159385000Y-90800000D03*
X159385000Y-93340000D03*
X159385000Y-95880000D03*
X159385000Y-98420000D03*
X159385000Y-100960000D03*
X159385000Y-103500000D03*
D17*
X144620000Y-85725000D03*
X144620000Y-86995000D03*
X144620000Y-88265000D03*
X144620000Y-89535000D03*
X150020000Y-89535000D03*
X150020000Y-88265000D03*
X150020000Y-86995000D03*
X150020000Y-85725000D03*
D12*
X138430000Y-77595000D03*
X138430000Y-78615000D03*
D18*
X142240000Y-81155000D03*
X142240000Y-80135000D03*
X142240000Y-93220000D03*
X142240000Y-92200000D03*
D19*
X136650000Y-102870000D03*
X137670000Y-102870000D03*
D17*
X144620000Y-79375000D03*
X144620000Y-80645000D03*
X144620000Y-81915000D03*
X144620000Y-83185000D03*
X150020000Y-83185000D03*
X150020000Y-81915000D03*
X150020000Y-80645000D03*
X150020000Y-79375000D03*
D19*
X136650000Y-104140000D03*
X137670000Y-104140000D03*
D10*
X161091766Y-71755000D03*
D11*
X158551766Y-71755000D03*
D20*
X146075000Y-94855000D03*
X146075000Y-97155000D03*
X146075000Y-99455000D03*
D21*
X152375000Y-97155000D03*
D22*
X134095000Y-92690000D03*
D23*
X134095000Y-90190000D03*
D17*
X144620000Y-73025000D03*
X144620000Y-74295000D03*
X144620000Y-75565000D03*
X144620000Y-76835000D03*
X150020000Y-76835000D03*
X150020000Y-75565000D03*
X150020000Y-74295000D03*
X150020000Y-73025000D03*
D24*
X146112500Y-103505000D03*
X152337500Y-103505000D03*
D10*
X154106766Y-64135000D03*
D11*
X151566766Y-64135000D03*
D25*
X143510000Y-97775000D03*
X143510000Y-99075000D03*
D18*
X138430000Y-83060000D03*
X138430000Y-82040000D03*
X138430000Y-86235000D03*
X138430000Y-85215000D03*
X138430000Y-74805000D03*
X138430000Y-73785000D03*
D26*
X140335000Y-104775000D03*
D27*
X140335000Y-102235000D03*
X140335000Y-99695000D03*
X140335000Y-97155000D03*
X140335000Y-94615000D03*
X140335000Y-92075000D03*
X140335000Y-89535000D03*
X140335000Y-86995000D03*
X140335000Y-84455000D03*
X140335000Y-81915000D03*
X140335000Y-79375000D03*
X140335000Y-76835000D03*
X140335000Y-74295000D03*
X140335000Y-71755000D03*
X155575000Y-71755000D03*
X155575000Y-74295000D03*
X155575000Y-76835000D03*
X155575000Y-79375000D03*
X155575000Y-81915000D03*
X155575000Y-84455000D03*
X155575000Y-86995000D03*
X155575000Y-89535000D03*
X155575000Y-92075000D03*
X155575000Y-94615000D03*
X155575000Y-97155000D03*
X155575000Y-99695000D03*
X155575000Y-102235000D03*
X155575000Y-104775000D03*
D28*
X133350000Y-98425000D03*
X147320000Y-92710000D03*
X133350000Y-99695000D03*
X133350000Y-97155000D03*
X146050000Y-102870000D03*
X137160000Y-98425000D03*
X137160000Y-99695000D03*
X137160000Y-97155000D03*
X144780000Y-74295000D03*
X144780000Y-76835000D03*
X144780000Y-80645000D03*
X144780000Y-83185000D03*
X144780000Y-86995000D03*
X144780000Y-89535000D03*
D29*
X149860000Y-75565000D03*
X149860000Y-81915000D03*
X149860000Y-88265000D03*
D30*
X146075000Y-94855000D02*
X146075000Y-93320000D01*
X146685000Y-92710000D02*
X147320000Y-92710000D01*
X146075000Y-93320000D02*
X146685000Y-92710000D01*
X143510000Y-97775000D02*
X143510000Y-97420000D01*
X143510000Y-97420000D02*
X146075000Y-94855000D01*
X147320000Y-92710000D02*
X148450000Y-92710000D01*
D31*
X138430000Y-74805000D02*
X138430000Y-75565000D01*
D32*
X161925000Y-91440000D02*
X161285000Y-90800000D01*
X161285000Y-90800000D02*
X159385000Y-90800000D01*
X161295000Y-98420000D02*
X161925000Y-97790000D01*
X161925000Y-91440000D02*
X161925000Y-83185000D01*
X159385000Y-98420000D02*
X161295000Y-98420000D01*
D31*
X141603364Y-75565000D02*
X142113364Y-75055000D01*
D32*
X161920000Y-83180000D02*
X159385000Y-83180000D01*
D31*
X142113364Y-75055000D02*
X142240000Y-75055000D01*
D32*
X161925000Y-97790000D02*
X161925000Y-91440000D01*
D31*
X138430000Y-75565000D02*
X141603364Y-75565000D01*
D32*
X161925000Y-83185000D02*
X161920000Y-83180000D01*
D30*
X146112500Y-99492500D02*
X146075000Y-99455000D01*
X143890000Y-99455000D02*
X143510000Y-99075000D01*
X146112500Y-103505000D02*
X146112500Y-99492500D01*
X146075000Y-99455000D02*
X143890000Y-99455000D01*
D31*
X137920000Y-82040000D02*
X138430000Y-82040000D01*
X135890000Y-80010000D02*
X137920000Y-82040000D01*
X140335000Y-83945000D02*
X140335000Y-84455000D01*
X138430000Y-82040000D02*
X140335000Y-83945000D01*
X137035000Y-78615000D02*
X138430000Y-78615000D01*
X138430000Y-80010000D02*
X140335000Y-81915000D01*
X138430000Y-78615000D02*
X138430000Y-80010000D01*
X135890000Y-77470000D02*
X137035000Y-78615000D01*
X138430000Y-73785000D02*
X139825000Y-73785000D01*
X137035000Y-73785000D02*
X138430000Y-73785000D01*
X135890000Y-74930000D02*
X137035000Y-73785000D01*
X139825000Y-73785000D02*
X140335000Y-74295000D01*
X138305000Y-72390000D02*
X138430000Y-72265000D01*
X138430000Y-72265000D02*
X139825000Y-72265000D01*
X135890000Y-72390000D02*
X138305000Y-72390000D01*
X139825000Y-72265000D02*
X140335000Y-71755000D01*
X157480000Y-87630000D02*
X157480000Y-81915000D01*
X158755000Y-80640000D02*
X159385000Y-80640000D01*
X157480000Y-81915000D02*
X158755000Y-80640000D01*
X155575000Y-89535000D02*
X157480000Y-87630000D01*
X155575000Y-92075000D02*
X159385000Y-88265000D01*
X159385000Y-88265000D02*
X159385000Y-88260000D01*
X155575000Y-94615000D02*
X158120000Y-94615000D01*
X158120000Y-94615000D02*
X159385000Y-95880000D01*
X157480000Y-99060000D02*
X157480000Y-101600000D01*
X157485000Y-101600000D02*
X159385000Y-103500000D01*
X155575000Y-97155000D02*
X157480000Y-99060000D01*
X157480000Y-101600000D02*
X157485000Y-101600000D01*
X139065000Y-95885000D02*
X140335000Y-94615000D01*
X137670000Y-104140000D02*
X139065000Y-102745000D01*
X139065000Y-102745000D02*
X139065000Y-95885000D01*
X138615480Y-93794520D02*
X140335000Y-92075000D01*
X138615480Y-101924520D02*
X138615480Y-93794520D01*
X137670000Y-102870000D02*
X138615480Y-101924520D01*
X141605000Y-90805000D02*
X141605000Y-91565000D01*
X141605000Y-91565000D02*
X142240000Y-92200000D01*
X140335000Y-89535000D02*
X141605000Y-90805000D01*
X138555000Y-85215000D02*
X140335000Y-86995000D01*
X138430000Y-85215000D02*
X138555000Y-85215000D01*
X141095000Y-80135000D02*
X140335000Y-79375000D01*
X142240000Y-80135000D02*
X141095000Y-80135000D01*
X140335000Y-76835000D02*
X141480000Y-76835000D01*
X141480000Y-76835000D02*
X142240000Y-76075000D01*
D33*
X150020000Y-74295000D02*
X150020000Y-73025000D01*
X150020000Y-72550000D02*
X147955000Y-70485000D01*
X133345000Y-67945000D02*
X133345000Y-65211766D01*
X147955000Y-70485000D02*
X144145000Y-70485000D01*
X144145000Y-70485000D02*
X143510000Y-69850000D01*
X133345000Y-65211766D02*
X134421766Y-64135000D01*
X143510000Y-69850000D02*
X135250000Y-69850000D01*
X135250000Y-69850000D02*
X133345000Y-67945000D01*
X150020000Y-73025000D02*
X150020000Y-72550000D01*
X140136766Y-64968234D02*
X140136766Y-64135000D01*
X138425000Y-67945000D02*
X138425000Y-66680000D01*
X150020000Y-76835000D02*
X150020000Y-75565000D01*
X138425000Y-66680000D02*
X140136766Y-64968234D01*
X150020000Y-79375000D02*
X150020000Y-80645000D01*
X150020000Y-79375000D02*
X151765000Y-77630000D01*
X151765000Y-77630000D02*
X151765000Y-72390000D01*
X146045000Y-65405000D02*
X146050000Y-65405000D01*
X146050000Y-65405000D02*
X146050000Y-64333234D01*
X151765000Y-72390000D02*
X148769511Y-69394511D01*
X148769511Y-69394511D02*
X144954511Y-69394511D01*
X144954511Y-69394511D02*
X143505000Y-67945000D01*
X143505000Y-67945000D02*
X146045000Y-65405000D01*
X146050000Y-64333234D02*
X145851766Y-64135000D01*
X151566766Y-64963234D02*
X151566766Y-64135000D01*
X150020000Y-83185000D02*
X150020000Y-81915000D01*
X148585000Y-67945000D02*
X151566766Y-64963234D01*
X153035000Y-78105000D02*
X153035000Y-68575000D01*
X150020000Y-85725000D02*
X150495000Y-85725000D01*
X151765000Y-84455000D02*
X151765000Y-79375000D01*
X151765000Y-79375000D02*
X153035000Y-78105000D01*
X153035000Y-68575000D02*
X153665000Y-67945000D01*
X153665000Y-67945000D02*
X157281766Y-64328234D01*
X157281766Y-64328234D02*
X157281766Y-64135000D01*
X150020000Y-86995000D02*
X150020000Y-85725000D01*
X150495000Y-85725000D02*
X151765000Y-84455000D01*
X150020000Y-89535000D02*
X150020000Y-88265000D01*
%TA.AperFunction,Conductor*%
G36*
X161638778Y-63214232D02*
G01*
X161645361Y-63220361D01*
X163285095Y-64860095D01*
X163319121Y-64922407D01*
X163322000Y-64949190D01*
X163322000Y-103960810D01*
X163301998Y-104028931D01*
X163285095Y-104049905D01*
X160564905Y-106770095D01*
X160502593Y-106804121D01*
X160475810Y-106807000D01*
X134164190Y-106807000D01*
X134096069Y-106786998D01*
X134075095Y-106770095D01*
X132924669Y-105619669D01*
X139027001Y-105619669D01*
X139027371Y-105626490D01*
X139032895Y-105677352D01*
X139036521Y-105692604D01*
X139081676Y-105813054D01*
X139090214Y-105828649D01*
X139166715Y-105930724D01*
X139179276Y-105943285D01*
X139281351Y-106019786D01*
X139296946Y-106028324D01*
X139417394Y-106073478D01*
X139432649Y-106077105D01*
X139483514Y-106082631D01*
X139490328Y-106083000D01*
X140062885Y-106083000D01*
X140078124Y-106078525D01*
X140079329Y-106077135D01*
X140081000Y-106069452D01*
X140081000Y-106064884D01*
X140589000Y-106064884D01*
X140593475Y-106080123D01*
X140594865Y-106081328D01*
X140602548Y-106082999D01*
X141179669Y-106082999D01*
X141186490Y-106082629D01*
X141237352Y-106077105D01*
X141252604Y-106073479D01*
X141373054Y-106028324D01*
X141388649Y-106019786D01*
X141490724Y-105943285D01*
X141503285Y-105930724D01*
X141579786Y-105828649D01*
X141588324Y-105813054D01*
X141633478Y-105692606D01*
X141637105Y-105677351D01*
X141642631Y-105626486D01*
X141643000Y-105619672D01*
X141643000Y-105047115D01*
X141638525Y-105031876D01*
X141637135Y-105030671D01*
X141629452Y-105029000D01*
X140607115Y-105029000D01*
X140591876Y-105033475D01*
X140590671Y-105034865D01*
X140589000Y-105042548D01*
X140589000Y-106064884D01*
X140081000Y-106064884D01*
X140081000Y-105047115D01*
X140076525Y-105031876D01*
X140075135Y-105030671D01*
X140067452Y-105029000D01*
X139045116Y-105029000D01*
X139029877Y-105033475D01*
X139028672Y-105034865D01*
X139027001Y-105042548D01*
X139027001Y-105619669D01*
X132924669Y-105619669D01*
X131715003Y-104410003D01*
X135873579Y-104410003D01*
X135874363Y-104419977D01*
X135876662Y-104432564D01*
X135917981Y-104574783D01*
X135924230Y-104589222D01*
X135998854Y-104715405D01*
X136008501Y-104727841D01*
X136112159Y-104831499D01*
X136124595Y-104841146D01*
X136250778Y-104915770D01*
X136265217Y-104922019D01*
X136378605Y-104954961D01*
X136392705Y-104954921D01*
X136396000Y-104947651D01*
X136396000Y-104412115D01*
X136391525Y-104396876D01*
X136390135Y-104395671D01*
X136382452Y-104394000D01*
X135890434Y-104394000D01*
X135875639Y-104398344D01*
X135873579Y-104410003D01*
X131715003Y-104410003D01*
X131354905Y-104049905D01*
X131320879Y-103987593D01*
X131318000Y-103960810D01*
X131318000Y-103140003D01*
X135873579Y-103140003D01*
X135874363Y-103149977D01*
X135876662Y-103162564D01*
X135917981Y-103304783D01*
X135924230Y-103319222D01*
X135996167Y-103440861D01*
X136013627Y-103509677D01*
X135996167Y-103569139D01*
X135924230Y-103690778D01*
X135917981Y-103705217D01*
X135876662Y-103847436D01*
X135874363Y-103860023D01*
X135873740Y-103867943D01*
X135876910Y-103883030D01*
X135888374Y-103886000D01*
X136377885Y-103886000D01*
X136393124Y-103881525D01*
X136394329Y-103880135D01*
X136396000Y-103872452D01*
X136396000Y-103142115D01*
X136391525Y-103126876D01*
X136390135Y-103125671D01*
X136382452Y-103124000D01*
X135890434Y-103124000D01*
X135875639Y-103128344D01*
X135873579Y-103140003D01*
X131318000Y-103140003D01*
X131318000Y-102597943D01*
X135873740Y-102597943D01*
X135876910Y-102613030D01*
X135888374Y-102616000D01*
X136377885Y-102616000D01*
X136393124Y-102611525D01*
X136394329Y-102610135D01*
X136396000Y-102602452D01*
X136396000Y-102068100D01*
X136392027Y-102054569D01*
X136384129Y-102053434D01*
X136265217Y-102087981D01*
X136250778Y-102094230D01*
X136124595Y-102168854D01*
X136112159Y-102178501D01*
X136008501Y-102282159D01*
X135998854Y-102294595D01*
X135924230Y-102420778D01*
X135917981Y-102435217D01*
X135876662Y-102577436D01*
X135874363Y-102590023D01*
X135873740Y-102597943D01*
X131318000Y-102597943D01*
X131318000Y-99925400D01*
X132046500Y-99925400D01*
X132046837Y-99928646D01*
X132046837Y-99928650D01*
X132056495Y-100021728D01*
X132057474Y-100031166D01*
X132059655Y-100037702D01*
X132059655Y-100037704D01*
X132092326Y-100135629D01*
X132113450Y-100198946D01*
X132206522Y-100349348D01*
X132331697Y-100474305D01*
X132337927Y-100478145D01*
X132337928Y-100478146D01*
X132475090Y-100562694D01*
X132482262Y-100567115D01*
X132562005Y-100593564D01*
X132643611Y-100620632D01*
X132643613Y-100620632D01*
X132650139Y-100622797D01*
X132656975Y-100623497D01*
X132656978Y-100623498D01*
X132700031Y-100627909D01*
X132754600Y-100633500D01*
X133480400Y-100633500D01*
X133483646Y-100633163D01*
X133483650Y-100633163D01*
X133579308Y-100623238D01*
X133579312Y-100623237D01*
X133586166Y-100622526D01*
X133592702Y-100620345D01*
X133592704Y-100620345D01*
X133724806Y-100576272D01*
X133753946Y-100566550D01*
X133904348Y-100473478D01*
X134029305Y-100348303D01*
X134067658Y-100286083D01*
X134118275Y-100203968D01*
X134118276Y-100203966D01*
X134122115Y-100197738D01*
X134136060Y-100155694D01*
X134146534Y-100132362D01*
X134148893Y-100128277D01*
X134170799Y-100090333D01*
X134181223Y-100072279D01*
X134181224Y-100072278D01*
X134184527Y-100066556D01*
X134243542Y-99884928D01*
X134252308Y-99801529D01*
X134262814Y-99701565D01*
X134263504Y-99695000D01*
X134262101Y-99681654D01*
X134244233Y-99511642D01*
X134244232Y-99511638D01*
X134243542Y-99505072D01*
X134194667Y-99354652D01*
X134188500Y-99315715D01*
X134188500Y-98804285D01*
X134194667Y-98765348D01*
X134218512Y-98691962D01*
X134243542Y-98614928D01*
X134249249Y-98560634D01*
X134262814Y-98431565D01*
X134263504Y-98425000D01*
X134262814Y-98418435D01*
X134244233Y-98241642D01*
X134244232Y-98241638D01*
X134243542Y-98235072D01*
X134194667Y-98084652D01*
X134188500Y-98045715D01*
X134188500Y-97534285D01*
X134194667Y-97495348D01*
X134243542Y-97344928D01*
X134250102Y-97282520D01*
X134262814Y-97161565D01*
X134263504Y-97155000D01*
X134252562Y-97050896D01*
X134244232Y-96971635D01*
X134244232Y-96971633D01*
X134243542Y-96965072D01*
X134184527Y-96783444D01*
X134178645Y-96773255D01*
X134146344Y-96717309D01*
X134135942Y-96694192D01*
X134121550Y-96651054D01*
X134028478Y-96500652D01*
X133903303Y-96375695D01*
X133897072Y-96371854D01*
X133758968Y-96286725D01*
X133758966Y-96286724D01*
X133752738Y-96282885D01*
X133592254Y-96229655D01*
X133591389Y-96229368D01*
X133591387Y-96229368D01*
X133584861Y-96227203D01*
X133578025Y-96226503D01*
X133578022Y-96226502D01*
X133534969Y-96222091D01*
X133480400Y-96216500D01*
X132754600Y-96216500D01*
X132751354Y-96216837D01*
X132751350Y-96216837D01*
X132655692Y-96226762D01*
X132655688Y-96226763D01*
X132648834Y-96227474D01*
X132642298Y-96229655D01*
X132642296Y-96229655D01*
X132625634Y-96235214D01*
X132481054Y-96283450D01*
X132330652Y-96376522D01*
X132205695Y-96501697D01*
X132112885Y-96652262D01*
X132103456Y-96680689D01*
X132071834Y-96776029D01*
X132057203Y-96820139D01*
X132046500Y-96924600D01*
X132046500Y-99925400D01*
X131318000Y-99925400D01*
X131318000Y-93337095D01*
X132587001Y-93337095D01*
X132587338Y-93343614D01*
X132597257Y-93439206D01*
X132600149Y-93452600D01*
X132651588Y-93606784D01*
X132657761Y-93619962D01*
X132743063Y-93757807D01*
X132752099Y-93769208D01*
X132866829Y-93883739D01*
X132878240Y-93892751D01*
X133016243Y-93977816D01*
X133029424Y-93983963D01*
X133183710Y-94035138D01*
X133197086Y-94038005D01*
X133291438Y-94047672D01*
X133297854Y-94048000D01*
X133822885Y-94048000D01*
X133838124Y-94043525D01*
X133839329Y-94042135D01*
X133841000Y-94034452D01*
X133841000Y-94029884D01*
X134349000Y-94029884D01*
X134353475Y-94045123D01*
X134354865Y-94046328D01*
X134362548Y-94047999D01*
X134892095Y-94047999D01*
X134898614Y-94047662D01*
X134994206Y-94037743D01*
X135007600Y-94034851D01*
X135161784Y-93983412D01*
X135174962Y-93977239D01*
X135312807Y-93891937D01*
X135324208Y-93882901D01*
X135438739Y-93768171D01*
X135447751Y-93756760D01*
X135532816Y-93618757D01*
X135538963Y-93605576D01*
X135590138Y-93451290D01*
X135593005Y-93437914D01*
X135602672Y-93343562D01*
X135603000Y-93337146D01*
X135603000Y-92962115D01*
X135598525Y-92946876D01*
X135597135Y-92945671D01*
X135589452Y-92944000D01*
X134367115Y-92944000D01*
X134351876Y-92948475D01*
X134350671Y-92949865D01*
X134349000Y-92957548D01*
X134349000Y-94029884D01*
X133841000Y-94029884D01*
X133841000Y-92962115D01*
X133836525Y-92946876D01*
X133835135Y-92945671D01*
X133827452Y-92944000D01*
X132605116Y-92944000D01*
X132589877Y-92948475D01*
X132588672Y-92949865D01*
X132587001Y-92957548D01*
X132587001Y-93337095D01*
X131318000Y-93337095D01*
X131318000Y-90125774D01*
X132583102Y-90125774D01*
X132591751Y-90356158D01*
X132639093Y-90581791D01*
X132641051Y-90586750D01*
X132641052Y-90586752D01*
X132690922Y-90713029D01*
X132723776Y-90796221D01*
X132843377Y-90993317D01*
X132846874Y-90997347D01*
X132933438Y-91097103D01*
X132994477Y-91167445D01*
X132998608Y-91170832D01*
X133030529Y-91197006D01*
X133070524Y-91255666D01*
X133072455Y-91326636D01*
X133035710Y-91387384D01*
X133016941Y-91401584D01*
X132877193Y-91488063D01*
X132865792Y-91497099D01*
X132751261Y-91611829D01*
X132742249Y-91623240D01*
X132657184Y-91761243D01*
X132651037Y-91774424D01*
X132599862Y-91928710D01*
X132596995Y-91942086D01*
X132587328Y-92036438D01*
X132587000Y-92042855D01*
X132587000Y-92417885D01*
X132591475Y-92433124D01*
X132592865Y-92434329D01*
X132600548Y-92436000D01*
X135584884Y-92436000D01*
X135600123Y-92431525D01*
X135601328Y-92430135D01*
X135602999Y-92422452D01*
X135602999Y-92042905D01*
X135602662Y-92036386D01*
X135592743Y-91940794D01*
X135589851Y-91927400D01*
X135538412Y-91773216D01*
X135532239Y-91760038D01*
X135446937Y-91622193D01*
X135437901Y-91610792D01*
X135323171Y-91496261D01*
X135311757Y-91487247D01*
X135172287Y-91401277D01*
X135124793Y-91348505D01*
X135113369Y-91278434D01*
X135141643Y-91213310D01*
X135151430Y-91202847D01*
X135151851Y-91202446D01*
X135266135Y-91093424D01*
X135403754Y-90908458D01*
X135420795Y-90874942D01*
X135467175Y-90783717D01*
X135508240Y-90702949D01*
X135516566Y-90676137D01*
X135575024Y-90487871D01*
X135576607Y-90482773D01*
X135590983Y-90374305D01*
X135606198Y-90259511D01*
X135606198Y-90259506D01*
X135606898Y-90254226D01*
X135598249Y-90023842D01*
X135550907Y-89798209D01*
X135534873Y-89757608D01*
X135468185Y-89588744D01*
X135468184Y-89588742D01*
X135466224Y-89583779D01*
X135452610Y-89561343D01*
X135349390Y-89391243D01*
X135346623Y-89386683D01*
X135282156Y-89312391D01*
X135199023Y-89216588D01*
X135199021Y-89216586D01*
X135195523Y-89212555D01*
X135133703Y-89161866D01*
X135021373Y-89069760D01*
X135021367Y-89069756D01*
X135017245Y-89066376D01*
X135012609Y-89063737D01*
X135012606Y-89063735D01*
X134821529Y-88954968D01*
X134816886Y-88952325D01*
X134600175Y-88873663D01*
X134594926Y-88872714D01*
X134594923Y-88872713D01*
X134377392Y-88833377D01*
X134377385Y-88833376D01*
X134373308Y-88832639D01*
X134355586Y-88831803D01*
X134350644Y-88831570D01*
X134350637Y-88831570D01*
X134349156Y-88831500D01*
X133887110Y-88831500D01*
X133820191Y-88837178D01*
X133720591Y-88845629D01*
X133720587Y-88845630D01*
X133715280Y-88846080D01*
X133710125Y-88847418D01*
X133710119Y-88847419D01*
X133497297Y-88902657D01*
X133497293Y-88902658D01*
X133492128Y-88903999D01*
X133487262Y-88906191D01*
X133487259Y-88906192D01*
X133378980Y-88954968D01*
X133281925Y-88998688D01*
X133090681Y-89127441D01*
X132923865Y-89286576D01*
X132786246Y-89471542D01*
X132783830Y-89476293D01*
X132783828Y-89476297D01*
X132740589Y-89561343D01*
X132681760Y-89677051D01*
X132680178Y-89682145D01*
X132680177Y-89682148D01*
X132641335Y-89807240D01*
X132613393Y-89897227D01*
X132612692Y-89902516D01*
X132584677Y-90113891D01*
X132583102Y-90125774D01*
X131318000Y-90125774D01*
X131318000Y-86500871D01*
X137613434Y-86500871D01*
X137647981Y-86619783D01*
X137654230Y-86634222D01*
X137728854Y-86760405D01*
X137738501Y-86772841D01*
X137842159Y-86876499D01*
X137854595Y-86886146D01*
X137980778Y-86960770D01*
X137995217Y-86967019D01*
X138137436Y-87008338D01*
X138150023Y-87010637D01*
X138157943Y-87011260D01*
X138173030Y-87008090D01*
X138176000Y-86996626D01*
X138176000Y-86507115D01*
X138171525Y-86491876D01*
X138170135Y-86490671D01*
X138162452Y-86489000D01*
X137628100Y-86489000D01*
X137614569Y-86492973D01*
X137613434Y-86500871D01*
X131318000Y-86500871D01*
X131318000Y-85984669D01*
X134532001Y-85984669D01*
X134532371Y-85991490D01*
X134537895Y-86042352D01*
X134541521Y-86057604D01*
X134586676Y-86178054D01*
X134595214Y-86193649D01*
X134671715Y-86295724D01*
X134684276Y-86308285D01*
X134786351Y-86384786D01*
X134801946Y-86393324D01*
X134922394Y-86438478D01*
X134937649Y-86442105D01*
X134988514Y-86447631D01*
X134995328Y-86448000D01*
X135617885Y-86448000D01*
X135633124Y-86443525D01*
X135634329Y-86442135D01*
X135636000Y-86434452D01*
X135636000Y-86429884D01*
X136144000Y-86429884D01*
X136148475Y-86445123D01*
X136149865Y-86446328D01*
X136157548Y-86447999D01*
X136784669Y-86447999D01*
X136791490Y-86447629D01*
X136842352Y-86442105D01*
X136857604Y-86438479D01*
X136978054Y-86393324D01*
X136993649Y-86384786D01*
X137095724Y-86308285D01*
X137108285Y-86295724D01*
X137184786Y-86193649D01*
X137193324Y-86178054D01*
X137238478Y-86057606D01*
X137242105Y-86042351D01*
X137247631Y-85991486D01*
X137248000Y-85984672D01*
X137248000Y-85362115D01*
X137243525Y-85346876D01*
X137242135Y-85345671D01*
X137234452Y-85344000D01*
X136162115Y-85344000D01*
X136146876Y-85348475D01*
X136145671Y-85349865D01*
X136144000Y-85357548D01*
X136144000Y-86429884D01*
X135636000Y-86429884D01*
X135636000Y-85362115D01*
X135631525Y-85346876D01*
X135630135Y-85345671D01*
X135622452Y-85344000D01*
X134550116Y-85344000D01*
X134534877Y-85348475D01*
X134533672Y-85349865D01*
X134532001Y-85357548D01*
X134532001Y-85984669D01*
X131318000Y-85984669D01*
X131318000Y-64949190D01*
X131338002Y-64881069D01*
X131354905Y-64860095D01*
X132668870Y-63546130D01*
X132731182Y-63512104D01*
X132801997Y-63517169D01*
X132858833Y-63559716D01*
X132883644Y-63626236D01*
X132880484Y-63664637D01*
X132828157Y-63882597D01*
X132808292Y-64135000D01*
X132808680Y-64139930D01*
X132827714Y-64381775D01*
X132813118Y-64451255D01*
X132791197Y-64480756D01*
X132760168Y-64511785D01*
X132745135Y-64524626D01*
X132733747Y-64532900D01*
X132729327Y-64537809D01*
X132687984Y-64583725D01*
X132683443Y-64588510D01*
X132668928Y-64603025D01*
X132666852Y-64605589D01*
X132656006Y-64618982D01*
X132651722Y-64623997D01*
X132610381Y-64669911D01*
X132610377Y-64669916D01*
X132605960Y-64674822D01*
X132602660Y-64680538D01*
X132602657Y-64680542D01*
X132598927Y-64687003D01*
X132587727Y-64703299D01*
X132578871Y-64714236D01*
X132547815Y-64775187D01*
X132544669Y-64780981D01*
X132510473Y-64840210D01*
X132508432Y-64846492D01*
X132508431Y-64846494D01*
X132506125Y-64853592D01*
X132498560Y-64871858D01*
X132492171Y-64884396D01*
X132474810Y-64949190D01*
X132474469Y-64950461D01*
X132472600Y-64956769D01*
X132451458Y-65021838D01*
X132450768Y-65028403D01*
X132450766Y-65028412D01*
X132449985Y-65035841D01*
X132446383Y-65055275D01*
X132444453Y-65062480D01*
X132442743Y-65068863D01*
X132442398Y-65075454D01*
X132442397Y-65075458D01*
X132439164Y-65137150D01*
X132438647Y-65143724D01*
X132436844Y-65160882D01*
X132436500Y-65164156D01*
X132436500Y-65184692D01*
X132436327Y-65191286D01*
X132432748Y-65259576D01*
X132433780Y-65266091D01*
X132434949Y-65273471D01*
X132436500Y-65293183D01*
X132436500Y-66486502D01*
X132416498Y-66554623D01*
X132362842Y-66601116D01*
X132354730Y-66604484D01*
X132264050Y-66638479D01*
X132248295Y-66644385D01*
X132131739Y-66731739D01*
X132044385Y-66848295D01*
X131993255Y-66984684D01*
X131986500Y-67046866D01*
X131986500Y-68843134D01*
X131993255Y-68905316D01*
X132044385Y-69041705D01*
X132131739Y-69158261D01*
X132248295Y-69245615D01*
X132384684Y-69296745D01*
X132446866Y-69303500D01*
X133366497Y-69303500D01*
X133434618Y-69323502D01*
X133455592Y-69340405D01*
X134550019Y-70434832D01*
X134562860Y-70449865D01*
X134571134Y-70461253D01*
X134576043Y-70465673D01*
X134621959Y-70507016D01*
X134626744Y-70511557D01*
X134641259Y-70526072D01*
X134643823Y-70528148D01*
X134657216Y-70538994D01*
X134662231Y-70543278D01*
X134708145Y-70584619D01*
X134708150Y-70584623D01*
X134713056Y-70589040D01*
X134718772Y-70592340D01*
X134718776Y-70592343D01*
X134725237Y-70596073D01*
X134741533Y-70607273D01*
X134752470Y-70616129D01*
X134758348Y-70619124D01*
X134758351Y-70619126D01*
X134813426Y-70647188D01*
X134819223Y-70650336D01*
X134872723Y-70681224D01*
X134878444Y-70684527D01*
X134891826Y-70688875D01*
X134910085Y-70696438D01*
X134922630Y-70702830D01*
X134929000Y-70704537D01*
X134929003Y-70704538D01*
X134968074Y-70715007D01*
X134988712Y-70720537D01*
X134995025Y-70722407D01*
X135060072Y-70743542D01*
X135074075Y-70745014D01*
X135093504Y-70748615D01*
X135107097Y-70752257D01*
X135113694Y-70752603D01*
X135113696Y-70752603D01*
X135175384Y-70755836D01*
X135181958Y-70756353D01*
X135199116Y-70758156D01*
X135199118Y-70758156D01*
X135202390Y-70758500D01*
X135222926Y-70758500D01*
X135229520Y-70758673D01*
X135291218Y-70761907D01*
X135291223Y-70761907D01*
X135297810Y-70762252D01*
X135311708Y-70760051D01*
X135331417Y-70758500D01*
X137509716Y-70758500D01*
X137577837Y-70778502D01*
X137624330Y-70832158D01*
X137634434Y-70902432D01*
X137630713Y-70919653D01*
X137615039Y-70973605D01*
X137615079Y-70987705D01*
X137622349Y-70991000D01*
X138558000Y-70991000D01*
X138626121Y-71011002D01*
X138672614Y-71064658D01*
X138684000Y-71117000D01*
X138684000Y-71360500D01*
X138663998Y-71428621D01*
X138610342Y-71475114D01*
X138558000Y-71486500D01*
X138189942Y-71486501D01*
X138180012Y-71486501D01*
X138143534Y-71489371D01*
X138137352Y-71491167D01*
X138137347Y-71491168D01*
X138127610Y-71493997D01*
X138092458Y-71499000D01*
X137628100Y-71499000D01*
X137614569Y-71502973D01*
X137613434Y-71510870D01*
X137637977Y-71595346D01*
X137637774Y-71666343D01*
X137599221Y-71725959D01*
X137534556Y-71755268D01*
X137516980Y-71756500D01*
X137166805Y-71756500D01*
X137098684Y-71736498D01*
X137061013Y-71698940D01*
X136972822Y-71562617D01*
X136972820Y-71562614D01*
X136970014Y-71558277D01*
X136819670Y-71393051D01*
X136815619Y-71389852D01*
X136815615Y-71389848D01*
X136648414Y-71257800D01*
X136648410Y-71257798D01*
X136644359Y-71254598D01*
X136448789Y-71146638D01*
X136443920Y-71144914D01*
X136443916Y-71144912D01*
X136243087Y-71073795D01*
X136243083Y-71073794D01*
X136238212Y-71072069D01*
X136233119Y-71071162D01*
X136233116Y-71071161D01*
X136023373Y-71033800D01*
X136023367Y-71033799D01*
X136018284Y-71032894D01*
X135944452Y-71031992D01*
X135800081Y-71030228D01*
X135800079Y-71030228D01*
X135794911Y-71030165D01*
X135574091Y-71063955D01*
X135361756Y-71133357D01*
X135308516Y-71161072D01*
X135174046Y-71231073D01*
X135163607Y-71236507D01*
X135159474Y-71239610D01*
X135159471Y-71239612D01*
X134989100Y-71367530D01*
X134984965Y-71370635D01*
X134830629Y-71532138D01*
X134704743Y-71716680D01*
X134610688Y-71919305D01*
X134550989Y-72134570D01*
X134527251Y-72356695D01*
X134527548Y-72361848D01*
X134527548Y-72361851D01*
X134534529Y-72482928D01*
X134540110Y-72579715D01*
X134541247Y-72584761D01*
X134541248Y-72584767D01*
X134545402Y-72603197D01*
X134589222Y-72797639D01*
X134627750Y-72892523D01*
X134669471Y-72995269D01*
X134673266Y-73004616D01*
X134720401Y-73081534D01*
X134768874Y-73160634D01*
X134789987Y-73195088D01*
X134936250Y-73363938D01*
X135108126Y-73506632D01*
X135178595Y-73547811D01*
X135181445Y-73549476D01*
X135230169Y-73601114D01*
X135243240Y-73670897D01*
X135216509Y-73736669D01*
X135176055Y-73770027D01*
X135163607Y-73776507D01*
X135159474Y-73779610D01*
X135159471Y-73779612D01*
X135064302Y-73851067D01*
X134984965Y-73910635D01*
X134830629Y-74072138D01*
X134704743Y-74256680D01*
X134671067Y-74329230D01*
X134623128Y-74432506D01*
X134610688Y-74459305D01*
X134550989Y-74674570D01*
X134527251Y-74896695D01*
X134527548Y-74901848D01*
X134527548Y-74901851D01*
X134532821Y-74993295D01*
X134540110Y-75119715D01*
X134541247Y-75124761D01*
X134541248Y-75124767D01*
X134555614Y-75188510D01*
X134589222Y-75337639D01*
X134673266Y-75544616D01*
X134695820Y-75581421D01*
X134768874Y-75700634D01*
X134789987Y-75735088D01*
X134936250Y-75903938D01*
X135108126Y-76046632D01*
X135178595Y-76087811D01*
X135181445Y-76089476D01*
X135230169Y-76141114D01*
X135243240Y-76210897D01*
X135216509Y-76276669D01*
X135176055Y-76310027D01*
X135163607Y-76316507D01*
X135159474Y-76319610D01*
X135159471Y-76319612D01*
X135064302Y-76391067D01*
X134984965Y-76450635D01*
X134830629Y-76612138D01*
X134827715Y-76616410D01*
X134827714Y-76616411D01*
X134759165Y-76716900D01*
X134704743Y-76796680D01*
X134610688Y-76999305D01*
X134550989Y-77214570D01*
X134527251Y-77436695D01*
X134527548Y-77441848D01*
X134527548Y-77441851D01*
X134533011Y-77536590D01*
X134540110Y-77659715D01*
X134541247Y-77664761D01*
X134541248Y-77664767D01*
X134550353Y-77705166D01*
X134589222Y-77877639D01*
X134625708Y-77967494D01*
X134659485Y-78050676D01*
X134673266Y-78084616D01*
X134698308Y-78125481D01*
X134781652Y-78261486D01*
X134789987Y-78275088D01*
X134936250Y-78443938D01*
X135108126Y-78586632D01*
X135154047Y-78613466D01*
X135181445Y-78629476D01*
X135230169Y-78681114D01*
X135243240Y-78750897D01*
X135216509Y-78816669D01*
X135176055Y-78850027D01*
X135163607Y-78856507D01*
X135159474Y-78859610D01*
X135159471Y-78859612D01*
X134989100Y-78987530D01*
X134984965Y-78990635D01*
X134970967Y-79005283D01*
X134863134Y-79118124D01*
X134830629Y-79152138D01*
X134704743Y-79336680D01*
X134676912Y-79396638D01*
X134632136Y-79493100D01*
X134610688Y-79539305D01*
X134550989Y-79754570D01*
X134527251Y-79976695D01*
X134527548Y-79981848D01*
X134527548Y-79981851D01*
X134537874Y-80160930D01*
X134540110Y-80199715D01*
X134541247Y-80204761D01*
X134541248Y-80204767D01*
X134556370Y-80271866D01*
X134589222Y-80417639D01*
X134673266Y-80624616D01*
X134707644Y-80680716D01*
X134768874Y-80780634D01*
X134789987Y-80815088D01*
X134936250Y-80983938D01*
X135108126Y-81126632D01*
X135125624Y-81136857D01*
X135181445Y-81169476D01*
X135230169Y-81221114D01*
X135243240Y-81290897D01*
X135216509Y-81356669D01*
X135176055Y-81390027D01*
X135163607Y-81396507D01*
X135159474Y-81399610D01*
X135159471Y-81399612D01*
X134989100Y-81527530D01*
X134984965Y-81530635D01*
X134970967Y-81545283D01*
X134863134Y-81658124D01*
X134830629Y-81692138D01*
X134704743Y-81876680D01*
X134679697Y-81930637D01*
X134638065Y-82020327D01*
X134610688Y-82079305D01*
X134550989Y-82294570D01*
X134527251Y-82516695D01*
X134527548Y-82521848D01*
X134527548Y-82521851D01*
X134539040Y-82721150D01*
X134540110Y-82739715D01*
X134541247Y-82744761D01*
X134541248Y-82744767D01*
X134557140Y-82815283D01*
X134589222Y-82957639D01*
X134673266Y-83164616D01*
X134704332Y-83215311D01*
X134768874Y-83320634D01*
X134789987Y-83355088D01*
X134936250Y-83523938D01*
X134940225Y-83527238D01*
X134940231Y-83527244D01*
X134945425Y-83531556D01*
X134985059Y-83590460D01*
X134986555Y-83661441D01*
X134949439Y-83721962D01*
X134909168Y-83746480D01*
X134801946Y-83786676D01*
X134786351Y-83795214D01*
X134684276Y-83871715D01*
X134671715Y-83884276D01*
X134595214Y-83986351D01*
X134586676Y-84001946D01*
X134541522Y-84122394D01*
X134537895Y-84137649D01*
X134532369Y-84188514D01*
X134532000Y-84195328D01*
X134532000Y-84817885D01*
X134536475Y-84833124D01*
X134537865Y-84834329D01*
X134545548Y-84836000D01*
X137229884Y-84836000D01*
X137245123Y-84831525D01*
X137246328Y-84830135D01*
X137247999Y-84822452D01*
X137247999Y-84195331D01*
X137247629Y-84188510D01*
X137242105Y-84137648D01*
X137238479Y-84122396D01*
X137193324Y-84001946D01*
X137184786Y-83986351D01*
X137108285Y-83884276D01*
X137095724Y-83871715D01*
X136993649Y-83795214D01*
X136978054Y-83786676D01*
X136867813Y-83745348D01*
X136811049Y-83702706D01*
X136786349Y-83636145D01*
X136801557Y-83566796D01*
X136823104Y-83538115D01*
X136924430Y-83437144D01*
X136924440Y-83437132D01*
X136928096Y-83433489D01*
X136987594Y-83350689D01*
X137005427Y-83325871D01*
X137613434Y-83325871D01*
X137647981Y-83444783D01*
X137654230Y-83459222D01*
X137728854Y-83585405D01*
X137738501Y-83597841D01*
X137842159Y-83701499D01*
X137854595Y-83711146D01*
X137980778Y-83785770D01*
X137995217Y-83792019D01*
X138137436Y-83833338D01*
X138150023Y-83835637D01*
X138157943Y-83836260D01*
X138173030Y-83833090D01*
X138176000Y-83821626D01*
X138176000Y-83332115D01*
X138171525Y-83316876D01*
X138170135Y-83315671D01*
X138162452Y-83314000D01*
X137628100Y-83314000D01*
X137614569Y-83317973D01*
X137613434Y-83325871D01*
X137005427Y-83325871D01*
X137055435Y-83256277D01*
X137058453Y-83252077D01*
X137073953Y-83220716D01*
X137155136Y-83056453D01*
X137155137Y-83056451D01*
X137157430Y-83051811D01*
X137222370Y-82838069D01*
X137251529Y-82616590D01*
X137251691Y-82609983D01*
X137252514Y-82576257D01*
X137252657Y-82570415D01*
X137274316Y-82502804D01*
X137329091Y-82457635D01*
X137399591Y-82449251D01*
X137464871Y-82481642D01*
X137477666Y-82493657D01*
X137480509Y-82496413D01*
X137500231Y-82516135D01*
X137503355Y-82518558D01*
X137503359Y-82518562D01*
X137503424Y-82518612D01*
X137512445Y-82526317D01*
X137544679Y-82556586D01*
X137551627Y-82560405D01*
X137551629Y-82560407D01*
X137562432Y-82566346D01*
X137578956Y-82577200D01*
X137590866Y-82586438D01*
X137632432Y-82643994D01*
X137634636Y-82721150D01*
X137615039Y-82788605D01*
X137615079Y-82802705D01*
X137622349Y-82806000D01*
X138092458Y-82806000D01*
X138127610Y-82811003D01*
X138137353Y-82813834D01*
X138137360Y-82813835D01*
X138143534Y-82815629D01*
X138149941Y-82816133D01*
X138149945Y-82816134D01*
X138177556Y-82818307D01*
X138177562Y-82818307D01*
X138180011Y-82818500D01*
X138260406Y-82818500D01*
X138328527Y-82838502D01*
X138349501Y-82855405D01*
X138647095Y-83152999D01*
X138681121Y-83215311D01*
X138684000Y-83242094D01*
X138684000Y-83819566D01*
X138688344Y-83834361D01*
X138700003Y-83836421D01*
X138709977Y-83835637D01*
X138722564Y-83833338D01*
X138864783Y-83792019D01*
X138879218Y-83785772D01*
X138976342Y-83728332D01*
X139045158Y-83710872D01*
X139112490Y-83733388D01*
X139156959Y-83788732D01*
X139164448Y-83859333D01*
X139154677Y-83890034D01*
X139109765Y-83986351D01*
X139100716Y-84005757D01*
X139099294Y-84011065D01*
X139099293Y-84011067D01*
X139058735Y-84162432D01*
X139041457Y-84226913D01*
X139040978Y-84232389D01*
X139040978Y-84232393D01*
X139029561Y-84362894D01*
X139028644Y-84373371D01*
X139002781Y-84439490D01*
X138945277Y-84481129D01*
X138867970Y-84483387D01*
X138799026Y-84463357D01*
X138716466Y-84439371D01*
X138710059Y-84438867D01*
X138710055Y-84438866D01*
X138682444Y-84436693D01*
X138682438Y-84436693D01*
X138679989Y-84436500D01*
X138430152Y-84436500D01*
X138180012Y-84436501D01*
X138143534Y-84439371D01*
X138060974Y-84463357D01*
X137995017Y-84482519D01*
X137995015Y-84482520D01*
X137987404Y-84484731D01*
X137980582Y-84488766D01*
X137980581Y-84488766D01*
X137942821Y-84511097D01*
X137847459Y-84567494D01*
X137732494Y-84682459D01*
X137728460Y-84689280D01*
X137655190Y-84813174D01*
X137649731Y-84822404D01*
X137647520Y-84830015D01*
X137647519Y-84830017D01*
X137627799Y-84897895D01*
X137604371Y-84978534D01*
X137603867Y-84984941D01*
X137603866Y-84984945D01*
X137602929Y-84996855D01*
X137601500Y-85015011D01*
X137601501Y-85414988D01*
X137604371Y-85451466D01*
X137608746Y-85466525D01*
X137646028Y-85594849D01*
X137649731Y-85607596D01*
X137681523Y-85661353D01*
X137698982Y-85730166D01*
X137681522Y-85789630D01*
X137654229Y-85835780D01*
X137647981Y-85850217D01*
X137615039Y-85963605D01*
X137615079Y-85977705D01*
X137622349Y-85981000D01*
X138092458Y-85981000D01*
X138127610Y-85986003D01*
X138137353Y-85988834D01*
X138137360Y-85988835D01*
X138143534Y-85990629D01*
X138149941Y-85991133D01*
X138149945Y-85991134D01*
X138177556Y-85993307D01*
X138177562Y-85993307D01*
X138180011Y-85993500D01*
X138191646Y-85993500D01*
X138385405Y-85993499D01*
X138453525Y-86013501D01*
X138474500Y-86030404D01*
X138647095Y-86202999D01*
X138681121Y-86265311D01*
X138684000Y-86292094D01*
X138684000Y-86994566D01*
X138688344Y-87009361D01*
X138700003Y-87011421D01*
X138709977Y-87010637D01*
X138722564Y-87008338D01*
X138867925Y-86966106D01*
X138938921Y-86966309D01*
X138998538Y-87004863D01*
X139028599Y-87076121D01*
X139031049Y-87104118D01*
X139041457Y-87223087D01*
X139042881Y-87228400D01*
X139042881Y-87228402D01*
X139088042Y-87396942D01*
X139100716Y-87444243D01*
X139103039Y-87449224D01*
X139103039Y-87449225D01*
X139195151Y-87646762D01*
X139195154Y-87646767D01*
X139197477Y-87651749D01*
X139232623Y-87701942D01*
X139322069Y-87829684D01*
X139328802Y-87839300D01*
X139490700Y-88001198D01*
X139495208Y-88004355D01*
X139495211Y-88004357D01*
X139560068Y-88049770D01*
X139678251Y-88132523D01*
X139683233Y-88134846D01*
X139683238Y-88134849D01*
X139717457Y-88150805D01*
X139770742Y-88197722D01*
X139790203Y-88265999D01*
X139769661Y-88333959D01*
X139717457Y-88379195D01*
X139683238Y-88395151D01*
X139683233Y-88395154D01*
X139678251Y-88397477D01*
X139603648Y-88449715D01*
X139495211Y-88525643D01*
X139495208Y-88525645D01*
X139490700Y-88528802D01*
X139328802Y-88690700D01*
X139325645Y-88695208D01*
X139325643Y-88695211D01*
X139316964Y-88707606D01*
X139197477Y-88878251D01*
X139195154Y-88883233D01*
X139195151Y-88883238D01*
X139110985Y-89063735D01*
X139100716Y-89085757D01*
X139099294Y-89091065D01*
X139099293Y-89091067D01*
X139047892Y-89282897D01*
X139041457Y-89306913D01*
X139021502Y-89535000D01*
X139041457Y-89763087D01*
X139042880Y-89768398D01*
X139042881Y-89768402D01*
X139097684Y-89972926D01*
X139100716Y-89984243D01*
X139103039Y-89989224D01*
X139103039Y-89989225D01*
X139195151Y-90186762D01*
X139195154Y-90186767D01*
X139197477Y-90191749D01*
X139219542Y-90223261D01*
X139321240Y-90368500D01*
X139328802Y-90379300D01*
X139490700Y-90541198D01*
X139495208Y-90544355D01*
X139495211Y-90544357D01*
X139555758Y-90586752D01*
X139678251Y-90672523D01*
X139683233Y-90674846D01*
X139683238Y-90674849D01*
X139717457Y-90690805D01*
X139770742Y-90737722D01*
X139790203Y-90805999D01*
X139769661Y-90873959D01*
X139717457Y-90919195D01*
X139683238Y-90935151D01*
X139683233Y-90935154D01*
X139678251Y-90937477D01*
X139592748Y-90997347D01*
X139495211Y-91065643D01*
X139495208Y-91065645D01*
X139490700Y-91068802D01*
X139328802Y-91230700D01*
X139325645Y-91235208D01*
X139325643Y-91235211D01*
X139295378Y-91278434D01*
X139197477Y-91418251D01*
X139195154Y-91423233D01*
X139195151Y-91423238D01*
X139156550Y-91506020D01*
X139100716Y-91625757D01*
X139099294Y-91631065D01*
X139099293Y-91631067D01*
X139044076Y-91837139D01*
X139041457Y-91846913D01*
X139021502Y-92075000D01*
X139041457Y-92303087D01*
X139042879Y-92308392D01*
X139042881Y-92308406D01*
X139058459Y-92366539D01*
X139056771Y-92437516D01*
X139025848Y-92488248D01*
X138623392Y-92890703D01*
X138223222Y-93290873D01*
X138214943Y-93298407D01*
X138208462Y-93302520D01*
X138169509Y-93344001D01*
X138161837Y-93352171D01*
X138159082Y-93355013D01*
X138139345Y-93374750D01*
X138136865Y-93377947D01*
X138129162Y-93386967D01*
X138098894Y-93419199D01*
X138095075Y-93426145D01*
X138095073Y-93426148D01*
X138089132Y-93436954D01*
X138078281Y-93453473D01*
X138065866Y-93469479D01*
X138062721Y-93476748D01*
X138062718Y-93476752D01*
X138048306Y-93510057D01*
X138043089Y-93520707D01*
X138021785Y-93559460D01*
X138017511Y-93576108D01*
X138016747Y-93579082D01*
X138010343Y-93597786D01*
X138002299Y-93616375D01*
X138001060Y-93624198D01*
X138001057Y-93624208D01*
X137995381Y-93660044D01*
X137992975Y-93671664D01*
X137987453Y-93693172D01*
X137981980Y-93714490D01*
X137981980Y-93734744D01*
X137980429Y-93754454D01*
X137977260Y-93774463D01*
X137978006Y-93782354D01*
X137981421Y-93818480D01*
X137981980Y-93830338D01*
X137981980Y-96100145D01*
X137961978Y-96168266D01*
X137908322Y-96214759D01*
X137843138Y-96225489D01*
X137758601Y-96216828D01*
X137758602Y-96216828D01*
X137755400Y-96216500D01*
X137029600Y-96216500D01*
X137026354Y-96216837D01*
X137026350Y-96216837D01*
X136930692Y-96226762D01*
X136930688Y-96226763D01*
X136923834Y-96227474D01*
X136917298Y-96229655D01*
X136917296Y-96229655D01*
X136900634Y-96235214D01*
X136756054Y-96283450D01*
X136605652Y-96376522D01*
X136480695Y-96501697D01*
X136387885Y-96652262D01*
X136378456Y-96680689D01*
X136373940Y-96694305D01*
X136363466Y-96717638D01*
X136331356Y-96773255D01*
X136325473Y-96783444D01*
X136266458Y-96965072D01*
X136265768Y-96971633D01*
X136265768Y-96971635D01*
X136257438Y-97050896D01*
X136246496Y-97155000D01*
X136247186Y-97161565D01*
X136259899Y-97282520D01*
X136266458Y-97344928D01*
X136315333Y-97495348D01*
X136321500Y-97534285D01*
X136321500Y-98045715D01*
X136315333Y-98084652D01*
X136266458Y-98235072D01*
X136265768Y-98241638D01*
X136265767Y-98241642D01*
X136247186Y-98418435D01*
X136246496Y-98425000D01*
X136247186Y-98431565D01*
X136260752Y-98560634D01*
X136266458Y-98614928D01*
X136291488Y-98691962D01*
X136315333Y-98765348D01*
X136321500Y-98804285D01*
X136321500Y-99315715D01*
X136315333Y-99354652D01*
X136266458Y-99505072D01*
X136265768Y-99511638D01*
X136265767Y-99511642D01*
X136247899Y-99681654D01*
X136246496Y-99695000D01*
X136247186Y-99701565D01*
X136257693Y-99801529D01*
X136266458Y-99884928D01*
X136325473Y-100066556D01*
X136328776Y-100072278D01*
X136328777Y-100072279D01*
X136363656Y-100132691D01*
X136374058Y-100155808D01*
X136388450Y-100198946D01*
X136392301Y-100205170D01*
X136392302Y-100205171D01*
X136409834Y-100233502D01*
X136481522Y-100349348D01*
X136606697Y-100474305D01*
X136612927Y-100478145D01*
X136612928Y-100478146D01*
X136750090Y-100562694D01*
X136757262Y-100567115D01*
X136837005Y-100593564D01*
X136918611Y-100620632D01*
X136918613Y-100620632D01*
X136925139Y-100622797D01*
X136931975Y-100623497D01*
X136931978Y-100623498D01*
X136975031Y-100627909D01*
X137029600Y-100633500D01*
X137755400Y-100633500D01*
X137758646Y-100633163D01*
X137758650Y-100633163D01*
X137790618Y-100629846D01*
X137842977Y-100624413D01*
X137912797Y-100637278D01*
X137964579Y-100685848D01*
X137981980Y-100749740D01*
X137981980Y-101609926D01*
X137961978Y-101678047D01*
X137945075Y-101699021D01*
X137639500Y-102004596D01*
X137577188Y-102038622D01*
X137550405Y-102041501D01*
X137470012Y-102041501D01*
X137433534Y-102044371D01*
X137336730Y-102072495D01*
X137285017Y-102087519D01*
X137285015Y-102087520D01*
X137277404Y-102089731D01*
X137223647Y-102121523D01*
X137154834Y-102138982D01*
X137095370Y-102121522D01*
X137049220Y-102094229D01*
X137034783Y-102087981D01*
X136921395Y-102055039D01*
X136907295Y-102055079D01*
X136904000Y-102062349D01*
X136904000Y-102532458D01*
X136898997Y-102567610D01*
X136896166Y-102577353D01*
X136896165Y-102577360D01*
X136894371Y-102583534D01*
X136893867Y-102589941D01*
X136893866Y-102589945D01*
X136891693Y-102617556D01*
X136891500Y-102620011D01*
X136891501Y-103119988D01*
X136894371Y-103156466D01*
X136896167Y-103162648D01*
X136896168Y-103162653D01*
X136898997Y-103172390D01*
X136904000Y-103207542D01*
X136904000Y-103802458D01*
X136898997Y-103837610D01*
X136896166Y-103847353D01*
X136896165Y-103847360D01*
X136894371Y-103853534D01*
X136893867Y-103859941D01*
X136893866Y-103859945D01*
X136891693Y-103887556D01*
X136891500Y-103890011D01*
X136891501Y-104389988D01*
X136894371Y-104426466D01*
X136896166Y-104432644D01*
X136896168Y-104432653D01*
X136898997Y-104442390D01*
X136904000Y-104477542D01*
X136904000Y-104941900D01*
X136907973Y-104955431D01*
X136915871Y-104956566D01*
X137034783Y-104922019D01*
X137049220Y-104915771D01*
X137095370Y-104888478D01*
X137164187Y-104871018D01*
X137223646Y-104888477D01*
X137277404Y-104920269D01*
X137285015Y-104922480D01*
X137285017Y-104922481D01*
X137351858Y-104941900D01*
X137433534Y-104965629D01*
X137439941Y-104966133D01*
X137439945Y-104966134D01*
X137467556Y-104968307D01*
X137467562Y-104968307D01*
X137470011Y-104968500D01*
X137669878Y-104968500D01*
X137869988Y-104968499D01*
X137906466Y-104965629D01*
X138003270Y-104937505D01*
X138054983Y-104922481D01*
X138054985Y-104922480D01*
X138062596Y-104920269D01*
X138070204Y-104915770D01*
X138195720Y-104841540D01*
X138202541Y-104837506D01*
X138317506Y-104722541D01*
X138400269Y-104582596D01*
X138445629Y-104426466D01*
X138446135Y-104420047D01*
X138448307Y-104392444D01*
X138448307Y-104392438D01*
X138448500Y-104389989D01*
X138448500Y-104309595D01*
X138468502Y-104241474D01*
X138485405Y-104220500D01*
X138811905Y-103894000D01*
X138874217Y-103859974D01*
X138945032Y-103865039D01*
X139001868Y-103907586D01*
X139026679Y-103974106D01*
X139027000Y-103983095D01*
X139027000Y-104502885D01*
X139031475Y-104518124D01*
X139032865Y-104519329D01*
X139040548Y-104521000D01*
X141624884Y-104521000D01*
X141640123Y-104516525D01*
X141641328Y-104515135D01*
X141642999Y-104507452D01*
X141642999Y-103930331D01*
X141642629Y-103923510D01*
X141637105Y-103872648D01*
X141633479Y-103857396D01*
X141588324Y-103736946D01*
X141579786Y-103721351D01*
X141503285Y-103619276D01*
X141490724Y-103606715D01*
X141388649Y-103530214D01*
X141373054Y-103521676D01*
X141252606Y-103476522D01*
X141237357Y-103472896D01*
X141233904Y-103472521D01*
X141231394Y-103471478D01*
X141229669Y-103471068D01*
X141229735Y-103470789D01*
X141168341Y-103445281D01*
X141127912Y-103386920D01*
X141125454Y-103315966D01*
X141161747Y-103254946D01*
X141173240Y-103245656D01*
X141174788Y-103244357D01*
X141179300Y-103241198D01*
X141341198Y-103079300D01*
X141354221Y-103060702D01*
X141469366Y-102896257D01*
X141472523Y-102891749D01*
X141474846Y-102886767D01*
X141474849Y-102886762D01*
X141566961Y-102689225D01*
X141566961Y-102689224D01*
X141569284Y-102684243D01*
X141585834Y-102622480D01*
X141627119Y-102468402D01*
X141627119Y-102468400D01*
X141628543Y-102463087D01*
X141648498Y-102235000D01*
X141628543Y-102006913D01*
X141596108Y-101885866D01*
X141570707Y-101791067D01*
X141570706Y-101791065D01*
X141569284Y-101785757D01*
X141566961Y-101780775D01*
X141474849Y-101583238D01*
X141474846Y-101583233D01*
X141472523Y-101578251D01*
X141341198Y-101390700D01*
X141179300Y-101228802D01*
X141174792Y-101225645D01*
X141174789Y-101225643D01*
X141096611Y-101170902D01*
X140991749Y-101097477D01*
X140986767Y-101095154D01*
X140986762Y-101095151D01*
X140952543Y-101079195D01*
X140899258Y-101032278D01*
X140879797Y-100964001D01*
X140900339Y-100896041D01*
X140952543Y-100850805D01*
X140986762Y-100834849D01*
X140986767Y-100834846D01*
X140991749Y-100832523D01*
X141109975Y-100749740D01*
X141174789Y-100704357D01*
X141174792Y-100704355D01*
X141179300Y-100701198D01*
X141341198Y-100539300D01*
X141354221Y-100520702D01*
X141412037Y-100438131D01*
X141472523Y-100351749D01*
X141474846Y-100346767D01*
X141474849Y-100346762D01*
X141566961Y-100149225D01*
X141566961Y-100149224D01*
X141569284Y-100144243D01*
X141571075Y-100137561D01*
X141627119Y-99928402D01*
X141627119Y-99928400D01*
X141628543Y-99923087D01*
X141648498Y-99695000D01*
X141642211Y-99623134D01*
X142251500Y-99623134D01*
X142258255Y-99685316D01*
X142309385Y-99821705D01*
X142396739Y-99938261D01*
X142513295Y-100025615D01*
X142649684Y-100076745D01*
X142711866Y-100083500D01*
X143420175Y-100083500D01*
X143485215Y-100101964D01*
X143488716Y-100104734D01*
X143554875Y-100135655D01*
X143558769Y-100137558D01*
X143623808Y-100170769D01*
X143630916Y-100172508D01*
X143636559Y-100174607D01*
X143642322Y-100176524D01*
X143648950Y-100179622D01*
X143708494Y-100192007D01*
X143720412Y-100194486D01*
X143724696Y-100195456D01*
X143795610Y-100212808D01*
X143801212Y-100213156D01*
X143801215Y-100213156D01*
X143806764Y-100213500D01*
X143806762Y-100213536D01*
X143810755Y-100213775D01*
X143814947Y-100214149D01*
X143822115Y-100215640D01*
X143899520Y-100213546D01*
X143902928Y-100213500D01*
X144713934Y-100213500D01*
X144782055Y-100233502D01*
X144814758Y-100263932D01*
X144836739Y-100293261D01*
X144953295Y-100380615D01*
X145089684Y-100431745D01*
X145151866Y-100438500D01*
X145228000Y-100438500D01*
X145296121Y-100458502D01*
X145342614Y-100512158D01*
X145354000Y-100564500D01*
X145354000Y-101599659D01*
X145333998Y-101667780D01*
X145280342Y-101714273D01*
X145241003Y-101724986D01*
X145230311Y-101726095D01*
X145175693Y-101731762D01*
X145175690Y-101731763D01*
X145168834Y-101732474D01*
X145162298Y-101734655D01*
X145162296Y-101734655D01*
X145030194Y-101778728D01*
X145001054Y-101788450D01*
X144850652Y-101881522D01*
X144725695Y-102006697D01*
X144721855Y-102012927D01*
X144721854Y-102012928D01*
X144641115Y-102143911D01*
X144632885Y-102157262D01*
X144611439Y-102221921D01*
X144588406Y-102291364D01*
X144577203Y-102325139D01*
X144566500Y-102429600D01*
X144566500Y-104580400D01*
X144566837Y-104583646D01*
X144566837Y-104583650D01*
X144576752Y-104679206D01*
X144577474Y-104686166D01*
X144579655Y-104692702D01*
X144579655Y-104692704D01*
X144591378Y-104727841D01*
X144633450Y-104853946D01*
X144726522Y-105004348D01*
X144851697Y-105129305D01*
X144857927Y-105133145D01*
X144857928Y-105133146D01*
X144995288Y-105217816D01*
X145002262Y-105222115D01*
X145082005Y-105248564D01*
X145163611Y-105275632D01*
X145163613Y-105275632D01*
X145170139Y-105277797D01*
X145176975Y-105278497D01*
X145176978Y-105278498D01*
X145220031Y-105282909D01*
X145274600Y-105288500D01*
X146950400Y-105288500D01*
X146953646Y-105288163D01*
X146953650Y-105288163D01*
X147049308Y-105278238D01*
X147049312Y-105278237D01*
X147056166Y-105277526D01*
X147062702Y-105275345D01*
X147062704Y-105275345D01*
X147200941Y-105229225D01*
X147223946Y-105221550D01*
X147374348Y-105128478D01*
X147499305Y-105003303D01*
X147520878Y-104968305D01*
X147588275Y-104858968D01*
X147588276Y-104858966D01*
X147592115Y-104852738D01*
X147620588Y-104766895D01*
X147645632Y-104691389D01*
X147645632Y-104691387D01*
X147647797Y-104684861D01*
X147658500Y-104580400D01*
X147658500Y-104577095D01*
X150792001Y-104577095D01*
X150792338Y-104583614D01*
X150802257Y-104679206D01*
X150805149Y-104692600D01*
X150856588Y-104846784D01*
X150862761Y-104859962D01*
X150948063Y-104997807D01*
X150957099Y-105009208D01*
X151071829Y-105123739D01*
X151083240Y-105132751D01*
X151221243Y-105217816D01*
X151234424Y-105223963D01*
X151388710Y-105275138D01*
X151402086Y-105278005D01*
X151496438Y-105287672D01*
X151502854Y-105288000D01*
X152065385Y-105288000D01*
X152080624Y-105283525D01*
X152081829Y-105282135D01*
X152083500Y-105274452D01*
X152083500Y-105269884D01*
X152591500Y-105269884D01*
X152595975Y-105285123D01*
X152597365Y-105286328D01*
X152605048Y-105287999D01*
X153172095Y-105287999D01*
X153178614Y-105287662D01*
X153274206Y-105277743D01*
X153287600Y-105274851D01*
X153441784Y-105223412D01*
X153454962Y-105217239D01*
X153592807Y-105131937D01*
X153604208Y-105122901D01*
X153718739Y-105008171D01*
X153727751Y-104996760D01*
X153812816Y-104858757D01*
X153818963Y-104845576D01*
X153842372Y-104775000D01*
X154261502Y-104775000D01*
X154281457Y-105003087D01*
X154282881Y-105008400D01*
X154282881Y-105008402D01*
X154316201Y-105132751D01*
X154340716Y-105224243D01*
X154343039Y-105229224D01*
X154343039Y-105229225D01*
X154435151Y-105426762D01*
X154435154Y-105426767D01*
X154437477Y-105431749D01*
X154568802Y-105619300D01*
X154730700Y-105781198D01*
X154735208Y-105784355D01*
X154735211Y-105784357D01*
X154776195Y-105813054D01*
X154918251Y-105912523D01*
X154923233Y-105914846D01*
X154923238Y-105914849D01*
X155120775Y-106006961D01*
X155125757Y-106009284D01*
X155131065Y-106010706D01*
X155131067Y-106010707D01*
X155341598Y-106067119D01*
X155341600Y-106067119D01*
X155346913Y-106068543D01*
X155575000Y-106088498D01*
X155803087Y-106068543D01*
X155808400Y-106067119D01*
X155808402Y-106067119D01*
X156018933Y-106010707D01*
X156018935Y-106010706D01*
X156024243Y-106009284D01*
X156029225Y-106006961D01*
X156226762Y-105914849D01*
X156226767Y-105914846D01*
X156231749Y-105912523D01*
X156373805Y-105813054D01*
X156414789Y-105784357D01*
X156414792Y-105784355D01*
X156419300Y-105781198D01*
X156581198Y-105619300D01*
X156712523Y-105431749D01*
X156714846Y-105426767D01*
X156714849Y-105426762D01*
X156806961Y-105229225D01*
X156806961Y-105229224D01*
X156809284Y-105224243D01*
X156833800Y-105132751D01*
X156867119Y-105008402D01*
X156867119Y-105008400D01*
X156868543Y-105003087D01*
X156888498Y-104775000D01*
X156868543Y-104546913D01*
X156860028Y-104515135D01*
X156810707Y-104331067D01*
X156810706Y-104331065D01*
X156809284Y-104325757D01*
X156801748Y-104309595D01*
X156714849Y-104123238D01*
X156714846Y-104123233D01*
X156712523Y-104118251D01*
X156621035Y-103987593D01*
X156584357Y-103935211D01*
X156584355Y-103935208D01*
X156581198Y-103930700D01*
X156419300Y-103768802D01*
X156414792Y-103765645D01*
X156414789Y-103765643D01*
X156306352Y-103689715D01*
X156231749Y-103637477D01*
X156226767Y-103635154D01*
X156226762Y-103635151D01*
X156192543Y-103619195D01*
X156139258Y-103572278D01*
X156119797Y-103504001D01*
X156140339Y-103436041D01*
X156192543Y-103390805D01*
X156226762Y-103374849D01*
X156226767Y-103374846D01*
X156231749Y-103372523D01*
X156336611Y-103299098D01*
X156414789Y-103244357D01*
X156414792Y-103244355D01*
X156419300Y-103241198D01*
X156581198Y-103079300D01*
X156594221Y-103060702D01*
X156709366Y-102896257D01*
X156712523Y-102891749D01*
X156714846Y-102886767D01*
X156714849Y-102886762D01*
X156806961Y-102689225D01*
X156806961Y-102689224D01*
X156809284Y-102684243D01*
X156825834Y-102622480D01*
X156867119Y-102468402D01*
X156867119Y-102468400D01*
X156868543Y-102463087D01*
X156888498Y-102235000D01*
X156888019Y-102229525D01*
X156888019Y-102229515D01*
X156886619Y-102213516D01*
X156900606Y-102143911D01*
X156950005Y-102092918D01*
X157019131Y-102076727D01*
X157086037Y-102100478D01*
X157098386Y-102110677D01*
X157104679Y-102116586D01*
X157105008Y-102116767D01*
X157110872Y-102121776D01*
X158034778Y-103045682D01*
X158068804Y-103107994D01*
X158067100Y-103168448D01*
X158045989Y-103244570D01*
X158045441Y-103249700D01*
X158045440Y-103249704D01*
X158041933Y-103282522D01*
X158022251Y-103466695D01*
X158022548Y-103471848D01*
X158022548Y-103471851D01*
X158031964Y-103635151D01*
X158035110Y-103689715D01*
X158036247Y-103694761D01*
X158036248Y-103694767D01*
X158054807Y-103777115D01*
X158084222Y-103907639D01*
X158168266Y-104114616D01*
X158284987Y-104305088D01*
X158431250Y-104473938D01*
X158603126Y-104616632D01*
X158796000Y-104729338D01*
X159004692Y-104809030D01*
X159009760Y-104810061D01*
X159009763Y-104810062D01*
X159115130Y-104831499D01*
X159223597Y-104853567D01*
X159228772Y-104853757D01*
X159228774Y-104853757D01*
X159441673Y-104861564D01*
X159441677Y-104861564D01*
X159446837Y-104861753D01*
X159451957Y-104861097D01*
X159451959Y-104861097D01*
X159663288Y-104834025D01*
X159663289Y-104834025D01*
X159668416Y-104833368D01*
X159674646Y-104831499D01*
X159877429Y-104770661D01*
X159877434Y-104770659D01*
X159882384Y-104769174D01*
X160082994Y-104670896D01*
X160264860Y-104541173D01*
X160286781Y-104519329D01*
X160373849Y-104432564D01*
X160423096Y-104383489D01*
X160464581Y-104325757D01*
X160550435Y-104206277D01*
X160553453Y-104202077D01*
X160592418Y-104123238D01*
X160650136Y-104006453D01*
X160650137Y-104006451D01*
X160652430Y-104001811D01*
X160717370Y-103788069D01*
X160746529Y-103566590D01*
X160747459Y-103528543D01*
X160748074Y-103503365D01*
X160748074Y-103503361D01*
X160748156Y-103500000D01*
X160729852Y-103277361D01*
X160675431Y-103060702D01*
X160586354Y-102855840D01*
X160465014Y-102668277D01*
X160314670Y-102503051D01*
X160310619Y-102499852D01*
X160310615Y-102499848D01*
X160143414Y-102367800D01*
X160143410Y-102367798D01*
X160139359Y-102364598D01*
X160098053Y-102341796D01*
X160048084Y-102291364D01*
X160033312Y-102221921D01*
X160058428Y-102155516D01*
X160085780Y-102128909D01*
X160135049Y-102093766D01*
X160264860Y-102001173D01*
X160423096Y-101843489D01*
X160443792Y-101814688D01*
X160550435Y-101666277D01*
X160553453Y-101662077D01*
X160564436Y-101639856D01*
X160650136Y-101466453D01*
X160650137Y-101466451D01*
X160652430Y-101461811D01*
X160717370Y-101248069D01*
X160746529Y-101026590D01*
X160747161Y-101000716D01*
X160748074Y-100963365D01*
X160748074Y-100963361D01*
X160748156Y-100960000D01*
X160729852Y-100737361D01*
X160675431Y-100520702D01*
X160586354Y-100315840D01*
X160510732Y-100198946D01*
X160467822Y-100132617D01*
X160467820Y-100132614D01*
X160465014Y-100128277D01*
X160314670Y-99963051D01*
X160310619Y-99959852D01*
X160310615Y-99959848D01*
X160143414Y-99827800D01*
X160143410Y-99827798D01*
X160139359Y-99824598D01*
X160134119Y-99821705D01*
X160097569Y-99801529D01*
X160047598Y-99751097D01*
X160032826Y-99681654D01*
X160057942Y-99615248D01*
X160085294Y-99588641D01*
X160260328Y-99463792D01*
X160268200Y-99457139D01*
X160419052Y-99306812D01*
X160425730Y-99298965D01*
X160550003Y-99126020D01*
X160555313Y-99117183D01*
X160649670Y-98926267D01*
X160653469Y-98916672D01*
X160715377Y-98712910D01*
X160717555Y-98702837D01*
X160718986Y-98691962D01*
X160716775Y-98677778D01*
X160703617Y-98674000D01*
X158050110Y-98674000D01*
X158050110Y-98669698D01*
X158011898Y-98669703D01*
X157955528Y-98635053D01*
X157950132Y-98629306D01*
X157945472Y-98622893D01*
X157911395Y-98594702D01*
X157902616Y-98586712D01*
X156884152Y-97568248D01*
X156850126Y-97505936D01*
X156851541Y-97446541D01*
X156867118Y-97388409D01*
X156867120Y-97388398D01*
X156868543Y-97383087D01*
X156888498Y-97155000D01*
X156868543Y-96926913D01*
X156860028Y-96895135D01*
X156810707Y-96711067D01*
X156810706Y-96711065D01*
X156809284Y-96705757D01*
X156803888Y-96694185D01*
X156714849Y-96503238D01*
X156714846Y-96503233D01*
X156712523Y-96498251D01*
X156581198Y-96310700D01*
X156419300Y-96148802D01*
X156414792Y-96145645D01*
X156414789Y-96145643D01*
X156306352Y-96069715D01*
X156231749Y-96017477D01*
X156226767Y-96015154D01*
X156226762Y-96015151D01*
X156192543Y-95999195D01*
X156139258Y-95952278D01*
X156119797Y-95884001D01*
X156140339Y-95816041D01*
X156192543Y-95770805D01*
X156226762Y-95754849D01*
X156226767Y-95754846D01*
X156231749Y-95752523D01*
X156336611Y-95679098D01*
X156414789Y-95624357D01*
X156414792Y-95624355D01*
X156419300Y-95621198D01*
X156581198Y-95459300D01*
X156590707Y-95445720D01*
X156691181Y-95302229D01*
X156746638Y-95257901D01*
X156794394Y-95248500D01*
X157805406Y-95248500D01*
X157873527Y-95268502D01*
X157894501Y-95285405D01*
X158034778Y-95425682D01*
X158068804Y-95487994D01*
X158067100Y-95548448D01*
X158045989Y-95624570D01*
X158045441Y-95629700D01*
X158045440Y-95629704D01*
X158041933Y-95662522D01*
X158022251Y-95846695D01*
X158022548Y-95851848D01*
X158022548Y-95851851D01*
X158028011Y-95946590D01*
X158035110Y-96069715D01*
X158036247Y-96074761D01*
X158036248Y-96074767D01*
X158056119Y-96162939D01*
X158084222Y-96287639D01*
X158168266Y-96494616D01*
X158219019Y-96577438D01*
X158261054Y-96646032D01*
X158284987Y-96685088D01*
X158431250Y-96853938D01*
X158603126Y-96996632D01*
X158645014Y-97021109D01*
X158676955Y-97039774D01*
X158725679Y-97091412D01*
X158738750Y-97161195D01*
X158712019Y-97226967D01*
X158671562Y-97260327D01*
X158663457Y-97264546D01*
X158654738Y-97270036D01*
X158484433Y-97397905D01*
X158476726Y-97404748D01*
X158329590Y-97558717D01*
X158323104Y-97566727D01*
X158203098Y-97742649D01*
X158198000Y-97751623D01*
X158108338Y-97944783D01*
X158104775Y-97954470D01*
X158049389Y-98154183D01*
X158050912Y-98162607D01*
X158063292Y-98166000D01*
X160703344Y-98166000D01*
X160716875Y-98162027D01*
X160718180Y-98152947D01*
X160676214Y-97985875D01*
X160672894Y-97976124D01*
X160587972Y-97780814D01*
X160583105Y-97771739D01*
X160467426Y-97592926D01*
X160461136Y-97584757D01*
X160317806Y-97427240D01*
X160310273Y-97420215D01*
X160143139Y-97288222D01*
X160134556Y-97282520D01*
X160097602Y-97262120D01*
X160047631Y-97211687D01*
X160032859Y-97142245D01*
X160057975Y-97075839D01*
X160085327Y-97049232D01*
X160124754Y-97021109D01*
X160264860Y-96921173D01*
X160286781Y-96899329D01*
X160366248Y-96820139D01*
X160423096Y-96763489D01*
X160464581Y-96705757D01*
X160550435Y-96586277D01*
X160553453Y-96582077D01*
X160590100Y-96507928D01*
X160650136Y-96386453D01*
X160650137Y-96386451D01*
X160652430Y-96381811D01*
X160702556Y-96216828D01*
X160715865Y-96173023D01*
X160715865Y-96173021D01*
X160717370Y-96168069D01*
X160746529Y-95946590D01*
X160747514Y-95906283D01*
X160748074Y-95883365D01*
X160748074Y-95883361D01*
X160748156Y-95880000D01*
X160729852Y-95657361D01*
X160675431Y-95440702D01*
X160586354Y-95235840D01*
X160505083Y-95110214D01*
X160467822Y-95052617D01*
X160467820Y-95052614D01*
X160465014Y-95048277D01*
X160314670Y-94883051D01*
X160310619Y-94879852D01*
X160310615Y-94879848D01*
X160143414Y-94747800D01*
X160143410Y-94747798D01*
X160139359Y-94744598D01*
X160098053Y-94721796D01*
X160048084Y-94671364D01*
X160033312Y-94601921D01*
X160058428Y-94535516D01*
X160085780Y-94508909D01*
X160129603Y-94477650D01*
X160264860Y-94381173D01*
X160317749Y-94328469D01*
X160419435Y-94227137D01*
X160423096Y-94223489D01*
X160464581Y-94165757D01*
X160550435Y-94046277D01*
X160553453Y-94042077D01*
X160556883Y-94035138D01*
X160650136Y-93846453D01*
X160650137Y-93846451D01*
X160652430Y-93841811D01*
X160693447Y-93706809D01*
X160715865Y-93633023D01*
X160715865Y-93633021D01*
X160717370Y-93628069D01*
X160746529Y-93406590D01*
X160746611Y-93403240D01*
X160748074Y-93343365D01*
X160748074Y-93343361D01*
X160748156Y-93340000D01*
X160729852Y-93117361D01*
X160675431Y-92900702D01*
X160586354Y-92695840D01*
X160523976Y-92599418D01*
X160467822Y-92512617D01*
X160467820Y-92512614D01*
X160465014Y-92508277D01*
X160314670Y-92343051D01*
X160310619Y-92339852D01*
X160310615Y-92339848D01*
X160143414Y-92207800D01*
X160143410Y-92207798D01*
X160139359Y-92204598D01*
X160097569Y-92181529D01*
X160047598Y-92131097D01*
X160032826Y-92061654D01*
X160057942Y-91995248D01*
X160085294Y-91968641D01*
X160260328Y-91843792D01*
X160268200Y-91837139D01*
X160419052Y-91686812D01*
X160425730Y-91678965D01*
X160550003Y-91506020D01*
X160555313Y-91497183D01*
X160649670Y-91306267D01*
X160653469Y-91296672D01*
X160715377Y-91092910D01*
X160717555Y-91082837D01*
X160718986Y-91071962D01*
X160716775Y-91057778D01*
X160703617Y-91054000D01*
X158068225Y-91054000D01*
X158054694Y-91057973D01*
X158053257Y-91067966D01*
X158083565Y-91202446D01*
X158086645Y-91212275D01*
X158166770Y-91409603D01*
X158171413Y-91418794D01*
X158282694Y-91600388D01*
X158288777Y-91608699D01*
X158428213Y-91769667D01*
X158435580Y-91776883D01*
X158599434Y-91912916D01*
X158607881Y-91918831D01*
X158676969Y-91959203D01*
X158725693Y-92010842D01*
X158738764Y-92080625D01*
X158712033Y-92146396D01*
X158671584Y-92179752D01*
X158658607Y-92186507D01*
X158654474Y-92189610D01*
X158654471Y-92189612D01*
X158486214Y-92315943D01*
X158479965Y-92320635D01*
X158476393Y-92324373D01*
X158369720Y-92436000D01*
X158325629Y-92482138D01*
X158199743Y-92666680D01*
X158167459Y-92736230D01*
X158115807Y-92847506D01*
X158105688Y-92869305D01*
X158045989Y-93084570D01*
X158022251Y-93306695D01*
X158022548Y-93311848D01*
X158022548Y-93311851D01*
X158033977Y-93510057D01*
X158035110Y-93529715D01*
X158036247Y-93534761D01*
X158036248Y-93534767D01*
X158055448Y-93619962D01*
X158084222Y-93747639D01*
X158086164Y-93752421D01*
X158086165Y-93752425D01*
X158108771Y-93808096D01*
X158115867Y-93878737D01*
X158083645Y-93942000D01*
X158022335Y-93977801D01*
X157992028Y-93981500D01*
X156794394Y-93981500D01*
X156726273Y-93961498D01*
X156691181Y-93927771D01*
X156584357Y-93775211D01*
X156584355Y-93775208D01*
X156581198Y-93770700D01*
X156419300Y-93608802D01*
X156414792Y-93605645D01*
X156414789Y-93605643D01*
X156320401Y-93539552D01*
X156231749Y-93477477D01*
X156226767Y-93475154D01*
X156226762Y-93475151D01*
X156192543Y-93459195D01*
X156139258Y-93412278D01*
X156119797Y-93344001D01*
X156140339Y-93276041D01*
X156192543Y-93230805D01*
X156226762Y-93214849D01*
X156226767Y-93214846D01*
X156231749Y-93212523D01*
X156336611Y-93139098D01*
X156414789Y-93084357D01*
X156414792Y-93084355D01*
X156419300Y-93081198D01*
X156581198Y-92919300D01*
X156589216Y-92907850D01*
X156650183Y-92820780D01*
X156712523Y-92731749D01*
X156714846Y-92726767D01*
X156714849Y-92726762D01*
X156806961Y-92529225D01*
X156806961Y-92529224D01*
X156809284Y-92524243D01*
X156821568Y-92478401D01*
X156867119Y-92308402D01*
X156867119Y-92308400D01*
X156868543Y-92303087D01*
X156888498Y-92075000D01*
X156868543Y-91846913D01*
X156867119Y-91841598D01*
X156867118Y-91841591D01*
X156851541Y-91783459D01*
X156853230Y-91712483D01*
X156884152Y-91661752D01*
X157962999Y-90582905D01*
X158025311Y-90548879D01*
X158052094Y-90546000D01*
X160703344Y-90546000D01*
X160716875Y-90542027D01*
X160718180Y-90532947D01*
X160676214Y-90365875D01*
X160672894Y-90356124D01*
X160587972Y-90160814D01*
X160583105Y-90151739D01*
X160467426Y-89972926D01*
X160461136Y-89964757D01*
X160317806Y-89807240D01*
X160310273Y-89800215D01*
X160143139Y-89668222D01*
X160134556Y-89662520D01*
X160097602Y-89642120D01*
X160047631Y-89591687D01*
X160032859Y-89522245D01*
X160057975Y-89455839D01*
X160085327Y-89429232D01*
X160138586Y-89391243D01*
X160264860Y-89301173D01*
X160423096Y-89143489D01*
X160464581Y-89085757D01*
X160550435Y-88966277D01*
X160553453Y-88962077D01*
X160556967Y-88954968D01*
X160650136Y-88766453D01*
X160650137Y-88766451D01*
X160652430Y-88761811D01*
X160717370Y-88548069D01*
X160746529Y-88326590D01*
X160747734Y-88277288D01*
X160748074Y-88263365D01*
X160748074Y-88263361D01*
X160748156Y-88260000D01*
X160729852Y-88037361D01*
X160675431Y-87820702D01*
X160586354Y-87615840D01*
X160465014Y-87428277D01*
X160314670Y-87263051D01*
X160310619Y-87259852D01*
X160310615Y-87259848D01*
X160143414Y-87127800D01*
X160143410Y-87127798D01*
X160139359Y-87124598D01*
X160098053Y-87101796D01*
X160048084Y-87051364D01*
X160033312Y-86981921D01*
X160058428Y-86915516D01*
X160085780Y-86888909D01*
X160129603Y-86857650D01*
X160264860Y-86761173D01*
X160423096Y-86603489D01*
X160447308Y-86569795D01*
X160550435Y-86426277D01*
X160553453Y-86422077D01*
X160571884Y-86384786D01*
X160650136Y-86226453D01*
X160650137Y-86226451D01*
X160652430Y-86221811D01*
X160693541Y-86086500D01*
X160715865Y-86013023D01*
X160715865Y-86013021D01*
X160717370Y-86008069D01*
X160746529Y-85786590D01*
X160747908Y-85730166D01*
X160748074Y-85723365D01*
X160748074Y-85723361D01*
X160748156Y-85720000D01*
X160729852Y-85497361D01*
X160675431Y-85280702D01*
X160586354Y-85075840D01*
X160502777Y-84946649D01*
X160467822Y-84892617D01*
X160467820Y-84892614D01*
X160465014Y-84888277D01*
X160314670Y-84723051D01*
X160310619Y-84719852D01*
X160310615Y-84719848D01*
X160143414Y-84587800D01*
X160143410Y-84587798D01*
X160139359Y-84584598D01*
X160097569Y-84561529D01*
X160047598Y-84511097D01*
X160032826Y-84441654D01*
X160057942Y-84375248D01*
X160085294Y-84348641D01*
X160260328Y-84223792D01*
X160268200Y-84217139D01*
X160419052Y-84066812D01*
X160425730Y-84058965D01*
X160550003Y-83886020D01*
X160555313Y-83877183D01*
X160649670Y-83686267D01*
X160653469Y-83676672D01*
X160715377Y-83472910D01*
X160717555Y-83462837D01*
X160718986Y-83451962D01*
X160716775Y-83437778D01*
X160703617Y-83434000D01*
X159257000Y-83434000D01*
X159188879Y-83413998D01*
X159142386Y-83360342D01*
X159131000Y-83308000D01*
X159131000Y-83052000D01*
X159151002Y-82983879D01*
X159204658Y-82937386D01*
X159257000Y-82926000D01*
X160703344Y-82926000D01*
X160716875Y-82922027D01*
X160718180Y-82912947D01*
X160676214Y-82745875D01*
X160672894Y-82736124D01*
X160587972Y-82540814D01*
X160583105Y-82531739D01*
X160467426Y-82352926D01*
X160461136Y-82344757D01*
X160317806Y-82187240D01*
X160310273Y-82180215D01*
X160143139Y-82048222D01*
X160134556Y-82042520D01*
X160097602Y-82022120D01*
X160047631Y-81971687D01*
X160032859Y-81902245D01*
X160057975Y-81835839D01*
X160085327Y-81809232D01*
X160125915Y-81780281D01*
X160264860Y-81681173D01*
X160286781Y-81659329D01*
X160392980Y-81553500D01*
X160423096Y-81523489D01*
X160457585Y-81475493D01*
X160550435Y-81346277D01*
X160553453Y-81342077D01*
X160579501Y-81289374D01*
X160650136Y-81146453D01*
X160650137Y-81146451D01*
X160652430Y-81141811D01*
X160717370Y-80928069D01*
X160746529Y-80706590D01*
X160747873Y-80651586D01*
X160748074Y-80643365D01*
X160748074Y-80643361D01*
X160748156Y-80640000D01*
X160729852Y-80417361D01*
X160675431Y-80200702D01*
X160586354Y-79995840D01*
X160471120Y-79817715D01*
X160467822Y-79812617D01*
X160467820Y-79812614D01*
X160465014Y-79808277D01*
X160314670Y-79643051D01*
X160310619Y-79639852D01*
X160310615Y-79639848D01*
X160143414Y-79507800D01*
X160143410Y-79507798D01*
X160139359Y-79504598D01*
X160098053Y-79481796D01*
X160048084Y-79431364D01*
X160033312Y-79361921D01*
X160058428Y-79295516D01*
X160085780Y-79268909D01*
X160129603Y-79237650D01*
X160264860Y-79141173D01*
X160286781Y-79119329D01*
X160346209Y-79060107D01*
X160423096Y-78983489D01*
X160464581Y-78925757D01*
X160550435Y-78806277D01*
X160553453Y-78802077D01*
X160562454Y-78783866D01*
X160650136Y-78606453D01*
X160650137Y-78606451D01*
X160652430Y-78601811D01*
X160717370Y-78388069D01*
X160746529Y-78166590D01*
X160747453Y-78128782D01*
X160748074Y-78103365D01*
X160748074Y-78103361D01*
X160748156Y-78100000D01*
X160729852Y-77877361D01*
X160675431Y-77660702D01*
X160586354Y-77455840D01*
X160512061Y-77341000D01*
X160467822Y-77272617D01*
X160467820Y-77272614D01*
X160465014Y-77268277D01*
X160461540Y-77264459D01*
X160461533Y-77264450D01*
X160317435Y-77106088D01*
X160286383Y-77042242D01*
X160294779Y-76971744D01*
X160339956Y-76916976D01*
X160366400Y-76903307D01*
X160473052Y-76863325D01*
X160488649Y-76854786D01*
X160590724Y-76778285D01*
X160603285Y-76765724D01*
X160679786Y-76663649D01*
X160688324Y-76648054D01*
X160733478Y-76527606D01*
X160737105Y-76512351D01*
X160742631Y-76461486D01*
X160743000Y-76454672D01*
X160743000Y-75832115D01*
X160738525Y-75816876D01*
X160737135Y-75815671D01*
X160729452Y-75814000D01*
X158045116Y-75814000D01*
X158029877Y-75818475D01*
X158028672Y-75819865D01*
X158027001Y-75827548D01*
X158027001Y-76454669D01*
X158027371Y-76461490D01*
X158032895Y-76512352D01*
X158036521Y-76527604D01*
X158081676Y-76648054D01*
X158090214Y-76663649D01*
X158166715Y-76765724D01*
X158179276Y-76778285D01*
X158281351Y-76854786D01*
X158296946Y-76863324D01*
X158405827Y-76904142D01*
X158462591Y-76946784D01*
X158487291Y-77013345D01*
X158472083Y-77082694D01*
X158452691Y-77109175D01*
X158329200Y-77238401D01*
X158325629Y-77242138D01*
X158322715Y-77246410D01*
X158322714Y-77246411D01*
X158258190Y-77341000D01*
X158199743Y-77426680D01*
X158179635Y-77470000D01*
X158114364Y-77610615D01*
X158105688Y-77629305D01*
X158045989Y-77844570D01*
X158022251Y-78066695D01*
X158022548Y-78071848D01*
X158022548Y-78071851D01*
X158031044Y-78219195D01*
X158035110Y-78289715D01*
X158036247Y-78294761D01*
X158036248Y-78294767D01*
X158056119Y-78382939D01*
X158084222Y-78507639D01*
X158133811Y-78629763D01*
X158160391Y-78695221D01*
X158168266Y-78714616D01*
X158207694Y-78778957D01*
X158255217Y-78856507D01*
X158284987Y-78905088D01*
X158431250Y-79073938D01*
X158603126Y-79216632D01*
X158657662Y-79248500D01*
X158676445Y-79259476D01*
X158725169Y-79311114D01*
X158738240Y-79380897D01*
X158711509Y-79446669D01*
X158671055Y-79480027D01*
X158658607Y-79486507D01*
X158654474Y-79489610D01*
X158654471Y-79489612D01*
X158495088Y-79609280D01*
X158479965Y-79620635D01*
X158458544Y-79643051D01*
X158347065Y-79759707D01*
X158325629Y-79782138D01*
X158322715Y-79786410D01*
X158322714Y-79786411D01*
X158304838Y-79812617D01*
X158199743Y-79966680D01*
X158179635Y-80010000D01*
X158109576Y-80160930D01*
X158105688Y-80169305D01*
X158045989Y-80384570D01*
X158045440Y-80389708D01*
X158042516Y-80417066D01*
X158015388Y-80482675D01*
X158006324Y-80492771D01*
X157087747Y-81411348D01*
X157079461Y-81418888D01*
X157072982Y-81423000D01*
X157067557Y-81428777D01*
X157026357Y-81472651D01*
X157023602Y-81475493D01*
X157007778Y-81491317D01*
X156945466Y-81525343D01*
X156874651Y-81520278D01*
X156817815Y-81477731D01*
X156804488Y-81455472D01*
X156714849Y-81263238D01*
X156714846Y-81263233D01*
X156712523Y-81258251D01*
X156593112Y-81087715D01*
X156584357Y-81075211D01*
X156584355Y-81075208D01*
X156581198Y-81070700D01*
X156419300Y-80908802D01*
X156414792Y-80905645D01*
X156414789Y-80905643D01*
X156336611Y-80850902D01*
X156231749Y-80777477D01*
X156226767Y-80775154D01*
X156226762Y-80775151D01*
X156192543Y-80759195D01*
X156139258Y-80712278D01*
X156119797Y-80644001D01*
X156140339Y-80576041D01*
X156192543Y-80530805D01*
X156226762Y-80514849D01*
X156226767Y-80514846D01*
X156231749Y-80512523D01*
X156348580Y-80430717D01*
X156414789Y-80384357D01*
X156414792Y-80384355D01*
X156419300Y-80381198D01*
X156581198Y-80219300D01*
X156587932Y-80209684D01*
X156657809Y-80109889D01*
X156712523Y-80031749D01*
X156714846Y-80026767D01*
X156714849Y-80026762D01*
X156806961Y-79829225D01*
X156806961Y-79829224D01*
X156809284Y-79824243D01*
X156810889Y-79818255D01*
X156867119Y-79608402D01*
X156867119Y-79608400D01*
X156868543Y-79603087D01*
X156888498Y-79375000D01*
X156868543Y-79146913D01*
X156860028Y-79115135D01*
X156810707Y-78931067D01*
X156810706Y-78931065D01*
X156809284Y-78925757D01*
X156806961Y-78920775D01*
X156714849Y-78723238D01*
X156714846Y-78723233D01*
X156712523Y-78718251D01*
X156655087Y-78636224D01*
X156584357Y-78535211D01*
X156584355Y-78535208D01*
X156581198Y-78530700D01*
X156419300Y-78368802D01*
X156414792Y-78365645D01*
X156414789Y-78365643D01*
X156306352Y-78289715D01*
X156231749Y-78237477D01*
X156226767Y-78235154D01*
X156226762Y-78235151D01*
X156192543Y-78219195D01*
X156139258Y-78172278D01*
X156119797Y-78104001D01*
X156140339Y-78036041D01*
X156192543Y-77990805D01*
X156226762Y-77974849D01*
X156226767Y-77974846D01*
X156231749Y-77972523D01*
X156357129Y-77884731D01*
X156414789Y-77844357D01*
X156414792Y-77844355D01*
X156419300Y-77841198D01*
X156581198Y-77679300D01*
X156588761Y-77668500D01*
X156639098Y-77596611D01*
X156712523Y-77491749D01*
X156714846Y-77486767D01*
X156714849Y-77486762D01*
X156806961Y-77289225D01*
X156806961Y-77289224D01*
X156809284Y-77284243D01*
X156814067Y-77266395D01*
X156867119Y-77068402D01*
X156867119Y-77068400D01*
X156868543Y-77063087D01*
X156888498Y-76835000D01*
X156868543Y-76606913D01*
X156830593Y-76465283D01*
X156810707Y-76391067D01*
X156810706Y-76391065D01*
X156809284Y-76385757D01*
X156806961Y-76380775D01*
X156714849Y-76183238D01*
X156714846Y-76183233D01*
X156712523Y-76178251D01*
X156593036Y-76007606D01*
X156584357Y-75995211D01*
X156584355Y-75995208D01*
X156581198Y-75990700D01*
X156419300Y-75828802D01*
X156414792Y-75825645D01*
X156414789Y-75825643D01*
X156336611Y-75770902D01*
X156231749Y-75697477D01*
X156226767Y-75695154D01*
X156226762Y-75695151D01*
X156192543Y-75679195D01*
X156139258Y-75632278D01*
X156119797Y-75564001D01*
X156140339Y-75496041D01*
X156192543Y-75450805D01*
X156226762Y-75434849D01*
X156226767Y-75434846D01*
X156231749Y-75432523D01*
X156403452Y-75312295D01*
X156414789Y-75304357D01*
X156414792Y-75304355D01*
X156419300Y-75301198D01*
X156432613Y-75287885D01*
X158027000Y-75287885D01*
X158031475Y-75303124D01*
X158032865Y-75304329D01*
X158040548Y-75306000D01*
X159112885Y-75306000D01*
X159128124Y-75301525D01*
X159129329Y-75300135D01*
X159131000Y-75292452D01*
X159131000Y-75287885D01*
X159639000Y-75287885D01*
X159643475Y-75303124D01*
X159644865Y-75304329D01*
X159652548Y-75306000D01*
X160724884Y-75306000D01*
X160740123Y-75301525D01*
X160741328Y-75300135D01*
X160742999Y-75292452D01*
X160742999Y-74665331D01*
X160742629Y-74658510D01*
X160737105Y-74607648D01*
X160733479Y-74592396D01*
X160688324Y-74471946D01*
X160679786Y-74456351D01*
X160603285Y-74354276D01*
X160590724Y-74341715D01*
X160488649Y-74265214D01*
X160473054Y-74256676D01*
X160352606Y-74211522D01*
X160337351Y-74207895D01*
X160286486Y-74202369D01*
X160279672Y-74202000D01*
X159657115Y-74202000D01*
X159641876Y-74206475D01*
X159640671Y-74207865D01*
X159639000Y-74215548D01*
X159639000Y-75287885D01*
X159131000Y-75287885D01*
X159131000Y-74220116D01*
X159126525Y-74204877D01*
X159125135Y-74203672D01*
X159117452Y-74202001D01*
X158490331Y-74202001D01*
X158483510Y-74202371D01*
X158432648Y-74207895D01*
X158417396Y-74211521D01*
X158296946Y-74256676D01*
X158281351Y-74265214D01*
X158179276Y-74341715D01*
X158166715Y-74354276D01*
X158090214Y-74456351D01*
X158081676Y-74471946D01*
X158036522Y-74592394D01*
X158032895Y-74607649D01*
X158027369Y-74658514D01*
X158027000Y-74665328D01*
X158027000Y-75287885D01*
X156432613Y-75287885D01*
X156581198Y-75139300D01*
X156587932Y-75129684D01*
X156677377Y-75001942D01*
X156712523Y-74951749D01*
X156714846Y-74946767D01*
X156714849Y-74946762D01*
X156806961Y-74749225D01*
X156806961Y-74749224D01*
X156809284Y-74744243D01*
X156820512Y-74702342D01*
X156867119Y-74528402D01*
X156867119Y-74528400D01*
X156868543Y-74523087D01*
X156888498Y-74295000D01*
X156868543Y-74066913D01*
X156830593Y-73925283D01*
X156810707Y-73851067D01*
X156810706Y-73851065D01*
X156809284Y-73845757D01*
X156806961Y-73840775D01*
X156714849Y-73643238D01*
X156714846Y-73643233D01*
X156712523Y-73638251D01*
X156593036Y-73467606D01*
X156584357Y-73455211D01*
X156584355Y-73455208D01*
X156581198Y-73450700D01*
X156419300Y-73288802D01*
X156414792Y-73285645D01*
X156414789Y-73285643D01*
X156308303Y-73211081D01*
X156231749Y-73157477D01*
X156226767Y-73155154D01*
X156226762Y-73155151D01*
X156192543Y-73139195D01*
X156139258Y-73092278D01*
X156119797Y-73024001D01*
X156140339Y-72956041D01*
X156192543Y-72910805D01*
X156226762Y-72894849D01*
X156226767Y-72894846D01*
X156231749Y-72892523D01*
X156374459Y-72792596D01*
X156414789Y-72764357D01*
X156414792Y-72764355D01*
X156419300Y-72761198D01*
X156581198Y-72599300D01*
X156587932Y-72589684D01*
X156662683Y-72482928D01*
X156712523Y-72411749D01*
X156714846Y-72406767D01*
X156714849Y-72406762D01*
X156787580Y-72250788D01*
X156834497Y-72197503D01*
X156902774Y-72178042D01*
X156970734Y-72198584D01*
X157018184Y-72255820D01*
X157097105Y-72446351D01*
X157114150Y-72487502D01*
X157246438Y-72703376D01*
X157410868Y-72895898D01*
X157603390Y-73060328D01*
X157819264Y-73192616D01*
X157823834Y-73194509D01*
X157823838Y-73194511D01*
X158038617Y-73283475D01*
X158053175Y-73289505D01*
X158120279Y-73305615D01*
X158294550Y-73347454D01*
X158294556Y-73347455D01*
X158299363Y-73348609D01*
X158551766Y-73368474D01*
X158804169Y-73348609D01*
X158808976Y-73347455D01*
X158808982Y-73347454D01*
X158983253Y-73305615D01*
X159050357Y-73289505D01*
X159064915Y-73283475D01*
X159279694Y-73194511D01*
X159279698Y-73194509D01*
X159284268Y-73192616D01*
X159351363Y-73151500D01*
X159409152Y-73116087D01*
X159477686Y-73097549D01*
X159545362Y-73119005D01*
X159575812Y-73147953D01*
X159628505Y-73218261D01*
X159745061Y-73305615D01*
X159881450Y-73356745D01*
X159943632Y-73363500D01*
X162239900Y-73363500D01*
X162302082Y-73356745D01*
X162438471Y-73305615D01*
X162555027Y-73218261D01*
X162642381Y-73101705D01*
X162693511Y-72965316D01*
X162700266Y-72903134D01*
X162700266Y-70606866D01*
X162693511Y-70544684D01*
X162642381Y-70408295D01*
X162555027Y-70291739D01*
X162438471Y-70204385D01*
X162302082Y-70153255D01*
X162239900Y-70146500D01*
X159943632Y-70146500D01*
X159881450Y-70153255D01*
X159745061Y-70204385D01*
X159628505Y-70291739D01*
X159575813Y-70362046D01*
X159518953Y-70404560D01*
X159448135Y-70409585D01*
X159409152Y-70393913D01*
X159288488Y-70319970D01*
X159284268Y-70317384D01*
X159279698Y-70315491D01*
X159279694Y-70315489D01*
X159054930Y-70222389D01*
X159054928Y-70222388D01*
X159050357Y-70220495D01*
X158965734Y-70200179D01*
X158808982Y-70162546D01*
X158808976Y-70162545D01*
X158804169Y-70161391D01*
X158551766Y-70141526D01*
X158299363Y-70161391D01*
X158294556Y-70162545D01*
X158294550Y-70162546D01*
X158137798Y-70200179D01*
X158053175Y-70220495D01*
X158048604Y-70222388D01*
X158048602Y-70222389D01*
X157823838Y-70315489D01*
X157823834Y-70315491D01*
X157819264Y-70317384D01*
X157603390Y-70449672D01*
X157410868Y-70614102D01*
X157246438Y-70806624D01*
X157114150Y-71022498D01*
X157112257Y-71027068D01*
X157112255Y-71027072D01*
X157018184Y-71254180D01*
X156973636Y-71309461D01*
X156906272Y-71331882D01*
X156837481Y-71314324D01*
X156787580Y-71259212D01*
X156714849Y-71103238D01*
X156714846Y-71103233D01*
X156712523Y-71098251D01*
X156625245Y-70973605D01*
X156584357Y-70915211D01*
X156584355Y-70915208D01*
X156581198Y-70910700D01*
X156419300Y-70748802D01*
X156414792Y-70745645D01*
X156414789Y-70745643D01*
X156276314Y-70648682D01*
X156231749Y-70617477D01*
X156226767Y-70615154D01*
X156226762Y-70615151D01*
X156029225Y-70523039D01*
X156029224Y-70523039D01*
X156024243Y-70520716D01*
X156018935Y-70519294D01*
X156018933Y-70519293D01*
X155808402Y-70462881D01*
X155808400Y-70462881D01*
X155803087Y-70461457D01*
X155575000Y-70441502D01*
X155346913Y-70461457D01*
X155341600Y-70462881D01*
X155341598Y-70462881D01*
X155131067Y-70519293D01*
X155131065Y-70519294D01*
X155125757Y-70520716D01*
X155120776Y-70523039D01*
X155120775Y-70523039D01*
X154923238Y-70615151D01*
X154923233Y-70615154D01*
X154918251Y-70617477D01*
X154873686Y-70648682D01*
X154735211Y-70745643D01*
X154735208Y-70745645D01*
X154730700Y-70748802D01*
X154568802Y-70910700D01*
X154565645Y-70915208D01*
X154565643Y-70915211D01*
X154524755Y-70973605D01*
X154437477Y-71098251D01*
X154435154Y-71103233D01*
X154435151Y-71103238D01*
X154362420Y-71259212D01*
X154340716Y-71305757D01*
X154339294Y-71311065D01*
X154339293Y-71311067D01*
X154292286Y-71486500D01*
X154281457Y-71526913D01*
X154261502Y-71755000D01*
X154281457Y-71983087D01*
X154282881Y-71988400D01*
X154282881Y-71988402D01*
X154339200Y-72198584D01*
X154340716Y-72204243D01*
X154343039Y-72209224D01*
X154343039Y-72209225D01*
X154435151Y-72406762D01*
X154435154Y-72406767D01*
X154437477Y-72411749D01*
X154487317Y-72482928D01*
X154562069Y-72589684D01*
X154568802Y-72599300D01*
X154730700Y-72761198D01*
X154735208Y-72764355D01*
X154735211Y-72764357D01*
X154775541Y-72792596D01*
X154918251Y-72892523D01*
X154923233Y-72894846D01*
X154923238Y-72894849D01*
X154957457Y-72910805D01*
X155010742Y-72957722D01*
X155030203Y-73025999D01*
X155009661Y-73093959D01*
X154957457Y-73139195D01*
X154923238Y-73155151D01*
X154923233Y-73155154D01*
X154918251Y-73157477D01*
X154841697Y-73211081D01*
X154735211Y-73285643D01*
X154735208Y-73285645D01*
X154730700Y-73288802D01*
X154568802Y-73450700D01*
X154565645Y-73455208D01*
X154565643Y-73455211D01*
X154556964Y-73467606D01*
X154437477Y-73638251D01*
X154435154Y-73643233D01*
X154435151Y-73643238D01*
X154343039Y-73840775D01*
X154340716Y-73845757D01*
X154339294Y-73851065D01*
X154339293Y-73851067D01*
X154319407Y-73925283D01*
X154281457Y-74066913D01*
X154261502Y-74295000D01*
X154281457Y-74523087D01*
X154282881Y-74528400D01*
X154282881Y-74528402D01*
X154329489Y-74702342D01*
X154340716Y-74744243D01*
X154343039Y-74749224D01*
X154343039Y-74749225D01*
X154435151Y-74946762D01*
X154435154Y-74946767D01*
X154437477Y-74951749D01*
X154472623Y-75001942D01*
X154562069Y-75129684D01*
X154568802Y-75139300D01*
X154730700Y-75301198D01*
X154735208Y-75304355D01*
X154735211Y-75304357D01*
X154746548Y-75312295D01*
X154918251Y-75432523D01*
X154923233Y-75434846D01*
X154923238Y-75434849D01*
X154957457Y-75450805D01*
X155010742Y-75497722D01*
X155030203Y-75565999D01*
X155009661Y-75633959D01*
X154957457Y-75679195D01*
X154923238Y-75695151D01*
X154923233Y-75695154D01*
X154918251Y-75697477D01*
X154813389Y-75770902D01*
X154735211Y-75825643D01*
X154735208Y-75825645D01*
X154730700Y-75828802D01*
X154568802Y-75990700D01*
X154565645Y-75995208D01*
X154565643Y-75995211D01*
X154556964Y-76007606D01*
X154437477Y-76178251D01*
X154435154Y-76183233D01*
X154435151Y-76183238D01*
X154343039Y-76380775D01*
X154340716Y-76385757D01*
X154339294Y-76391065D01*
X154339293Y-76391067D01*
X154319407Y-76465283D01*
X154281457Y-76606913D01*
X154261502Y-76835000D01*
X154281457Y-77063087D01*
X154282881Y-77068400D01*
X154282881Y-77068402D01*
X154335934Y-77266395D01*
X154340716Y-77284243D01*
X154343039Y-77289224D01*
X154343039Y-77289225D01*
X154435151Y-77486762D01*
X154435154Y-77486767D01*
X154437477Y-77491749D01*
X154510902Y-77596611D01*
X154561240Y-77668500D01*
X154568802Y-77679300D01*
X154730700Y-77841198D01*
X154735208Y-77844355D01*
X154735211Y-77844357D01*
X154792871Y-77884731D01*
X154918251Y-77972523D01*
X154923233Y-77974846D01*
X154923238Y-77974849D01*
X154957457Y-77990805D01*
X155010742Y-78037722D01*
X155030203Y-78105999D01*
X155009661Y-78173959D01*
X154957457Y-78219195D01*
X154923238Y-78235151D01*
X154923233Y-78235154D01*
X154918251Y-78237477D01*
X154843648Y-78289715D01*
X154735211Y-78365643D01*
X154735208Y-78365645D01*
X154730700Y-78368802D01*
X154568802Y-78530700D01*
X154565645Y-78535208D01*
X154565643Y-78535211D01*
X154494913Y-78636224D01*
X154437477Y-78718251D01*
X154435154Y-78723233D01*
X154435151Y-78723238D01*
X154343039Y-78920775D01*
X154340716Y-78925757D01*
X154339294Y-78931065D01*
X154339293Y-78931067D01*
X154289972Y-79115135D01*
X154281457Y-79146913D01*
X154261502Y-79375000D01*
X154281457Y-79603087D01*
X154282881Y-79608400D01*
X154282881Y-79608402D01*
X154339112Y-79818255D01*
X154340716Y-79824243D01*
X154343039Y-79829224D01*
X154343039Y-79829225D01*
X154435151Y-80026762D01*
X154435154Y-80026767D01*
X154437477Y-80031749D01*
X154492191Y-80109889D01*
X154562069Y-80209684D01*
X154568802Y-80219300D01*
X154730700Y-80381198D01*
X154735208Y-80384355D01*
X154735211Y-80384357D01*
X154801420Y-80430717D01*
X154918251Y-80512523D01*
X154923233Y-80514846D01*
X154923238Y-80514849D01*
X154957457Y-80530805D01*
X155010742Y-80577722D01*
X155030203Y-80645999D01*
X155009661Y-80713959D01*
X154957457Y-80759195D01*
X154923238Y-80775151D01*
X154923233Y-80775154D01*
X154918251Y-80777477D01*
X154813389Y-80850902D01*
X154735211Y-80905643D01*
X154735208Y-80905645D01*
X154730700Y-80908802D01*
X154568802Y-81070700D01*
X154565645Y-81075208D01*
X154565643Y-81075211D01*
X154556888Y-81087715D01*
X154437477Y-81258251D01*
X154435154Y-81263233D01*
X154435151Y-81263238D01*
X154357960Y-81428777D01*
X154340716Y-81465757D01*
X154339294Y-81471065D01*
X154339293Y-81471067D01*
X154289972Y-81655135D01*
X154281457Y-81686913D01*
X154261502Y-81915000D01*
X154281457Y-82143087D01*
X154282881Y-82148400D01*
X154282881Y-82148402D01*
X154339112Y-82358255D01*
X154340716Y-82364243D01*
X154343039Y-82369224D01*
X154343039Y-82369225D01*
X154435151Y-82566762D01*
X154435154Y-82566767D01*
X154437477Y-82571749D01*
X154499990Y-82661027D01*
X154562069Y-82749684D01*
X154568802Y-82759300D01*
X154730700Y-82921198D01*
X154735208Y-82924355D01*
X154735211Y-82924357D01*
X154775541Y-82952596D01*
X154918251Y-83052523D01*
X154923233Y-83054846D01*
X154923238Y-83054849D01*
X154957457Y-83070805D01*
X155010742Y-83117722D01*
X155030203Y-83185999D01*
X155009661Y-83253959D01*
X154957457Y-83299195D01*
X154923238Y-83315151D01*
X154923233Y-83315154D01*
X154918251Y-83317477D01*
X154857034Y-83360342D01*
X154735211Y-83445643D01*
X154735208Y-83445645D01*
X154730700Y-83448802D01*
X154568802Y-83610700D01*
X154565645Y-83615208D01*
X154565643Y-83615211D01*
X154556888Y-83627715D01*
X154437477Y-83798251D01*
X154435154Y-83803233D01*
X154435151Y-83803238D01*
X154384550Y-83911753D01*
X154340716Y-84005757D01*
X154339294Y-84011065D01*
X154339293Y-84011067D01*
X154298735Y-84162432D01*
X154281457Y-84226913D01*
X154261502Y-84455000D01*
X154281457Y-84683087D01*
X154282881Y-84688400D01*
X154282881Y-84688402D01*
X154339112Y-84898255D01*
X154340716Y-84904243D01*
X154343039Y-84909224D01*
X154343039Y-84909225D01*
X154435151Y-85106762D01*
X154435154Y-85106767D01*
X154437477Y-85111749D01*
X154501674Y-85203432D01*
X154562069Y-85289684D01*
X154568802Y-85299300D01*
X154730700Y-85461198D01*
X154735208Y-85464355D01*
X154735211Y-85464357D01*
X154813389Y-85519098D01*
X154918251Y-85592523D01*
X154923233Y-85594846D01*
X154923238Y-85594849D01*
X154957457Y-85610805D01*
X155010742Y-85657722D01*
X155030203Y-85725999D01*
X155009661Y-85793959D01*
X154957457Y-85839195D01*
X154923238Y-85855151D01*
X154923233Y-85855154D01*
X154918251Y-85857477D01*
X154911069Y-85862506D01*
X154735211Y-85985643D01*
X154735208Y-85985645D01*
X154730700Y-85988802D01*
X154568802Y-86150700D01*
X154565645Y-86155208D01*
X154565643Y-86155211D01*
X154532713Y-86202240D01*
X154437477Y-86338251D01*
X154435154Y-86343233D01*
X154435151Y-86343238D01*
X154358735Y-86507115D01*
X154340716Y-86545757D01*
X154339294Y-86551065D01*
X154339293Y-86551067D01*
X154301011Y-86693938D01*
X154281457Y-86766913D01*
X154261502Y-86995000D01*
X154281457Y-87223087D01*
X154282881Y-87228400D01*
X154282881Y-87228402D01*
X154328042Y-87396942D01*
X154340716Y-87444243D01*
X154343039Y-87449224D01*
X154343039Y-87449225D01*
X154435151Y-87646762D01*
X154435154Y-87646767D01*
X154437477Y-87651749D01*
X154472623Y-87701942D01*
X154562069Y-87829684D01*
X154568802Y-87839300D01*
X154730700Y-88001198D01*
X154735208Y-88004355D01*
X154735211Y-88004357D01*
X154800068Y-88049770D01*
X154918251Y-88132523D01*
X154923233Y-88134846D01*
X154923238Y-88134849D01*
X154957457Y-88150805D01*
X155010742Y-88197722D01*
X155030203Y-88265999D01*
X155009661Y-88333959D01*
X154957457Y-88379195D01*
X154923238Y-88395151D01*
X154923233Y-88395154D01*
X154918251Y-88397477D01*
X154843648Y-88449715D01*
X154735211Y-88525643D01*
X154735208Y-88525645D01*
X154730700Y-88528802D01*
X154568802Y-88690700D01*
X154565645Y-88695208D01*
X154565643Y-88695211D01*
X154556964Y-88707606D01*
X154437477Y-88878251D01*
X154435154Y-88883233D01*
X154435151Y-88883238D01*
X154350985Y-89063735D01*
X154340716Y-89085757D01*
X154339294Y-89091065D01*
X154339293Y-89091067D01*
X154287892Y-89282897D01*
X154281457Y-89306913D01*
X154261502Y-89535000D01*
X154281457Y-89763087D01*
X154282880Y-89768398D01*
X154282881Y-89768402D01*
X154337684Y-89972926D01*
X154340716Y-89984243D01*
X154343039Y-89989224D01*
X154343039Y-89989225D01*
X154435151Y-90186762D01*
X154435154Y-90186767D01*
X154437477Y-90191749D01*
X154459542Y-90223261D01*
X154561240Y-90368500D01*
X154568802Y-90379300D01*
X154730700Y-90541198D01*
X154735208Y-90544355D01*
X154735211Y-90544357D01*
X154795758Y-90586752D01*
X154918251Y-90672523D01*
X154923233Y-90674846D01*
X154923238Y-90674849D01*
X154957457Y-90690805D01*
X155010742Y-90737722D01*
X155030203Y-90805999D01*
X155009661Y-90873959D01*
X154957457Y-90919195D01*
X154923238Y-90935151D01*
X154923233Y-90935154D01*
X154918251Y-90937477D01*
X154832748Y-90997347D01*
X154735211Y-91065643D01*
X154735208Y-91065645D01*
X154730700Y-91068802D01*
X154568802Y-91230700D01*
X154565645Y-91235208D01*
X154565643Y-91235211D01*
X154535378Y-91278434D01*
X154437477Y-91418251D01*
X154435154Y-91423233D01*
X154435151Y-91423238D01*
X154396550Y-91506020D01*
X154340716Y-91625757D01*
X154339294Y-91631065D01*
X154339293Y-91631067D01*
X154284076Y-91837139D01*
X154281457Y-91846913D01*
X154261502Y-92075000D01*
X154281457Y-92303087D01*
X154282881Y-92308400D01*
X154282881Y-92308402D01*
X154328433Y-92478401D01*
X154340716Y-92524243D01*
X154343039Y-92529224D01*
X154343039Y-92529225D01*
X154435151Y-92726762D01*
X154435154Y-92726767D01*
X154437477Y-92731749D01*
X154499817Y-92820780D01*
X154560785Y-92907850D01*
X154568802Y-92919300D01*
X154730700Y-93081198D01*
X154735208Y-93084355D01*
X154735211Y-93084357D01*
X154813389Y-93139098D01*
X154918251Y-93212523D01*
X154923233Y-93214846D01*
X154923238Y-93214849D01*
X154957457Y-93230805D01*
X155010742Y-93277722D01*
X155030203Y-93345999D01*
X155009661Y-93413959D01*
X154957457Y-93459195D01*
X154923238Y-93475151D01*
X154923233Y-93475154D01*
X154918251Y-93477477D01*
X154829599Y-93539552D01*
X154735211Y-93605643D01*
X154735208Y-93605645D01*
X154730700Y-93608802D01*
X154568802Y-93770700D01*
X154565645Y-93775208D01*
X154565643Y-93775211D01*
X154549797Y-93797842D01*
X154437477Y-93958251D01*
X154435154Y-93963233D01*
X154435151Y-93963238D01*
X154394678Y-94050034D01*
X154340716Y-94165757D01*
X154339294Y-94171065D01*
X154339293Y-94171067D01*
X154297117Y-94328469D01*
X154281457Y-94386913D01*
X154261502Y-94615000D01*
X154281457Y-94843087D01*
X154282881Y-94848400D01*
X154282881Y-94848402D01*
X154336867Y-95049877D01*
X154340716Y-95064243D01*
X154343039Y-95069224D01*
X154343039Y-95069225D01*
X154435151Y-95266762D01*
X154435154Y-95266767D01*
X154437477Y-95271749D01*
X154509576Y-95374717D01*
X154555780Y-95440702D01*
X154568802Y-95459300D01*
X154730700Y-95621198D01*
X154735208Y-95624355D01*
X154735211Y-95624357D01*
X154813389Y-95679098D01*
X154918251Y-95752523D01*
X154923233Y-95754846D01*
X154923238Y-95754849D01*
X154957457Y-95770805D01*
X155010742Y-95817722D01*
X155030203Y-95885999D01*
X155009661Y-95953959D01*
X154957457Y-95999195D01*
X154923238Y-96015151D01*
X154923233Y-96015154D01*
X154918251Y-96017477D01*
X154843648Y-96069715D01*
X154735211Y-96145643D01*
X154735208Y-96145645D01*
X154730700Y-96148802D01*
X154568802Y-96310700D01*
X154437477Y-96498251D01*
X154435154Y-96503233D01*
X154435151Y-96503238D01*
X154346112Y-96694185D01*
X154340716Y-96705757D01*
X154339294Y-96711065D01*
X154339293Y-96711067D01*
X154289972Y-96895135D01*
X154281457Y-96926913D01*
X154261502Y-97155000D01*
X154281457Y-97383087D01*
X154282881Y-97388400D01*
X154282881Y-97388402D01*
X154337684Y-97592926D01*
X154340716Y-97604243D01*
X154343039Y-97609224D01*
X154343039Y-97609225D01*
X154435151Y-97806762D01*
X154435154Y-97806767D01*
X154437477Y-97811749D01*
X154487822Y-97883649D01*
X154559402Y-97985875D01*
X154568802Y-97999300D01*
X154730700Y-98161198D01*
X154735208Y-98164355D01*
X154735211Y-98164357D01*
X154813389Y-98219098D01*
X154918251Y-98292523D01*
X154923233Y-98294846D01*
X154923238Y-98294849D01*
X154957457Y-98310805D01*
X155010742Y-98357722D01*
X155030203Y-98425999D01*
X155009661Y-98493959D01*
X154957457Y-98539195D01*
X154923238Y-98555151D01*
X154923233Y-98555154D01*
X154918251Y-98557477D01*
X154845586Y-98608358D01*
X154735211Y-98685643D01*
X154735208Y-98685645D01*
X154730700Y-98688802D01*
X154568802Y-98850700D01*
X154565645Y-98855208D01*
X154565643Y-98855211D01*
X154553463Y-98872606D01*
X154437477Y-99038251D01*
X154435154Y-99043233D01*
X154435151Y-99043238D01*
X154397825Y-99123285D01*
X154340716Y-99245757D01*
X154339294Y-99251065D01*
X154339293Y-99251067D01*
X154284076Y-99457139D01*
X154281457Y-99466913D01*
X154261502Y-99695000D01*
X154281457Y-99923087D01*
X154282881Y-99928400D01*
X154282881Y-99928402D01*
X154338926Y-100137561D01*
X154340716Y-100144243D01*
X154343039Y-100149224D01*
X154343039Y-100149225D01*
X154435151Y-100346762D01*
X154435154Y-100346767D01*
X154437477Y-100351749D01*
X154497963Y-100438131D01*
X154555780Y-100520702D01*
X154568802Y-100539300D01*
X154730700Y-100701198D01*
X154735208Y-100704355D01*
X154735211Y-100704357D01*
X154800025Y-100749740D01*
X154918251Y-100832523D01*
X154923233Y-100834846D01*
X154923238Y-100834849D01*
X154957457Y-100850805D01*
X155010742Y-100897722D01*
X155030203Y-100965999D01*
X155009661Y-101033959D01*
X154957457Y-101079195D01*
X154923238Y-101095151D01*
X154923233Y-101095154D01*
X154918251Y-101097477D01*
X154813389Y-101170902D01*
X154735211Y-101225643D01*
X154735208Y-101225645D01*
X154730700Y-101228802D01*
X154568802Y-101390700D01*
X154437477Y-101578251D01*
X154435154Y-101583233D01*
X154435151Y-101583238D01*
X154343039Y-101780775D01*
X154340716Y-101785757D01*
X154339294Y-101791065D01*
X154339293Y-101791067D01*
X154313892Y-101885866D01*
X154281457Y-102006913D01*
X154261502Y-102235000D01*
X154281457Y-102463087D01*
X154282881Y-102468400D01*
X154282881Y-102468402D01*
X154324167Y-102622480D01*
X154340716Y-102684243D01*
X154343039Y-102689224D01*
X154343039Y-102689225D01*
X154435151Y-102886762D01*
X154435154Y-102886767D01*
X154437477Y-102891749D01*
X154440634Y-102896257D01*
X154555780Y-103060702D01*
X154568802Y-103079300D01*
X154730700Y-103241198D01*
X154735208Y-103244355D01*
X154735211Y-103244357D01*
X154813389Y-103299098D01*
X154918251Y-103372523D01*
X154923233Y-103374846D01*
X154923238Y-103374849D01*
X154957457Y-103390805D01*
X155010742Y-103437722D01*
X155030203Y-103505999D01*
X155009661Y-103573959D01*
X154957457Y-103619195D01*
X154923238Y-103635151D01*
X154923233Y-103635154D01*
X154918251Y-103637477D01*
X154843648Y-103689715D01*
X154735211Y-103765643D01*
X154735208Y-103765645D01*
X154730700Y-103768802D01*
X154568802Y-103930700D01*
X154565645Y-103935208D01*
X154565643Y-103935211D01*
X154528965Y-103987593D01*
X154437477Y-104118251D01*
X154435154Y-104123233D01*
X154435151Y-104123238D01*
X154348252Y-104309595D01*
X154340716Y-104325757D01*
X154339294Y-104331065D01*
X154339293Y-104331067D01*
X154289972Y-104515135D01*
X154281457Y-104546913D01*
X154261502Y-104775000D01*
X153842372Y-104775000D01*
X153870138Y-104691290D01*
X153873005Y-104677914D01*
X153882672Y-104583562D01*
X153883000Y-104577146D01*
X153883000Y-103777115D01*
X153878525Y-103761876D01*
X153877135Y-103760671D01*
X153869452Y-103759000D01*
X152609615Y-103759000D01*
X152594376Y-103763475D01*
X152593171Y-103764865D01*
X152591500Y-103772548D01*
X152591500Y-105269884D01*
X152083500Y-105269884D01*
X152083500Y-103777115D01*
X152079025Y-103761876D01*
X152077635Y-103760671D01*
X152069952Y-103759000D01*
X150810116Y-103759000D01*
X150794877Y-103763475D01*
X150793672Y-103764865D01*
X150792001Y-103772548D01*
X150792001Y-104577095D01*
X147658500Y-104577095D01*
X147658500Y-103232885D01*
X150792000Y-103232885D01*
X150796475Y-103248124D01*
X150797865Y-103249329D01*
X150805548Y-103251000D01*
X152065385Y-103251000D01*
X152080624Y-103246525D01*
X152081829Y-103245135D01*
X152083500Y-103237452D01*
X152083500Y-103232885D01*
X152591500Y-103232885D01*
X152595975Y-103248124D01*
X152597365Y-103249329D01*
X152605048Y-103251000D01*
X153864884Y-103251000D01*
X153880123Y-103246525D01*
X153881328Y-103245135D01*
X153882999Y-103237452D01*
X153882999Y-102432905D01*
X153882662Y-102426386D01*
X153872743Y-102330794D01*
X153869851Y-102317400D01*
X153818412Y-102163216D01*
X153812239Y-102150038D01*
X153726937Y-102012193D01*
X153717901Y-102000792D01*
X153603171Y-101886261D01*
X153591760Y-101877249D01*
X153453757Y-101792184D01*
X153440576Y-101786037D01*
X153286290Y-101734862D01*
X153272914Y-101731995D01*
X153178562Y-101722328D01*
X153172145Y-101722000D01*
X152609615Y-101722000D01*
X152594376Y-101726475D01*
X152593171Y-101727865D01*
X152591500Y-101735548D01*
X152591500Y-103232885D01*
X152083500Y-103232885D01*
X152083500Y-101740116D01*
X152079025Y-101724877D01*
X152077635Y-101723672D01*
X152069952Y-101722001D01*
X151502905Y-101722001D01*
X151496386Y-101722338D01*
X151400794Y-101732257D01*
X151387400Y-101735149D01*
X151233216Y-101786588D01*
X151220038Y-101792761D01*
X151082193Y-101878063D01*
X151070792Y-101887099D01*
X150956261Y-102001829D01*
X150947249Y-102013240D01*
X150862184Y-102151243D01*
X150856037Y-102164424D01*
X150804862Y-102318710D01*
X150801995Y-102332086D01*
X150792328Y-102426438D01*
X150792000Y-102432855D01*
X150792000Y-103232885D01*
X147658500Y-103232885D01*
X147658500Y-102429600D01*
X147649390Y-102341797D01*
X147648238Y-102330692D01*
X147648237Y-102330688D01*
X147647526Y-102323834D01*
X147635391Y-102287459D01*
X147593868Y-102163002D01*
X147591550Y-102156054D01*
X147498478Y-102005652D01*
X147373303Y-101880695D01*
X147367072Y-101876854D01*
X147228968Y-101791725D01*
X147228966Y-101791724D01*
X147222738Y-101787885D01*
X147135040Y-101758797D01*
X147061389Y-101734368D01*
X147061387Y-101734368D01*
X147054861Y-101732203D01*
X147048023Y-101731502D01*
X147048021Y-101731502D01*
X147012522Y-101727865D01*
X146984157Y-101724959D01*
X146918431Y-101698118D01*
X146877648Y-101640003D01*
X146871000Y-101599615D01*
X146871000Y-100564500D01*
X146891002Y-100496379D01*
X146944658Y-100449886D01*
X146991376Y-100439723D01*
X146991320Y-100438684D01*
X146994718Y-100438500D01*
X146998134Y-100438500D01*
X147060316Y-100431745D01*
X147196705Y-100380615D01*
X147313261Y-100293261D01*
X147400615Y-100176705D01*
X147451745Y-100040316D01*
X147458500Y-99978134D01*
X147458500Y-98931866D01*
X147451745Y-98869684D01*
X147425498Y-98799669D01*
X150992001Y-98799669D01*
X150992371Y-98806490D01*
X150997895Y-98857352D01*
X151001521Y-98872604D01*
X151046676Y-98993054D01*
X151055214Y-99008649D01*
X151131715Y-99110724D01*
X151144276Y-99123285D01*
X151246351Y-99199786D01*
X151261946Y-99208324D01*
X151382394Y-99253478D01*
X151397649Y-99257105D01*
X151448514Y-99262631D01*
X151455328Y-99263000D01*
X152102885Y-99263000D01*
X152118124Y-99258525D01*
X152119329Y-99257135D01*
X152121000Y-99249452D01*
X152121000Y-99244884D01*
X152629000Y-99244884D01*
X152633475Y-99260123D01*
X152634865Y-99261328D01*
X152642548Y-99262999D01*
X153294669Y-99262999D01*
X153301490Y-99262629D01*
X153352352Y-99257105D01*
X153367604Y-99253479D01*
X153488054Y-99208324D01*
X153503649Y-99199786D01*
X153605724Y-99123285D01*
X153618285Y-99110724D01*
X153694786Y-99008649D01*
X153703324Y-98993054D01*
X153748478Y-98872606D01*
X153752105Y-98857351D01*
X153757631Y-98806486D01*
X153758000Y-98799672D01*
X153758000Y-97427115D01*
X153753525Y-97411876D01*
X153752135Y-97410671D01*
X153744452Y-97409000D01*
X152647115Y-97409000D01*
X152631876Y-97413475D01*
X152630671Y-97414865D01*
X152629000Y-97422548D01*
X152629000Y-99244884D01*
X152121000Y-99244884D01*
X152121000Y-97427115D01*
X152116525Y-97411876D01*
X152115135Y-97410671D01*
X152107452Y-97409000D01*
X151010116Y-97409000D01*
X150994877Y-97413475D01*
X150993672Y-97414865D01*
X150992001Y-97422548D01*
X150992001Y-98799669D01*
X147425498Y-98799669D01*
X147400615Y-98733295D01*
X147313261Y-98616739D01*
X147196705Y-98529385D01*
X147060316Y-98478255D01*
X146998134Y-98471500D01*
X145151866Y-98471500D01*
X145089684Y-98478255D01*
X144953295Y-98529385D01*
X144946109Y-98534771D01*
X144941712Y-98537178D01*
X144872354Y-98552347D01*
X144805806Y-98527611D01*
X144763196Y-98470823D01*
X144761977Y-98466823D01*
X144761745Y-98464684D01*
X144759508Y-98458716D01*
X144758616Y-98455789D01*
X144758222Y-98454131D01*
X144758225Y-98395854D01*
X144758971Y-98392715D01*
X144761745Y-98385316D01*
X144768500Y-98323134D01*
X144768500Y-98190047D01*
X144788502Y-98121926D01*
X144842158Y-98075433D01*
X144912432Y-98065329D01*
X144955007Y-98079526D01*
X144961941Y-98083322D01*
X145082394Y-98128478D01*
X145097649Y-98132105D01*
X145148514Y-98137631D01*
X145155328Y-98138000D01*
X145802885Y-98138000D01*
X145818124Y-98133525D01*
X145819329Y-98132135D01*
X145821000Y-98124452D01*
X145821000Y-98119884D01*
X146329000Y-98119884D01*
X146333475Y-98135123D01*
X146334865Y-98136328D01*
X146342548Y-98137999D01*
X146994669Y-98137999D01*
X147001490Y-98137629D01*
X147052352Y-98132105D01*
X147067604Y-98128479D01*
X147188054Y-98083324D01*
X147203649Y-98074786D01*
X147305724Y-97998285D01*
X147318285Y-97985724D01*
X147394786Y-97883649D01*
X147403324Y-97868054D01*
X147448478Y-97747606D01*
X147452105Y-97732351D01*
X147457631Y-97681486D01*
X147458000Y-97674672D01*
X147458000Y-97427115D01*
X147453525Y-97411876D01*
X147452135Y-97410671D01*
X147444452Y-97409000D01*
X146347115Y-97409000D01*
X146331876Y-97413475D01*
X146330671Y-97414865D01*
X146329000Y-97422548D01*
X146329000Y-98119884D01*
X145821000Y-98119884D01*
X145821000Y-96882885D01*
X146329000Y-96882885D01*
X146333475Y-96898124D01*
X146334865Y-96899329D01*
X146342548Y-96901000D01*
X147439884Y-96901000D01*
X147455123Y-96896525D01*
X147456328Y-96895135D01*
X147457999Y-96887452D01*
X147457999Y-96882885D01*
X150992000Y-96882885D01*
X150996475Y-96898124D01*
X150997865Y-96899329D01*
X151005548Y-96901000D01*
X152102885Y-96901000D01*
X152118124Y-96896525D01*
X152119329Y-96895135D01*
X152121000Y-96887452D01*
X152121000Y-96882885D01*
X152629000Y-96882885D01*
X152633475Y-96898124D01*
X152634865Y-96899329D01*
X152642548Y-96901000D01*
X153739884Y-96901000D01*
X153755123Y-96896525D01*
X153756328Y-96895135D01*
X153757999Y-96887452D01*
X153757999Y-95510331D01*
X153757629Y-95503510D01*
X153752105Y-95452648D01*
X153748479Y-95437396D01*
X153703324Y-95316946D01*
X153694786Y-95301351D01*
X153618285Y-95199276D01*
X153605724Y-95186715D01*
X153503649Y-95110214D01*
X153488054Y-95101676D01*
X153367606Y-95056522D01*
X153352351Y-95052895D01*
X153301486Y-95047369D01*
X153294672Y-95047000D01*
X152647115Y-95047000D01*
X152631876Y-95051475D01*
X152630671Y-95052865D01*
X152629000Y-95060548D01*
X152629000Y-96882885D01*
X152121000Y-96882885D01*
X152121000Y-95065116D01*
X152116525Y-95049877D01*
X152115135Y-95048672D01*
X152107452Y-95047001D01*
X151455331Y-95047001D01*
X151448510Y-95047371D01*
X151397648Y-95052895D01*
X151382396Y-95056521D01*
X151261946Y-95101676D01*
X151246351Y-95110214D01*
X151144276Y-95186715D01*
X151131715Y-95199276D01*
X151055214Y-95301351D01*
X151046676Y-95316946D01*
X151001522Y-95437394D01*
X150997895Y-95452649D01*
X150992369Y-95503514D01*
X150992000Y-95510328D01*
X150992000Y-96882885D01*
X147457999Y-96882885D01*
X147457999Y-96635331D01*
X147457629Y-96628510D01*
X147452105Y-96577648D01*
X147448479Y-96562396D01*
X147403324Y-96441946D01*
X147394786Y-96426351D01*
X147318285Y-96324276D01*
X147305724Y-96311715D01*
X147203649Y-96235214D01*
X147188054Y-96226676D01*
X147067606Y-96181522D01*
X147052351Y-96177895D01*
X147001486Y-96172369D01*
X146994672Y-96172000D01*
X146347115Y-96172000D01*
X146331876Y-96176475D01*
X146330671Y-96177865D01*
X146329000Y-96185548D01*
X146329000Y-96882885D01*
X145821000Y-96882885D01*
X145821000Y-96233871D01*
X145841002Y-96165750D01*
X145857905Y-96144776D01*
X146127276Y-95875405D01*
X146189588Y-95841379D01*
X146216371Y-95838500D01*
X146998134Y-95838500D01*
X147060316Y-95831745D01*
X147196705Y-95780615D01*
X147313261Y-95693261D01*
X147400615Y-95576705D01*
X147451745Y-95440316D01*
X147458500Y-95378134D01*
X147458500Y-94331866D01*
X147451745Y-94269684D01*
X147400615Y-94133295D01*
X147313261Y-94016739D01*
X147196705Y-93929385D01*
X147060316Y-93878255D01*
X146998134Y-93871500D01*
X146959500Y-93871500D01*
X146891379Y-93851498D01*
X146844886Y-93797842D01*
X146833500Y-93745500D01*
X146833500Y-93686371D01*
X146853502Y-93618250D01*
X146870405Y-93597276D01*
X146873501Y-93594180D01*
X146935813Y-93560154D01*
X147006628Y-93565219D01*
X147013844Y-93568168D01*
X147031677Y-93576108D01*
X147031685Y-93576111D01*
X147037712Y-93578794D01*
X147127062Y-93597786D01*
X147218056Y-93617128D01*
X147218061Y-93617128D01*
X147224513Y-93618500D01*
X147415487Y-93618500D01*
X147421939Y-93617128D01*
X147421944Y-93617128D01*
X147512938Y-93597786D01*
X147602288Y-93578794D01*
X147626155Y-93568168D01*
X147674307Y-93546729D01*
X147744674Y-93537295D01*
X147791670Y-93554575D01*
X147833186Y-93580166D01*
X147905020Y-93624445D01*
X147912899Y-93629302D01*
X148075243Y-93683149D01*
X148082080Y-93683849D01*
X148082082Y-93683850D01*
X148123401Y-93688083D01*
X148176268Y-93693500D01*
X148723732Y-93693500D01*
X148726978Y-93693163D01*
X148726982Y-93693163D01*
X148761083Y-93689625D01*
X148826019Y-93682887D01*
X148905874Y-93656245D01*
X148981324Y-93631073D01*
X148981326Y-93631072D01*
X148988268Y-93628756D01*
X148995618Y-93624208D01*
X149127485Y-93542606D01*
X149133713Y-93538752D01*
X149138886Y-93533570D01*
X149144623Y-93529023D01*
X149146055Y-93530830D01*
X149198575Y-93502098D01*
X149269395Y-93507108D01*
X149305853Y-93530499D01*
X149306683Y-93529448D01*
X149323840Y-93542998D01*
X149456880Y-93625004D01*
X149470061Y-93631151D01*
X149618814Y-93680491D01*
X149632190Y-93683358D01*
X149723097Y-93692672D01*
X149728126Y-93692929D01*
X149743124Y-93688525D01*
X149744329Y-93687135D01*
X149746000Y-93679452D01*
X149746000Y-93674885D01*
X150254000Y-93674885D01*
X150258475Y-93690124D01*
X150259865Y-93691329D01*
X150267548Y-93693000D01*
X150270438Y-93693000D01*
X150276953Y-93692663D01*
X150369057Y-93683106D01*
X150382456Y-93680212D01*
X150531107Y-93630619D01*
X150544286Y-93624445D01*
X150677173Y-93542212D01*
X150688574Y-93533176D01*
X150798986Y-93422571D01*
X150807998Y-93411160D01*
X150890004Y-93278120D01*
X150896151Y-93264939D01*
X150945491Y-93116186D01*
X150948358Y-93102810D01*
X150957672Y-93011903D01*
X150958000Y-93005487D01*
X150958000Y-92982115D01*
X150953525Y-92966876D01*
X150952135Y-92965671D01*
X150944452Y-92964000D01*
X150272115Y-92964000D01*
X150256876Y-92968475D01*
X150255671Y-92969865D01*
X150254000Y-92977548D01*
X150254000Y-93674885D01*
X149746000Y-93674885D01*
X149746000Y-92437885D01*
X150254000Y-92437885D01*
X150258475Y-92453124D01*
X150259865Y-92454329D01*
X150267548Y-92456000D01*
X150939885Y-92456000D01*
X150955124Y-92451525D01*
X150956329Y-92450135D01*
X150958000Y-92442452D01*
X150958000Y-92414562D01*
X150957663Y-92408047D01*
X150948106Y-92315943D01*
X150945212Y-92302544D01*
X150895619Y-92153893D01*
X150889445Y-92140714D01*
X150807212Y-92007827D01*
X150798176Y-91996426D01*
X150687571Y-91886014D01*
X150676160Y-91877002D01*
X150543120Y-91794996D01*
X150529939Y-91788849D01*
X150381186Y-91739509D01*
X150367810Y-91736642D01*
X150276903Y-91727328D01*
X150271874Y-91727071D01*
X150256876Y-91731475D01*
X150255671Y-91732865D01*
X150254000Y-91740548D01*
X150254000Y-92437885D01*
X149746000Y-92437885D01*
X149746000Y-91745115D01*
X149741525Y-91729876D01*
X149740135Y-91728671D01*
X149732452Y-91727000D01*
X149729562Y-91727000D01*
X149723047Y-91727337D01*
X149630943Y-91736894D01*
X149617544Y-91739788D01*
X149468893Y-91789381D01*
X149455714Y-91795555D01*
X149322827Y-91877788D01*
X149305689Y-91891371D01*
X149304159Y-91889441D01*
X149252120Y-91917903D01*
X149181301Y-91912887D01*
X149144383Y-91889201D01*
X149143628Y-91890157D01*
X149137882Y-91885619D01*
X149132702Y-91880448D01*
X149121137Y-91873319D01*
X148993331Y-91794538D01*
X148993329Y-91794537D01*
X148987101Y-91790698D01*
X148824757Y-91736851D01*
X148817920Y-91736151D01*
X148817918Y-91736150D01*
X148776599Y-91731917D01*
X148723732Y-91726500D01*
X148176268Y-91726500D01*
X148173022Y-91726837D01*
X148173018Y-91726837D01*
X148143730Y-91729876D01*
X148073981Y-91737113D01*
X148065963Y-91739788D01*
X147918676Y-91788927D01*
X147918674Y-91788928D01*
X147911732Y-91791244D01*
X147905508Y-91795096D01*
X147905507Y-91795096D01*
X147791968Y-91865356D01*
X147723516Y-91884194D01*
X147674417Y-91873319D01*
X147608323Y-91843892D01*
X147608315Y-91843889D01*
X147602288Y-91841206D01*
X147508888Y-91821353D01*
X147421944Y-91802872D01*
X147421939Y-91802872D01*
X147415487Y-91801500D01*
X147224513Y-91801500D01*
X147218061Y-91802872D01*
X147218056Y-91802872D01*
X147131112Y-91821353D01*
X147037712Y-91841206D01*
X147031682Y-91843891D01*
X147031681Y-91843891D01*
X146869278Y-91916197D01*
X146869276Y-91916198D01*
X146863248Y-91918882D01*
X146857909Y-91922761D01*
X146857902Y-91922765D01*
X146851472Y-91927437D01*
X146777413Y-91951500D01*
X146752069Y-91951500D01*
X146733121Y-91950067D01*
X146725780Y-91948950D01*
X146718883Y-91947901D01*
X146718881Y-91947901D01*
X146711651Y-91946801D01*
X146704359Y-91947394D01*
X146704356Y-91947394D01*
X146658982Y-91951085D01*
X146648767Y-91951500D01*
X146640707Y-91951500D01*
X146627417Y-91953049D01*
X146612493Y-91954789D01*
X146608118Y-91955222D01*
X146542661Y-91960546D01*
X146542658Y-91960547D01*
X146535363Y-91961140D01*
X146528399Y-91963396D01*
X146522440Y-91964587D01*
X146516585Y-91965971D01*
X146509319Y-91966818D01*
X146440673Y-91991735D01*
X146436545Y-91993152D01*
X146374064Y-92013393D01*
X146374062Y-92013394D01*
X146367101Y-92015649D01*
X146360846Y-92019445D01*
X146355372Y-92021951D01*
X146349942Y-92024670D01*
X146343063Y-92027167D01*
X146282016Y-92067191D01*
X146278327Y-92069518D01*
X146269294Y-92075000D01*
X146220693Y-92104491D01*
X146220688Y-92104495D01*
X146215892Y-92107405D01*
X146207516Y-92114803D01*
X146207493Y-92114777D01*
X146204503Y-92117426D01*
X146201264Y-92120134D01*
X146195148Y-92124144D01*
X146190121Y-92129451D01*
X146190117Y-92129454D01*
X146141872Y-92180383D01*
X146139494Y-92182825D01*
X145586089Y-92736230D01*
X145571677Y-92748616D01*
X145560082Y-92757149D01*
X145560077Y-92757154D01*
X145554182Y-92761492D01*
X145549443Y-92767070D01*
X145549440Y-92767073D01*
X145519965Y-92801768D01*
X145513035Y-92809284D01*
X145507340Y-92814979D01*
X145505060Y-92817861D01*
X145489719Y-92837251D01*
X145486928Y-92840655D01*
X145481108Y-92847506D01*
X145439667Y-92896285D01*
X145436339Y-92902801D01*
X145432972Y-92907850D01*
X145429805Y-92912979D01*
X145425266Y-92918716D01*
X145394345Y-92984875D01*
X145392442Y-92988769D01*
X145359231Y-93053808D01*
X145357492Y-93060916D01*
X145355393Y-93066559D01*
X145353476Y-93072322D01*
X145350378Y-93078950D01*
X145348888Y-93086112D01*
X145348888Y-93086113D01*
X145335514Y-93150412D01*
X145334544Y-93154696D01*
X145317192Y-93225610D01*
X145316500Y-93236764D01*
X145316464Y-93236762D01*
X145316225Y-93240755D01*
X145315851Y-93244947D01*
X145314360Y-93252115D01*
X145315577Y-93297113D01*
X145316454Y-93329521D01*
X145316500Y-93332928D01*
X145316500Y-93745500D01*
X145296498Y-93813621D01*
X145242842Y-93860114D01*
X145190500Y-93871500D01*
X145151866Y-93871500D01*
X145089684Y-93878255D01*
X144953295Y-93929385D01*
X144836739Y-94016739D01*
X144749385Y-94133295D01*
X144698255Y-94269684D01*
X144691500Y-94331866D01*
X144691500Y-95113629D01*
X144671498Y-95181750D01*
X144654595Y-95202724D01*
X143127724Y-96729595D01*
X143065412Y-96763621D01*
X143038629Y-96766500D01*
X142711866Y-96766500D01*
X142649684Y-96773255D01*
X142513295Y-96824385D01*
X142396739Y-96911739D01*
X142309385Y-97028295D01*
X142258255Y-97164684D01*
X142251500Y-97226866D01*
X142251500Y-98323134D01*
X142258255Y-98385316D01*
X142261029Y-98392715D01*
X142261775Y-98395854D01*
X142261775Y-98454146D01*
X142261029Y-98457285D01*
X142258255Y-98464684D01*
X142251500Y-98526866D01*
X142251500Y-99623134D01*
X141642211Y-99623134D01*
X141628543Y-99466913D01*
X141625924Y-99457139D01*
X141570707Y-99251067D01*
X141570706Y-99251065D01*
X141569284Y-99245757D01*
X141512175Y-99123285D01*
X141474849Y-99043238D01*
X141474846Y-99043233D01*
X141472523Y-99038251D01*
X141356537Y-98872606D01*
X141344357Y-98855211D01*
X141344355Y-98855208D01*
X141341198Y-98850700D01*
X141179300Y-98688802D01*
X141174792Y-98685645D01*
X141174789Y-98685643D01*
X141064414Y-98608358D01*
X140991749Y-98557477D01*
X140986767Y-98555154D01*
X140986762Y-98555151D01*
X140952543Y-98539195D01*
X140899258Y-98492278D01*
X140879797Y-98424001D01*
X140900339Y-98356041D01*
X140952543Y-98310805D01*
X140986762Y-98294849D01*
X140986767Y-98294846D01*
X140991749Y-98292523D01*
X141096611Y-98219098D01*
X141174789Y-98164357D01*
X141174792Y-98164355D01*
X141179300Y-98161198D01*
X141341198Y-97999300D01*
X141350599Y-97985875D01*
X141422178Y-97883649D01*
X141472523Y-97811749D01*
X141474846Y-97806767D01*
X141474849Y-97806762D01*
X141566961Y-97609225D01*
X141566961Y-97609224D01*
X141569284Y-97604243D01*
X141572317Y-97592926D01*
X141627119Y-97388402D01*
X141627119Y-97388400D01*
X141628543Y-97383087D01*
X141648498Y-97155000D01*
X141628543Y-96926913D01*
X141620028Y-96895135D01*
X141570707Y-96711067D01*
X141570706Y-96711065D01*
X141569284Y-96705757D01*
X141563888Y-96694185D01*
X141474849Y-96503238D01*
X141474846Y-96503233D01*
X141472523Y-96498251D01*
X141341198Y-96310700D01*
X141179300Y-96148802D01*
X141174792Y-96145645D01*
X141174789Y-96145643D01*
X141066352Y-96069715D01*
X140991749Y-96017477D01*
X140986767Y-96015154D01*
X140986762Y-96015151D01*
X140952543Y-95999195D01*
X140899258Y-95952278D01*
X140879797Y-95884001D01*
X140900339Y-95816041D01*
X140952543Y-95770805D01*
X140986762Y-95754849D01*
X140986767Y-95754846D01*
X140991749Y-95752523D01*
X141096611Y-95679098D01*
X141174789Y-95624357D01*
X141174792Y-95624355D01*
X141179300Y-95621198D01*
X141341198Y-95459300D01*
X141354221Y-95440702D01*
X141400424Y-95374717D01*
X141472523Y-95271749D01*
X141474846Y-95266767D01*
X141474849Y-95266762D01*
X141566961Y-95069225D01*
X141566961Y-95069224D01*
X141569284Y-95064243D01*
X141573134Y-95049877D01*
X141627119Y-94848402D01*
X141627119Y-94848400D01*
X141628543Y-94843087D01*
X141648498Y-94615000D01*
X141628543Y-94386913D01*
X141612883Y-94328469D01*
X141570707Y-94171067D01*
X141570706Y-94171065D01*
X141569284Y-94165757D01*
X141554147Y-94133295D01*
X141515323Y-94050034D01*
X141504662Y-93979842D01*
X141533643Y-93915030D01*
X141593063Y-93876174D01*
X141664057Y-93875611D01*
X141693658Y-93888332D01*
X141790782Y-93945772D01*
X141805217Y-93952019D01*
X141947436Y-93993338D01*
X141960023Y-93995637D01*
X141967943Y-93996260D01*
X141983030Y-93993090D01*
X141986000Y-93981626D01*
X141986000Y-93979566D01*
X142494000Y-93979566D01*
X142498344Y-93994361D01*
X142510003Y-93996421D01*
X142519977Y-93995637D01*
X142532564Y-93993338D01*
X142674783Y-93952019D01*
X142689222Y-93945770D01*
X142815405Y-93871146D01*
X142827841Y-93861499D01*
X142931499Y-93757841D01*
X142941146Y-93745405D01*
X143015770Y-93619222D01*
X143022019Y-93604783D01*
X143054961Y-93491395D01*
X143054921Y-93477295D01*
X143047651Y-93474000D01*
X142512115Y-93474000D01*
X142496876Y-93478475D01*
X142495671Y-93479865D01*
X142494000Y-93487548D01*
X142494000Y-93979566D01*
X141986000Y-93979566D01*
X141986000Y-93492115D01*
X141981525Y-93476876D01*
X141980135Y-93475671D01*
X141972452Y-93474000D01*
X141438100Y-93474000D01*
X141424569Y-93477973D01*
X141423434Y-93485871D01*
X141436835Y-93531997D01*
X141436632Y-93602993D01*
X141398079Y-93662609D01*
X141333414Y-93691918D01*
X141263169Y-93681614D01*
X141226743Y-93656245D01*
X141179300Y-93608802D01*
X141174792Y-93605645D01*
X141174789Y-93605643D01*
X141080401Y-93539552D01*
X140991749Y-93477477D01*
X140986767Y-93475154D01*
X140986762Y-93475151D01*
X140952543Y-93459195D01*
X140899258Y-93412278D01*
X140879797Y-93344001D01*
X140900339Y-93276041D01*
X140952543Y-93230805D01*
X140986762Y-93214849D01*
X140986767Y-93214846D01*
X140991749Y-93212523D01*
X141096611Y-93139098D01*
X141174789Y-93084357D01*
X141174792Y-93084355D01*
X141179300Y-93081198D01*
X141275819Y-92984679D01*
X141338131Y-92950653D01*
X141408946Y-92955718D01*
X141416928Y-92959011D01*
X141432348Y-92966000D01*
X141902458Y-92966000D01*
X141937610Y-92971003D01*
X141947353Y-92973834D01*
X141947360Y-92973835D01*
X141953534Y-92975629D01*
X141959941Y-92976133D01*
X141959945Y-92976134D01*
X141987556Y-92978307D01*
X141987562Y-92978307D01*
X141990011Y-92978500D01*
X142239848Y-92978500D01*
X142489988Y-92978499D01*
X142526466Y-92975629D01*
X142532648Y-92973833D01*
X142532653Y-92973832D01*
X142542390Y-92971003D01*
X142577542Y-92966000D01*
X143041900Y-92966000D01*
X143055431Y-92962027D01*
X143056566Y-92954129D01*
X143022019Y-92835217D01*
X143015771Y-92820780D01*
X142988478Y-92774630D01*
X142971018Y-92705813D01*
X142988477Y-92646354D01*
X143020269Y-92592596D01*
X143065629Y-92436466D01*
X143067092Y-92417885D01*
X143068307Y-92402444D01*
X143068307Y-92402438D01*
X143068500Y-92399989D01*
X143068499Y-92000012D01*
X143065629Y-91963534D01*
X143033339Y-91852391D01*
X143022481Y-91815017D01*
X143022480Y-91815015D01*
X143020269Y-91807404D01*
X142997952Y-91769667D01*
X142941540Y-91674280D01*
X142937506Y-91667459D01*
X142822541Y-91552494D01*
X142682596Y-91469731D01*
X142674985Y-91467520D01*
X142674983Y-91467519D01*
X142532644Y-91426166D01*
X142532645Y-91426166D01*
X142526466Y-91424371D01*
X142520059Y-91423867D01*
X142520055Y-91423866D01*
X142492444Y-91421693D01*
X142492438Y-91421693D01*
X142489989Y-91421500D01*
X142409595Y-91421500D01*
X142341474Y-91401498D01*
X142320500Y-91384595D01*
X142275405Y-91339500D01*
X142241379Y-91277188D01*
X142238500Y-91250405D01*
X142238500Y-90883767D01*
X142239027Y-90872584D01*
X142240702Y-90865091D01*
X142238562Y-90797014D01*
X142238500Y-90793055D01*
X142238500Y-90765144D01*
X142237995Y-90761144D01*
X142237062Y-90749301D01*
X142235922Y-90713029D01*
X142235673Y-90705110D01*
X142230022Y-90685658D01*
X142226014Y-90666306D01*
X142224467Y-90654063D01*
X142223474Y-90646203D01*
X142220556Y-90638832D01*
X142207200Y-90605097D01*
X142203355Y-90593870D01*
X142200169Y-90582905D01*
X142191018Y-90551407D01*
X142186984Y-90544585D01*
X142186981Y-90544579D01*
X142180706Y-90533968D01*
X142172010Y-90516218D01*
X142167472Y-90504756D01*
X142167469Y-90504751D01*
X142164552Y-90497383D01*
X142138573Y-90461625D01*
X142132057Y-90451707D01*
X142113575Y-90420457D01*
X142109542Y-90413637D01*
X142095218Y-90399313D01*
X142082376Y-90384278D01*
X142078827Y-90379393D01*
X142070472Y-90367893D01*
X142036406Y-90339711D01*
X142027627Y-90331722D01*
X141644152Y-89948247D01*
X141622248Y-89908134D01*
X143361500Y-89908134D01*
X143368255Y-89970316D01*
X143419385Y-90106705D01*
X143506739Y-90223261D01*
X143623295Y-90310615D01*
X143759684Y-90361745D01*
X143821866Y-90368500D01*
X144391657Y-90368500D01*
X144442905Y-90379393D01*
X144491677Y-90401108D01*
X144491685Y-90401111D01*
X144497712Y-90403794D01*
X144576105Y-90420457D01*
X144678056Y-90442128D01*
X144678061Y-90442128D01*
X144684513Y-90443500D01*
X144875487Y-90443500D01*
X144881939Y-90442128D01*
X144881944Y-90442128D01*
X144983895Y-90420457D01*
X145062288Y-90403794D01*
X145068315Y-90401111D01*
X145068323Y-90401108D01*
X145117095Y-90379393D01*
X145168343Y-90368500D01*
X145418134Y-90368500D01*
X145480316Y-90361745D01*
X145616705Y-90310615D01*
X145733261Y-90223261D01*
X145820615Y-90106705D01*
X145871745Y-89970316D01*
X145878500Y-89908134D01*
X145878500Y-89161866D01*
X145871745Y-89099684D01*
X145854024Y-89052414D01*
X145823766Y-88971699D01*
X145823764Y-88971696D01*
X145820615Y-88963295D01*
X145817029Y-88958510D01*
X145802182Y-88890626D01*
X145817351Y-88838965D01*
X145823323Y-88828058D01*
X145868478Y-88707606D01*
X145872105Y-88692351D01*
X145877631Y-88641486D01*
X145878000Y-88634672D01*
X145878000Y-88537115D01*
X145873525Y-88521876D01*
X145872135Y-88520671D01*
X145864452Y-88519000D01*
X143380116Y-88519000D01*
X143364877Y-88523475D01*
X143363672Y-88524865D01*
X143362001Y-88532548D01*
X143362001Y-88634669D01*
X143362371Y-88641490D01*
X143367895Y-88692352D01*
X143371521Y-88707604D01*
X143416677Y-88828058D01*
X143422649Y-88838965D01*
X143437818Y-88908322D01*
X143423153Y-88958268D01*
X143419385Y-88963295D01*
X143416236Y-88971696D01*
X143416234Y-88971699D01*
X143385976Y-89052414D01*
X143368255Y-89099684D01*
X143361500Y-89161866D01*
X143361500Y-89908134D01*
X141622248Y-89908134D01*
X141610126Y-89885935D01*
X141611540Y-89826541D01*
X141618594Y-89800215D01*
X141628543Y-89763087D01*
X141648498Y-89535000D01*
X141628543Y-89306913D01*
X141622108Y-89282897D01*
X141570707Y-89091067D01*
X141570706Y-89091065D01*
X141569284Y-89085757D01*
X141559015Y-89063735D01*
X141474849Y-88883238D01*
X141474846Y-88883233D01*
X141472523Y-88878251D01*
X141353036Y-88707606D01*
X141344357Y-88695211D01*
X141344355Y-88695208D01*
X141341198Y-88690700D01*
X141179300Y-88528802D01*
X141174792Y-88525645D01*
X141174789Y-88525643D01*
X141066352Y-88449715D01*
X140991749Y-88397477D01*
X140986767Y-88395154D01*
X140986762Y-88395151D01*
X140952543Y-88379195D01*
X140899258Y-88332278D01*
X140879797Y-88264001D01*
X140900339Y-88196041D01*
X140952543Y-88150805D01*
X140986762Y-88134849D01*
X140986767Y-88134846D01*
X140991749Y-88132523D01*
X141109932Y-88049770D01*
X141174789Y-88004357D01*
X141174792Y-88004355D01*
X141179300Y-88001198D01*
X141341198Y-87839300D01*
X141347932Y-87829684D01*
X141437377Y-87701942D01*
X141472523Y-87651749D01*
X141474846Y-87646767D01*
X141474849Y-87646762D01*
X141566961Y-87449225D01*
X141566961Y-87449224D01*
X141569284Y-87444243D01*
X141581959Y-87396942D01*
X141589678Y-87368134D01*
X143361500Y-87368134D01*
X143368255Y-87430316D01*
X143419385Y-87566705D01*
X143422971Y-87571490D01*
X143437818Y-87639374D01*
X143422649Y-87691035D01*
X143416677Y-87701942D01*
X143371522Y-87822394D01*
X143367895Y-87837649D01*
X143362369Y-87888514D01*
X143362000Y-87895328D01*
X143362000Y-87992885D01*
X143366475Y-88008124D01*
X143367865Y-88009329D01*
X143375548Y-88011000D01*
X145859884Y-88011000D01*
X145875123Y-88006525D01*
X145876328Y-88005135D01*
X145877999Y-87997452D01*
X145877999Y-87895331D01*
X145877629Y-87888510D01*
X145872105Y-87837648D01*
X145868479Y-87822396D01*
X145823323Y-87701942D01*
X145817351Y-87691035D01*
X145802182Y-87621678D01*
X145816847Y-87571732D01*
X145820615Y-87566705D01*
X145871745Y-87430316D01*
X145878500Y-87368134D01*
X145878500Y-86621866D01*
X145871745Y-86559684D01*
X145845247Y-86489000D01*
X145823766Y-86431699D01*
X145823764Y-86431696D01*
X145820615Y-86423295D01*
X145817029Y-86418510D01*
X145802182Y-86350626D01*
X145817351Y-86298965D01*
X145823323Y-86288058D01*
X145868478Y-86167606D01*
X145872105Y-86152351D01*
X145877631Y-86101486D01*
X145878000Y-86094672D01*
X145878000Y-85997115D01*
X145873525Y-85981876D01*
X145872135Y-85980671D01*
X145864452Y-85979000D01*
X143380116Y-85979000D01*
X143364877Y-85983475D01*
X143363672Y-85984865D01*
X143362001Y-85992548D01*
X143362001Y-86094669D01*
X143362371Y-86101490D01*
X143367895Y-86152352D01*
X143371521Y-86167604D01*
X143416677Y-86288058D01*
X143422649Y-86298965D01*
X143437818Y-86368322D01*
X143423153Y-86418268D01*
X143419385Y-86423295D01*
X143416236Y-86431696D01*
X143416234Y-86431699D01*
X143394753Y-86489000D01*
X143368255Y-86559684D01*
X143361500Y-86621866D01*
X143361500Y-87368134D01*
X141589678Y-87368134D01*
X141627119Y-87228402D01*
X141627119Y-87228400D01*
X141628543Y-87223087D01*
X141648498Y-86995000D01*
X141628543Y-86766913D01*
X141608989Y-86693938D01*
X141570707Y-86551067D01*
X141570706Y-86551065D01*
X141569284Y-86545757D01*
X141551265Y-86507115D01*
X141474849Y-86343238D01*
X141474846Y-86343233D01*
X141472523Y-86338251D01*
X141377287Y-86202240D01*
X141344357Y-86155211D01*
X141344355Y-86155208D01*
X141341198Y-86150700D01*
X141179300Y-85988802D01*
X141174792Y-85985645D01*
X141174789Y-85985643D01*
X140998931Y-85862506D01*
X140991749Y-85857477D01*
X140986767Y-85855154D01*
X140986762Y-85855151D01*
X140952543Y-85839195D01*
X140899258Y-85792278D01*
X140879797Y-85724001D01*
X140900339Y-85656041D01*
X140952543Y-85610805D01*
X140986762Y-85594849D01*
X140986767Y-85594846D01*
X140991749Y-85592523D01*
X141096611Y-85519098D01*
X141174789Y-85464357D01*
X141174792Y-85464355D01*
X141179300Y-85461198D01*
X141187613Y-85452885D01*
X143362000Y-85452885D01*
X143366475Y-85468124D01*
X143367865Y-85469329D01*
X143375548Y-85471000D01*
X144347885Y-85471000D01*
X144363124Y-85466525D01*
X144364329Y-85465135D01*
X144366000Y-85457452D01*
X144366000Y-85452885D01*
X144874000Y-85452885D01*
X144878475Y-85468124D01*
X144879865Y-85469329D01*
X144887548Y-85471000D01*
X145859884Y-85471000D01*
X145875123Y-85466525D01*
X145876328Y-85465135D01*
X145877999Y-85457452D01*
X145877999Y-85355331D01*
X145877629Y-85348510D01*
X145872105Y-85297648D01*
X145868479Y-85282396D01*
X145823324Y-85161946D01*
X145814786Y-85146351D01*
X145738285Y-85044276D01*
X145725724Y-85031715D01*
X145623649Y-84955214D01*
X145608054Y-84946676D01*
X145487606Y-84901522D01*
X145472351Y-84897895D01*
X145421486Y-84892369D01*
X145414672Y-84892000D01*
X144892115Y-84892000D01*
X144876876Y-84896475D01*
X144875671Y-84897865D01*
X144874000Y-84905548D01*
X144874000Y-85452885D01*
X144366000Y-85452885D01*
X144366000Y-84910116D01*
X144361525Y-84894877D01*
X144360135Y-84893672D01*
X144352452Y-84892001D01*
X143825331Y-84892001D01*
X143818510Y-84892371D01*
X143767648Y-84897895D01*
X143752396Y-84901521D01*
X143631946Y-84946676D01*
X143616351Y-84955214D01*
X143514276Y-85031715D01*
X143501715Y-85044276D01*
X143425214Y-85146351D01*
X143416676Y-85161946D01*
X143371522Y-85282394D01*
X143367895Y-85297649D01*
X143362369Y-85348514D01*
X143362000Y-85355328D01*
X143362000Y-85452885D01*
X141187613Y-85452885D01*
X141341198Y-85299300D01*
X141347932Y-85289684D01*
X141408326Y-85203432D01*
X141472523Y-85111749D01*
X141474846Y-85106767D01*
X141474849Y-85106762D01*
X141566961Y-84909225D01*
X141566961Y-84909224D01*
X141569284Y-84904243D01*
X141570889Y-84898255D01*
X141627119Y-84688402D01*
X141627119Y-84688400D01*
X141628543Y-84683087D01*
X141648498Y-84455000D01*
X141628543Y-84226913D01*
X141611265Y-84162432D01*
X141570707Y-84011067D01*
X141570706Y-84011065D01*
X141569284Y-84005757D01*
X141525450Y-83911753D01*
X141474849Y-83803238D01*
X141474846Y-83803233D01*
X141472523Y-83798251D01*
X141353112Y-83627715D01*
X141344357Y-83615211D01*
X141344355Y-83615208D01*
X141341198Y-83610700D01*
X141288632Y-83558134D01*
X143361500Y-83558134D01*
X143368255Y-83620316D01*
X143419385Y-83756705D01*
X143506739Y-83873261D01*
X143623295Y-83960615D01*
X143759684Y-84011745D01*
X143821866Y-84018500D01*
X144391657Y-84018500D01*
X144442905Y-84029393D01*
X144491677Y-84051108D01*
X144491685Y-84051111D01*
X144497712Y-84053794D01*
X144558957Y-84066812D01*
X144678056Y-84092128D01*
X144678061Y-84092128D01*
X144684513Y-84093500D01*
X144875487Y-84093500D01*
X144881939Y-84092128D01*
X144881944Y-84092128D01*
X145001043Y-84066812D01*
X145062288Y-84053794D01*
X145068315Y-84051111D01*
X145068323Y-84051108D01*
X145117095Y-84029393D01*
X145168343Y-84018500D01*
X145418134Y-84018500D01*
X145480316Y-84011745D01*
X145616705Y-83960615D01*
X145733261Y-83873261D01*
X145820615Y-83756705D01*
X145871745Y-83620316D01*
X145878500Y-83558134D01*
X145878500Y-82811866D01*
X145871745Y-82749684D01*
X145848678Y-82688154D01*
X145823766Y-82621699D01*
X145823764Y-82621696D01*
X145820615Y-82613295D01*
X145817029Y-82608510D01*
X145802182Y-82540626D01*
X145817351Y-82488965D01*
X145823323Y-82478058D01*
X145868478Y-82357606D01*
X145872105Y-82342351D01*
X145877631Y-82291486D01*
X145878000Y-82284672D01*
X145878000Y-82187115D01*
X145873525Y-82171876D01*
X145872135Y-82170671D01*
X145864452Y-82169000D01*
X143380116Y-82169000D01*
X143364877Y-82173475D01*
X143363672Y-82174865D01*
X143362001Y-82182548D01*
X143362001Y-82284669D01*
X143362371Y-82291490D01*
X143367895Y-82342352D01*
X143371521Y-82357604D01*
X143416677Y-82478058D01*
X143422649Y-82488965D01*
X143437818Y-82558322D01*
X143423153Y-82608268D01*
X143419385Y-82613295D01*
X143416236Y-82621696D01*
X143416234Y-82621699D01*
X143391322Y-82688154D01*
X143368255Y-82749684D01*
X143361500Y-82811866D01*
X143361500Y-83558134D01*
X141288632Y-83558134D01*
X141179300Y-83448802D01*
X141174792Y-83445645D01*
X141174789Y-83445643D01*
X141052966Y-83360342D01*
X140991749Y-83317477D01*
X140986767Y-83315154D01*
X140986762Y-83315151D01*
X140952543Y-83299195D01*
X140899258Y-83252278D01*
X140879797Y-83184001D01*
X140900339Y-83116041D01*
X140952543Y-83070805D01*
X140986762Y-83054849D01*
X140986767Y-83054846D01*
X140991749Y-83052523D01*
X141134459Y-82952596D01*
X141174789Y-82924357D01*
X141174792Y-82924355D01*
X141179300Y-82921198D01*
X141341198Y-82759300D01*
X141347932Y-82749684D01*
X141410010Y-82661027D01*
X141472523Y-82571749D01*
X141474846Y-82566767D01*
X141474849Y-82566762D01*
X141566961Y-82369225D01*
X141566961Y-82369224D01*
X141569284Y-82364243D01*
X141570889Y-82358255D01*
X141627119Y-82148402D01*
X141627119Y-82148400D01*
X141628543Y-82143087D01*
X141641401Y-81996121D01*
X141667265Y-81930003D01*
X141724768Y-81888364D01*
X141802075Y-81886106D01*
X141947436Y-81928338D01*
X141960023Y-81930637D01*
X141967943Y-81931260D01*
X141983030Y-81928090D01*
X141986000Y-81916626D01*
X141986000Y-81914566D01*
X142494000Y-81914566D01*
X142498344Y-81929361D01*
X142510003Y-81931421D01*
X142519977Y-81930637D01*
X142532564Y-81928338D01*
X142674783Y-81887019D01*
X142689222Y-81880770D01*
X142815405Y-81806146D01*
X142827841Y-81796499D01*
X142931499Y-81692841D01*
X142941146Y-81680405D01*
X143015770Y-81554222D01*
X143022019Y-81539783D01*
X143054961Y-81426395D01*
X143054921Y-81412295D01*
X143047651Y-81409000D01*
X142512115Y-81409000D01*
X142496876Y-81413475D01*
X142495671Y-81414865D01*
X142494000Y-81422548D01*
X142494000Y-81914566D01*
X141986000Y-81914566D01*
X141986000Y-81039500D01*
X141992274Y-81018134D01*
X143361500Y-81018134D01*
X143368255Y-81080316D01*
X143371029Y-81087715D01*
X143401680Y-81169476D01*
X143419385Y-81216705D01*
X143422971Y-81221490D01*
X143437818Y-81289374D01*
X143422649Y-81341035D01*
X143416677Y-81351942D01*
X143371522Y-81472394D01*
X143367895Y-81487649D01*
X143362369Y-81538514D01*
X143362000Y-81545328D01*
X143362000Y-81642885D01*
X143366475Y-81658124D01*
X143367865Y-81659329D01*
X143375548Y-81661000D01*
X145859884Y-81661000D01*
X145875123Y-81656525D01*
X145876328Y-81655135D01*
X145877999Y-81647452D01*
X145877999Y-81545331D01*
X145877629Y-81538510D01*
X145872105Y-81487648D01*
X145868479Y-81472396D01*
X145823323Y-81351942D01*
X145817351Y-81341035D01*
X145802182Y-81271678D01*
X145816847Y-81221732D01*
X145820615Y-81216705D01*
X145838321Y-81169476D01*
X145868971Y-81087715D01*
X145871745Y-81080316D01*
X145878500Y-81018134D01*
X145878500Y-80271866D01*
X145871745Y-80209684D01*
X145837186Y-80117497D01*
X145823766Y-80081699D01*
X145823764Y-80081696D01*
X145820615Y-80073295D01*
X145817029Y-80068510D01*
X145802182Y-80000626D01*
X145817351Y-79948965D01*
X145823323Y-79938058D01*
X145868478Y-79817606D01*
X145872105Y-79802351D01*
X145877631Y-79751486D01*
X145878000Y-79744672D01*
X145878000Y-79647115D01*
X145873525Y-79631876D01*
X145872135Y-79630671D01*
X145864452Y-79629000D01*
X143380116Y-79629000D01*
X143364877Y-79633475D01*
X143363672Y-79634865D01*
X143362001Y-79642548D01*
X143362001Y-79744669D01*
X143362371Y-79751490D01*
X143367895Y-79802352D01*
X143371521Y-79817604D01*
X143416677Y-79938058D01*
X143422649Y-79948965D01*
X143437818Y-80018322D01*
X143423153Y-80068268D01*
X143419385Y-80073295D01*
X143416236Y-80081696D01*
X143416234Y-80081699D01*
X143402814Y-80117497D01*
X143368255Y-80209684D01*
X143361500Y-80271866D01*
X143361500Y-81018134D01*
X141992274Y-81018134D01*
X142006002Y-80971379D01*
X142059658Y-80924886D01*
X142112000Y-80913500D01*
X142480058Y-80913499D01*
X142489988Y-80913499D01*
X142526466Y-80910629D01*
X142532648Y-80908833D01*
X142532653Y-80908832D01*
X142542390Y-80906003D01*
X142577542Y-80901000D01*
X143041900Y-80901000D01*
X143055431Y-80897027D01*
X143056566Y-80889129D01*
X143022019Y-80770217D01*
X143015771Y-80755780D01*
X142988478Y-80709630D01*
X142971018Y-80640813D01*
X142988477Y-80581354D01*
X143020269Y-80527596D01*
X143023973Y-80514849D01*
X143055313Y-80406973D01*
X143065629Y-80371466D01*
X143066272Y-80363307D01*
X143068307Y-80337444D01*
X143068307Y-80337438D01*
X143068500Y-80334989D01*
X143068499Y-79935012D01*
X143065629Y-79898534D01*
X143030727Y-79778401D01*
X143022481Y-79750017D01*
X143022480Y-79750015D01*
X143020269Y-79742404D01*
X142961215Y-79642548D01*
X142941540Y-79609280D01*
X142937506Y-79602459D01*
X142822541Y-79487494D01*
X142809915Y-79480027D01*
X142689419Y-79408766D01*
X142689418Y-79408766D01*
X142682596Y-79404731D01*
X142674985Y-79402520D01*
X142674983Y-79402519D01*
X142578540Y-79374500D01*
X142526466Y-79359371D01*
X142520059Y-79358867D01*
X142520055Y-79358866D01*
X142492444Y-79356693D01*
X142492438Y-79356693D01*
X142489989Y-79356500D01*
X142240152Y-79356500D01*
X141990012Y-79356501D01*
X141953534Y-79359371D01*
X141802030Y-79403387D01*
X141731034Y-79403184D01*
X141671417Y-79364630D01*
X141641356Y-79293371D01*
X141641085Y-79290264D01*
X141634643Y-79216632D01*
X141629023Y-79152394D01*
X141629022Y-79152389D01*
X141628543Y-79146913D01*
X141620028Y-79115135D01*
X141616746Y-79102885D01*
X143362000Y-79102885D01*
X143366475Y-79118124D01*
X143367865Y-79119329D01*
X143375548Y-79121000D01*
X144347885Y-79121000D01*
X144363124Y-79116525D01*
X144364329Y-79115135D01*
X144366000Y-79107452D01*
X144366000Y-79102885D01*
X144874000Y-79102885D01*
X144878475Y-79118124D01*
X144879865Y-79119329D01*
X144887548Y-79121000D01*
X145859884Y-79121000D01*
X145875123Y-79116525D01*
X145876328Y-79115135D01*
X145877999Y-79107452D01*
X145877999Y-79005331D01*
X145877629Y-78998510D01*
X145872105Y-78947648D01*
X145868479Y-78932396D01*
X145823324Y-78811946D01*
X145814786Y-78796351D01*
X145738285Y-78694276D01*
X145725724Y-78681715D01*
X145623649Y-78605214D01*
X145608054Y-78596676D01*
X145487606Y-78551522D01*
X145472351Y-78547895D01*
X145421486Y-78542369D01*
X145414672Y-78542000D01*
X144892115Y-78542000D01*
X144876876Y-78546475D01*
X144875671Y-78547865D01*
X144874000Y-78555548D01*
X144874000Y-79102885D01*
X144366000Y-79102885D01*
X144366000Y-78560116D01*
X144361525Y-78544877D01*
X144360135Y-78543672D01*
X144352452Y-78542001D01*
X143825331Y-78542001D01*
X143818510Y-78542371D01*
X143767648Y-78547895D01*
X143752396Y-78551521D01*
X143631946Y-78596676D01*
X143616351Y-78605214D01*
X143514276Y-78681715D01*
X143501715Y-78694276D01*
X143425214Y-78796351D01*
X143416676Y-78811946D01*
X143371522Y-78932394D01*
X143367895Y-78947649D01*
X143362369Y-78998514D01*
X143362000Y-79005328D01*
X143362000Y-79102885D01*
X141616746Y-79102885D01*
X141570707Y-78931067D01*
X141570706Y-78931065D01*
X141569284Y-78925757D01*
X141566961Y-78920775D01*
X141474849Y-78723238D01*
X141474846Y-78723233D01*
X141472523Y-78718251D01*
X141415087Y-78636224D01*
X141344357Y-78535211D01*
X141344355Y-78535208D01*
X141341198Y-78530700D01*
X141179300Y-78368802D01*
X141174792Y-78365645D01*
X141174789Y-78365643D01*
X141066352Y-78289715D01*
X140991749Y-78237477D01*
X140986767Y-78235154D01*
X140986762Y-78235151D01*
X140952543Y-78219195D01*
X140899258Y-78172278D01*
X140879797Y-78104001D01*
X140900339Y-78036041D01*
X140952543Y-77990805D01*
X140986762Y-77974849D01*
X140986767Y-77974846D01*
X140991749Y-77972523D01*
X141117129Y-77884731D01*
X141174789Y-77844357D01*
X141174792Y-77844355D01*
X141179300Y-77841198D01*
X141341198Y-77679300D01*
X141348761Y-77668500D01*
X141452586Y-77520222D01*
X141508043Y-77475894D01*
X141551839Y-77466555D01*
X141571970Y-77465922D01*
X141579889Y-77465673D01*
X141599343Y-77460021D01*
X141618700Y-77456013D01*
X141630930Y-77454468D01*
X141630931Y-77454468D01*
X141638797Y-77453474D01*
X141646168Y-77450555D01*
X141646170Y-77450555D01*
X141679912Y-77437196D01*
X141691142Y-77433351D01*
X141725983Y-77423229D01*
X141725984Y-77423229D01*
X141733593Y-77421018D01*
X141740412Y-77416985D01*
X141740417Y-77416983D01*
X141751028Y-77410707D01*
X141768776Y-77402012D01*
X141787617Y-77394552D01*
X141823387Y-77368564D01*
X141833307Y-77362048D01*
X141864535Y-77343580D01*
X141864538Y-77343578D01*
X141871362Y-77339542D01*
X141885683Y-77325221D01*
X141900717Y-77312380D01*
X141910694Y-77305131D01*
X141917107Y-77300472D01*
X141945298Y-77266395D01*
X141953288Y-77257616D01*
X142002770Y-77208134D01*
X143361500Y-77208134D01*
X143368255Y-77270316D01*
X143419385Y-77406705D01*
X143506739Y-77523261D01*
X143623295Y-77610615D01*
X143759684Y-77661745D01*
X143821866Y-77668500D01*
X144391657Y-77668500D01*
X144442905Y-77679393D01*
X144491677Y-77701108D01*
X144491685Y-77701111D01*
X144497712Y-77703794D01*
X144591113Y-77723647D01*
X144678056Y-77742128D01*
X144678061Y-77742128D01*
X144684513Y-77743500D01*
X144875487Y-77743500D01*
X144881939Y-77742128D01*
X144881944Y-77742128D01*
X144968887Y-77723647D01*
X145062288Y-77703794D01*
X145068315Y-77701111D01*
X145068323Y-77701108D01*
X145117095Y-77679393D01*
X145168343Y-77668500D01*
X145418134Y-77668500D01*
X145480316Y-77661745D01*
X145616705Y-77610615D01*
X145733261Y-77523261D01*
X145820615Y-77406705D01*
X145871745Y-77270316D01*
X145878500Y-77208134D01*
X145878500Y-76461866D01*
X145871745Y-76399684D01*
X145846410Y-76332104D01*
X145823766Y-76271699D01*
X145823764Y-76271696D01*
X145820615Y-76263295D01*
X145817029Y-76258510D01*
X145802182Y-76190626D01*
X145817351Y-76138965D01*
X145823323Y-76128058D01*
X145868478Y-76007606D01*
X145872105Y-75992351D01*
X145877631Y-75941486D01*
X145878000Y-75934672D01*
X145878000Y-75837115D01*
X145873525Y-75821876D01*
X145872135Y-75820671D01*
X145864452Y-75819000D01*
X143380116Y-75819000D01*
X143364877Y-75823475D01*
X143363672Y-75824865D01*
X143362001Y-75832548D01*
X143362001Y-75934669D01*
X143362371Y-75941490D01*
X143367895Y-75992352D01*
X143371521Y-76007604D01*
X143416677Y-76128058D01*
X143422649Y-76138965D01*
X143437818Y-76208322D01*
X143423153Y-76258268D01*
X143419385Y-76263295D01*
X143416236Y-76271696D01*
X143416234Y-76271699D01*
X143393590Y-76332104D01*
X143368255Y-76399684D01*
X143361500Y-76461866D01*
X143361500Y-77208134D01*
X142002770Y-77208134D01*
X142320500Y-76890404D01*
X142382812Y-76856378D01*
X142409595Y-76853499D01*
X142489988Y-76853499D01*
X142526466Y-76850629D01*
X142636783Y-76818579D01*
X142674983Y-76807481D01*
X142674985Y-76807480D01*
X142682596Y-76805269D01*
X142822541Y-76722506D01*
X142937506Y-76607541D01*
X142984779Y-76527606D01*
X143016234Y-76474419D01*
X143016234Y-76474418D01*
X143020269Y-76467596D01*
X143065629Y-76311466D01*
X143068500Y-76274989D01*
X143068499Y-75875012D01*
X143065629Y-75838534D01*
X143024648Y-75697477D01*
X143022481Y-75690017D01*
X143022480Y-75690015D01*
X143020269Y-75682404D01*
X142988477Y-75628647D01*
X142971018Y-75559834D01*
X142988478Y-75500370D01*
X143015771Y-75454220D01*
X143022019Y-75439783D01*
X143054961Y-75326395D01*
X143054921Y-75312295D01*
X143047651Y-75309000D01*
X142577542Y-75309000D01*
X142542390Y-75303997D01*
X142532647Y-75301166D01*
X142532640Y-75301165D01*
X142526466Y-75299371D01*
X142520059Y-75298867D01*
X142520055Y-75298866D01*
X142492444Y-75296693D01*
X142492438Y-75296693D01*
X142489989Y-75296500D01*
X142480070Y-75296500D01*
X142111999Y-75296501D01*
X142043880Y-75276499D01*
X141997387Y-75222844D01*
X141986000Y-75170501D01*
X141986000Y-74782885D01*
X142494000Y-74782885D01*
X142498475Y-74798124D01*
X142499865Y-74799329D01*
X142507548Y-74801000D01*
X143041900Y-74801000D01*
X143055431Y-74797027D01*
X143056566Y-74789129D01*
X143022019Y-74670217D01*
X143021118Y-74668134D01*
X143361500Y-74668134D01*
X143368255Y-74730316D01*
X143419385Y-74866705D01*
X143422971Y-74871490D01*
X143437818Y-74939374D01*
X143422649Y-74991035D01*
X143416677Y-75001942D01*
X143371522Y-75122394D01*
X143367895Y-75137649D01*
X143362369Y-75188514D01*
X143362000Y-75195328D01*
X143362000Y-75292885D01*
X143366475Y-75308124D01*
X143367865Y-75309329D01*
X143375548Y-75311000D01*
X145859884Y-75311000D01*
X145875123Y-75306525D01*
X145876328Y-75305135D01*
X145877999Y-75297452D01*
X145877999Y-75195331D01*
X145877629Y-75188510D01*
X145872105Y-75137648D01*
X145868479Y-75122396D01*
X145823323Y-75001942D01*
X145817351Y-74991035D01*
X145802182Y-74921678D01*
X145816847Y-74871732D01*
X145820615Y-74866705D01*
X145871745Y-74730316D01*
X145878500Y-74668134D01*
X145878500Y-73921866D01*
X145871745Y-73859684D01*
X145854024Y-73812414D01*
X145823766Y-73731699D01*
X145823764Y-73731696D01*
X145820615Y-73723295D01*
X145817029Y-73718510D01*
X145802182Y-73650626D01*
X145817351Y-73598965D01*
X145823323Y-73588058D01*
X145868478Y-73467606D01*
X145872105Y-73452351D01*
X145877631Y-73401486D01*
X145878000Y-73394672D01*
X145878000Y-73297115D01*
X145873525Y-73281876D01*
X145872135Y-73280671D01*
X145864452Y-73279000D01*
X143380116Y-73279000D01*
X143364877Y-73283475D01*
X143363672Y-73284865D01*
X143362001Y-73292548D01*
X143362001Y-73394669D01*
X143362371Y-73401490D01*
X143367895Y-73452352D01*
X143371521Y-73467604D01*
X143416677Y-73588058D01*
X143422649Y-73598965D01*
X143437818Y-73668322D01*
X143423153Y-73718268D01*
X143419385Y-73723295D01*
X143416236Y-73731696D01*
X143416234Y-73731699D01*
X143385976Y-73812414D01*
X143368255Y-73859684D01*
X143361500Y-73921866D01*
X143361500Y-74668134D01*
X143021118Y-74668134D01*
X143015770Y-74655778D01*
X142941146Y-74529595D01*
X142931499Y-74517159D01*
X142827841Y-74413501D01*
X142815405Y-74403854D01*
X142689222Y-74329230D01*
X142674783Y-74322981D01*
X142532564Y-74281662D01*
X142519977Y-74279363D01*
X142512057Y-74278740D01*
X142496970Y-74281910D01*
X142494000Y-74293374D01*
X142494000Y-74782885D01*
X141986000Y-74782885D01*
X141986000Y-74295434D01*
X141981656Y-74280639D01*
X141969997Y-74278579D01*
X141960023Y-74279363D01*
X141947436Y-74281662D01*
X141802075Y-74323894D01*
X141731079Y-74323691D01*
X141671462Y-74285137D01*
X141641401Y-74213879D01*
X141629022Y-74072393D01*
X141628543Y-74066913D01*
X141590593Y-73925283D01*
X141570707Y-73851067D01*
X141570706Y-73851065D01*
X141569284Y-73845757D01*
X141566961Y-73840775D01*
X141474849Y-73643238D01*
X141474846Y-73643233D01*
X141472523Y-73638251D01*
X141353036Y-73467606D01*
X141344357Y-73455211D01*
X141344355Y-73455208D01*
X141341198Y-73450700D01*
X141179300Y-73288802D01*
X141174792Y-73285645D01*
X141174789Y-73285643D01*
X141068303Y-73211081D01*
X140991749Y-73157477D01*
X140986767Y-73155154D01*
X140986762Y-73155151D01*
X140952543Y-73139195D01*
X140899258Y-73092278D01*
X140879797Y-73024001D01*
X140900339Y-72956041D01*
X140952543Y-72910805D01*
X140986762Y-72894849D01*
X140986767Y-72894846D01*
X140991749Y-72892523D01*
X141134459Y-72792596D01*
X141174789Y-72764357D01*
X141174792Y-72764355D01*
X141179300Y-72761198D01*
X141187613Y-72752885D01*
X143362000Y-72752885D01*
X143366475Y-72768124D01*
X143367865Y-72769329D01*
X143375548Y-72771000D01*
X144347885Y-72771000D01*
X144363124Y-72766525D01*
X144364329Y-72765135D01*
X144366000Y-72757452D01*
X144366000Y-72752885D01*
X144874000Y-72752885D01*
X144878475Y-72768124D01*
X144879865Y-72769329D01*
X144887548Y-72771000D01*
X145859884Y-72771000D01*
X145875123Y-72766525D01*
X145876328Y-72765135D01*
X145877999Y-72757452D01*
X145877999Y-72655331D01*
X145877629Y-72648510D01*
X145872105Y-72597648D01*
X145868479Y-72582396D01*
X145823324Y-72461946D01*
X145814786Y-72446351D01*
X145738285Y-72344276D01*
X145725724Y-72331715D01*
X145623649Y-72255214D01*
X145608054Y-72246676D01*
X145487606Y-72201522D01*
X145472351Y-72197895D01*
X145421486Y-72192369D01*
X145414672Y-72192000D01*
X144892115Y-72192000D01*
X144876876Y-72196475D01*
X144875671Y-72197865D01*
X144874000Y-72205548D01*
X144874000Y-72752885D01*
X144366000Y-72752885D01*
X144366000Y-72210116D01*
X144361525Y-72194877D01*
X144360135Y-72193672D01*
X144352452Y-72192001D01*
X143825331Y-72192001D01*
X143818510Y-72192371D01*
X143767648Y-72197895D01*
X143752396Y-72201521D01*
X143631946Y-72246676D01*
X143616351Y-72255214D01*
X143514276Y-72331715D01*
X143501715Y-72344276D01*
X143425214Y-72446351D01*
X143416676Y-72461946D01*
X143371522Y-72582394D01*
X143367895Y-72597649D01*
X143362369Y-72648514D01*
X143362000Y-72655328D01*
X143362000Y-72752885D01*
X141187613Y-72752885D01*
X141341198Y-72599300D01*
X141347932Y-72589684D01*
X141422683Y-72482928D01*
X141472523Y-72411749D01*
X141474846Y-72406767D01*
X141474849Y-72406762D01*
X141566961Y-72209225D01*
X141566961Y-72209224D01*
X141569284Y-72204243D01*
X141570801Y-72198584D01*
X141627119Y-71988402D01*
X141627119Y-71988400D01*
X141628543Y-71983087D01*
X141648498Y-71755000D01*
X141628543Y-71526913D01*
X141617714Y-71486500D01*
X141570707Y-71311067D01*
X141570706Y-71311065D01*
X141569284Y-71305757D01*
X141547580Y-71259212D01*
X141474849Y-71103238D01*
X141474846Y-71103233D01*
X141472523Y-71098251D01*
X141373457Y-70956770D01*
X141350769Y-70889497D01*
X141368054Y-70820637D01*
X141419823Y-70772052D01*
X141476670Y-70758500D01*
X143081497Y-70758500D01*
X143149618Y-70778502D01*
X143170592Y-70795405D01*
X143445019Y-71069832D01*
X143457860Y-71084865D01*
X143466134Y-71096253D01*
X143471043Y-71100673D01*
X143516959Y-71142016D01*
X143521744Y-71146557D01*
X143536259Y-71161072D01*
X143538823Y-71163148D01*
X143552216Y-71173994D01*
X143557231Y-71178278D01*
X143603145Y-71219619D01*
X143603150Y-71219623D01*
X143608056Y-71224040D01*
X143613772Y-71227340D01*
X143613776Y-71227343D01*
X143620237Y-71231073D01*
X143636533Y-71242273D01*
X143647470Y-71251129D01*
X143653348Y-71254124D01*
X143653351Y-71254126D01*
X143708426Y-71282188D01*
X143714223Y-71285336D01*
X143756009Y-71309461D01*
X143773444Y-71319527D01*
X143786826Y-71323875D01*
X143805085Y-71331438D01*
X143817630Y-71337830D01*
X143824000Y-71339537D01*
X143824003Y-71339538D01*
X143863074Y-71350007D01*
X143883712Y-71355537D01*
X143890025Y-71357407D01*
X143955072Y-71378542D01*
X143969075Y-71380014D01*
X143988504Y-71383615D01*
X144002097Y-71387257D01*
X144008694Y-71387603D01*
X144008696Y-71387603D01*
X144070384Y-71390836D01*
X144076958Y-71391353D01*
X144094116Y-71393156D01*
X144094118Y-71393156D01*
X144097390Y-71393500D01*
X144117926Y-71393500D01*
X144124520Y-71393673D01*
X144186218Y-71396907D01*
X144186223Y-71396907D01*
X144192810Y-71397252D01*
X144199326Y-71396220D01*
X144199327Y-71396220D01*
X144206707Y-71395051D01*
X144226417Y-71393500D01*
X147526497Y-71393500D01*
X147594618Y-71413502D01*
X147615592Y-71430405D01*
X148726216Y-72541029D01*
X148760242Y-72603341D01*
X148762383Y-72643737D01*
X148761869Y-72648464D01*
X148761868Y-72648474D01*
X148761500Y-72651866D01*
X148761500Y-73398134D01*
X148768255Y-73460316D01*
X148771029Y-73467715D01*
X148801680Y-73549476D01*
X148819385Y-73596705D01*
X148822727Y-73601164D01*
X148837530Y-73668848D01*
X148822933Y-73718561D01*
X148819385Y-73723295D01*
X148816236Y-73731696D01*
X148816234Y-73731699D01*
X148785976Y-73812414D01*
X148768255Y-73859684D01*
X148761500Y-73921866D01*
X148761500Y-74668134D01*
X148768255Y-74730316D01*
X148819385Y-74866705D01*
X148822727Y-74871164D01*
X148837530Y-74938848D01*
X148822933Y-74988561D01*
X148819385Y-74993295D01*
X148768255Y-75129684D01*
X148761500Y-75191866D01*
X148761500Y-75938134D01*
X148768255Y-76000316D01*
X148771029Y-76007715D01*
X148805961Y-76100896D01*
X148819385Y-76136705D01*
X148822727Y-76141164D01*
X148837530Y-76208848D01*
X148822933Y-76258561D01*
X148819385Y-76263295D01*
X148816236Y-76271696D01*
X148816234Y-76271699D01*
X148793590Y-76332104D01*
X148768255Y-76399684D01*
X148761500Y-76461866D01*
X148761500Y-77208134D01*
X148768255Y-77270316D01*
X148819385Y-77406705D01*
X148906739Y-77523261D01*
X149023295Y-77610615D01*
X149159684Y-77661745D01*
X149221866Y-77668500D01*
X149631657Y-77668500D01*
X149682905Y-77679393D01*
X149731677Y-77701108D01*
X149731685Y-77701111D01*
X149737712Y-77703794D01*
X149831113Y-77723647D01*
X149918056Y-77742128D01*
X149918061Y-77742128D01*
X149924513Y-77743500D01*
X150062497Y-77743500D01*
X150130618Y-77763502D01*
X150177111Y-77817158D01*
X150187215Y-77887432D01*
X150157721Y-77952012D01*
X150151592Y-77958595D01*
X149605592Y-78504595D01*
X149543280Y-78538621D01*
X149516497Y-78541500D01*
X149221866Y-78541500D01*
X149159684Y-78548255D01*
X149023295Y-78599385D01*
X148906739Y-78686739D01*
X148819385Y-78803295D01*
X148768255Y-78939684D01*
X148761500Y-79001866D01*
X148761500Y-79748134D01*
X148768255Y-79810316D01*
X148773476Y-79824243D01*
X148814079Y-79932550D01*
X148819385Y-79946705D01*
X148822727Y-79951164D01*
X148837530Y-80018848D01*
X148822933Y-80068561D01*
X148819385Y-80073295D01*
X148816236Y-80081696D01*
X148816234Y-80081699D01*
X148802814Y-80117497D01*
X148768255Y-80209684D01*
X148761500Y-80271866D01*
X148761500Y-81018134D01*
X148768255Y-81080316D01*
X148771029Y-81087715D01*
X148801680Y-81169476D01*
X148819385Y-81216705D01*
X148822727Y-81221164D01*
X148837530Y-81288848D01*
X148822933Y-81338561D01*
X148819385Y-81343295D01*
X148816236Y-81351696D01*
X148816234Y-81351699D01*
X148791532Y-81417593D01*
X148768255Y-81479684D01*
X148761500Y-81541866D01*
X148761500Y-82288134D01*
X148768255Y-82350316D01*
X148819385Y-82486705D01*
X148822727Y-82491164D01*
X148837530Y-82558848D01*
X148822933Y-82608561D01*
X148819385Y-82613295D01*
X148816236Y-82621696D01*
X148816234Y-82621699D01*
X148791322Y-82688154D01*
X148768255Y-82749684D01*
X148761500Y-82811866D01*
X148761500Y-83558134D01*
X148768255Y-83620316D01*
X148819385Y-83756705D01*
X148906739Y-83873261D01*
X149023295Y-83960615D01*
X149159684Y-84011745D01*
X149221866Y-84018500D01*
X149631657Y-84018500D01*
X149682905Y-84029393D01*
X149731677Y-84051108D01*
X149731685Y-84051111D01*
X149737712Y-84053794D01*
X149798957Y-84066812D01*
X149918056Y-84092128D01*
X149918061Y-84092128D01*
X149924513Y-84093500D01*
X150115487Y-84093500D01*
X150121939Y-84092128D01*
X150121944Y-84092128D01*
X150241043Y-84066812D01*
X150302288Y-84053794D01*
X150308315Y-84051111D01*
X150308323Y-84051108D01*
X150357095Y-84029393D01*
X150408343Y-84018500D01*
X150612497Y-84018500D01*
X150680618Y-84038502D01*
X150727111Y-84092158D01*
X150737215Y-84162432D01*
X150707721Y-84227012D01*
X150701592Y-84233595D01*
X150155592Y-84779595D01*
X150093280Y-84813621D01*
X150066497Y-84816500D01*
X149924513Y-84816500D01*
X149884136Y-84825082D01*
X149871128Y-84827143D01*
X149850690Y-84829291D01*
X149836635Y-84830768D01*
X149836633Y-84830768D01*
X149830072Y-84831458D01*
X149823798Y-84833497D01*
X149823791Y-84833498D01*
X149790817Y-84844212D01*
X149778080Y-84847625D01*
X149744169Y-84854833D01*
X149744165Y-84854834D01*
X149737712Y-84856206D01*
X149699994Y-84872999D01*
X149687695Y-84877719D01*
X149664261Y-84885333D01*
X149625326Y-84891500D01*
X149221866Y-84891500D01*
X149159684Y-84898255D01*
X149023295Y-84949385D01*
X148906739Y-85036739D01*
X148819385Y-85153295D01*
X148768255Y-85289684D01*
X148761500Y-85351866D01*
X148761500Y-86098134D01*
X148768255Y-86160316D01*
X148771029Y-86167715D01*
X148811885Y-86276698D01*
X148819385Y-86296705D01*
X148822727Y-86301164D01*
X148837530Y-86368848D01*
X148822933Y-86418561D01*
X148819385Y-86423295D01*
X148816236Y-86431696D01*
X148816234Y-86431699D01*
X148794753Y-86489000D01*
X148768255Y-86559684D01*
X148761500Y-86621866D01*
X148761500Y-87368134D01*
X148768255Y-87430316D01*
X148819385Y-87566705D01*
X148822727Y-87571164D01*
X148837530Y-87638848D01*
X148822933Y-87688561D01*
X148819385Y-87693295D01*
X148768255Y-87829684D01*
X148761500Y-87891866D01*
X148761500Y-88638134D01*
X148768255Y-88700316D01*
X148819385Y-88836705D01*
X148822727Y-88841164D01*
X148837530Y-88908848D01*
X148822933Y-88958561D01*
X148819385Y-88963295D01*
X148816236Y-88971696D01*
X148816234Y-88971699D01*
X148785976Y-89052414D01*
X148768255Y-89099684D01*
X148761500Y-89161866D01*
X148761500Y-89908134D01*
X148768255Y-89970316D01*
X148819385Y-90106705D01*
X148906739Y-90223261D01*
X149023295Y-90310615D01*
X149159684Y-90361745D01*
X149221866Y-90368500D01*
X149631657Y-90368500D01*
X149682905Y-90379393D01*
X149731677Y-90401108D01*
X149731685Y-90401111D01*
X149737712Y-90403794D01*
X149816105Y-90420457D01*
X149918056Y-90442128D01*
X149918061Y-90442128D01*
X149924513Y-90443500D01*
X150115487Y-90443500D01*
X150121939Y-90442128D01*
X150121944Y-90442128D01*
X150223895Y-90420457D01*
X150302288Y-90403794D01*
X150308315Y-90401111D01*
X150308323Y-90401108D01*
X150357095Y-90379393D01*
X150408343Y-90368500D01*
X150818134Y-90368500D01*
X150880316Y-90361745D01*
X151016705Y-90310615D01*
X151133261Y-90223261D01*
X151220615Y-90106705D01*
X151271745Y-89970316D01*
X151278500Y-89908134D01*
X151278500Y-89161866D01*
X151271745Y-89099684D01*
X151254024Y-89052414D01*
X151223766Y-88971699D01*
X151223764Y-88971696D01*
X151220615Y-88963295D01*
X151217273Y-88958836D01*
X151202470Y-88891152D01*
X151217067Y-88841439D01*
X151220615Y-88836705D01*
X151271745Y-88700316D01*
X151278500Y-88638134D01*
X151278500Y-87891866D01*
X151271745Y-87829684D01*
X151220615Y-87693295D01*
X151217273Y-87688836D01*
X151202470Y-87621152D01*
X151217067Y-87571439D01*
X151220615Y-87566705D01*
X151271745Y-87430316D01*
X151278500Y-87368134D01*
X151278500Y-86621866D01*
X151271745Y-86559684D01*
X151245247Y-86489000D01*
X151223766Y-86431699D01*
X151223764Y-86431696D01*
X151220615Y-86423295D01*
X151217273Y-86418836D01*
X151202470Y-86351152D01*
X151217066Y-86301441D01*
X151220615Y-86296705D01*
X151223767Y-86288298D01*
X151223876Y-86288098D01*
X151245302Y-86259511D01*
X152349832Y-85154981D01*
X152364865Y-85142140D01*
X152370913Y-85137746D01*
X152370914Y-85137745D01*
X152376253Y-85133866D01*
X152422016Y-85083041D01*
X152426557Y-85078256D01*
X152441072Y-85063741D01*
X152453994Y-85047784D01*
X152458278Y-85042769D01*
X152499619Y-84996855D01*
X152499623Y-84996850D01*
X152504040Y-84991944D01*
X152507340Y-84986228D01*
X152507343Y-84986224D01*
X152511073Y-84979763D01*
X152522273Y-84963466D01*
X152526975Y-84957660D01*
X152526976Y-84957658D01*
X152531129Y-84952530D01*
X152562186Y-84891577D01*
X152565333Y-84885782D01*
X152596223Y-84832279D01*
X152596224Y-84832278D01*
X152599527Y-84826556D01*
X152603875Y-84813173D01*
X152611441Y-84794907D01*
X152614832Y-84788252D01*
X152617829Y-84782370D01*
X152635529Y-84716315D01*
X152637402Y-84709991D01*
X152644417Y-84688402D01*
X152658542Y-84644928D01*
X152660012Y-84630939D01*
X152663617Y-84611486D01*
X152665547Y-84604285D01*
X152667257Y-84597904D01*
X152668851Y-84567494D01*
X152670836Y-84529615D01*
X152671353Y-84523040D01*
X152673156Y-84505882D01*
X152673500Y-84502610D01*
X152673500Y-84482075D01*
X152673673Y-84475481D01*
X152676907Y-84413783D01*
X152676907Y-84413778D01*
X152677252Y-84407191D01*
X152675051Y-84393293D01*
X152673500Y-84373584D01*
X152673500Y-79803503D01*
X152693502Y-79735382D01*
X152710405Y-79714408D01*
X153619832Y-78804981D01*
X153634865Y-78792140D01*
X153640913Y-78787746D01*
X153640914Y-78787745D01*
X153646253Y-78783866D01*
X153692016Y-78733041D01*
X153696557Y-78728256D01*
X153711072Y-78713741D01*
X153717112Y-78706282D01*
X153723994Y-78697784D01*
X153728278Y-78692769D01*
X153769619Y-78646855D01*
X153769623Y-78646850D01*
X153774040Y-78641944D01*
X153777340Y-78636228D01*
X153777343Y-78636224D01*
X153781073Y-78629763D01*
X153792273Y-78613466D01*
X153796975Y-78607660D01*
X153796976Y-78607658D01*
X153801129Y-78602530D01*
X153832186Y-78541577D01*
X153835333Y-78535782D01*
X153866223Y-78482279D01*
X153866224Y-78482278D01*
X153869527Y-78476556D01*
X153873875Y-78463173D01*
X153881441Y-78444907D01*
X153884832Y-78438252D01*
X153887829Y-78432370D01*
X153892481Y-78415012D01*
X153905529Y-78366315D01*
X153907402Y-78359991D01*
X153926500Y-78301212D01*
X153928542Y-78294928D01*
X153930012Y-78280939D01*
X153933617Y-78261486D01*
X153935547Y-78254285D01*
X153937257Y-78247904D01*
X153937638Y-78240634D01*
X153940836Y-78179615D01*
X153941353Y-78173040D01*
X153943156Y-78155882D01*
X153943500Y-78152610D01*
X153943500Y-78132075D01*
X153943673Y-78125481D01*
X153946907Y-78063783D01*
X153946907Y-78063778D01*
X153947252Y-78057191D01*
X153945051Y-78043293D01*
X153943500Y-78023584D01*
X153943500Y-69373590D01*
X153963502Y-69305469D01*
X154017158Y-69258976D01*
X154033292Y-69252905D01*
X154157418Y-69215665D01*
X154157430Y-69215660D01*
X154162384Y-69214174D01*
X154362994Y-69115896D01*
X154544860Y-68986173D01*
X154589690Y-68941500D01*
X154688400Y-68843134D01*
X154703096Y-68828489D01*
X154759737Y-68749665D01*
X154833453Y-68647077D01*
X154834776Y-68648028D01*
X154881645Y-68604857D01*
X154951580Y-68592625D01*
X155017026Y-68620144D01*
X155044875Y-68651994D01*
X155104987Y-68750088D01*
X155251250Y-68918938D01*
X155423126Y-69061632D01*
X155616000Y-69174338D01*
X155824692Y-69254030D01*
X155829760Y-69255061D01*
X155829763Y-69255062D01*
X155937017Y-69276883D01*
X156043597Y-69298567D01*
X156048772Y-69298757D01*
X156048774Y-69298757D01*
X156261673Y-69306564D01*
X156261677Y-69306564D01*
X156266837Y-69306753D01*
X156271957Y-69306097D01*
X156271959Y-69306097D01*
X156483288Y-69279025D01*
X156483289Y-69279025D01*
X156488416Y-69278368D01*
X156493366Y-69276883D01*
X156697429Y-69215661D01*
X156697434Y-69215659D01*
X156702384Y-69214174D01*
X156902994Y-69115896D01*
X157084860Y-68986173D01*
X157129690Y-68941500D01*
X157228400Y-68843134D01*
X157243096Y-68828489D01*
X157299737Y-68749665D01*
X157373453Y-68647077D01*
X157374776Y-68648028D01*
X157421645Y-68604857D01*
X157491580Y-68592625D01*
X157557026Y-68620144D01*
X157584875Y-68651994D01*
X157644987Y-68750088D01*
X157791250Y-68918938D01*
X157963126Y-69061632D01*
X158156000Y-69174338D01*
X158364692Y-69254030D01*
X158369760Y-69255061D01*
X158369763Y-69255062D01*
X158477017Y-69276883D01*
X158583597Y-69298567D01*
X158588772Y-69298757D01*
X158588774Y-69298757D01*
X158801673Y-69306564D01*
X158801677Y-69306564D01*
X158806837Y-69306753D01*
X158811957Y-69306097D01*
X158811959Y-69306097D01*
X159023288Y-69279025D01*
X159023289Y-69279025D01*
X159028416Y-69278368D01*
X159033366Y-69276883D01*
X159237429Y-69215661D01*
X159237434Y-69215659D01*
X159242384Y-69214174D01*
X159442994Y-69115896D01*
X159624860Y-68986173D01*
X159669690Y-68941500D01*
X159768400Y-68843134D01*
X159783096Y-68828489D01*
X159839737Y-68749665D01*
X159913453Y-68647077D01*
X159914776Y-68648028D01*
X159961645Y-68604857D01*
X160031580Y-68592625D01*
X160097026Y-68620144D01*
X160124875Y-68651994D01*
X160184987Y-68750088D01*
X160331250Y-68918938D01*
X160503126Y-69061632D01*
X160696000Y-69174338D01*
X160904692Y-69254030D01*
X160909760Y-69255061D01*
X160909763Y-69255062D01*
X161017017Y-69276883D01*
X161123597Y-69298567D01*
X161128772Y-69298757D01*
X161128774Y-69298757D01*
X161341673Y-69306564D01*
X161341677Y-69306564D01*
X161346837Y-69306753D01*
X161351957Y-69306097D01*
X161351959Y-69306097D01*
X161563288Y-69279025D01*
X161563289Y-69279025D01*
X161568416Y-69278368D01*
X161573366Y-69276883D01*
X161777429Y-69215661D01*
X161777434Y-69215659D01*
X161782384Y-69214174D01*
X161982994Y-69115896D01*
X162164860Y-68986173D01*
X162209690Y-68941500D01*
X162308400Y-68843134D01*
X162323096Y-68828489D01*
X162379737Y-68749665D01*
X162450435Y-68651277D01*
X162453453Y-68647077D01*
X162474320Y-68604857D01*
X162550136Y-68451453D01*
X162550137Y-68451451D01*
X162552430Y-68446811D01*
X162617370Y-68233069D01*
X162646529Y-68011590D01*
X162648156Y-67945000D01*
X162629852Y-67722361D01*
X162575431Y-67505702D01*
X162486354Y-67300840D01*
X162365014Y-67113277D01*
X162214670Y-66948051D01*
X162210619Y-66944852D01*
X162210615Y-66944848D01*
X162043414Y-66812800D01*
X162043410Y-66812798D01*
X162039359Y-66809598D01*
X161843789Y-66701638D01*
X161838920Y-66699914D01*
X161838916Y-66699912D01*
X161638087Y-66628795D01*
X161638083Y-66628794D01*
X161633212Y-66627069D01*
X161628119Y-66626162D01*
X161628116Y-66626161D01*
X161418373Y-66588800D01*
X161418367Y-66588799D01*
X161413284Y-66587894D01*
X161339452Y-66586992D01*
X161195081Y-66585228D01*
X161195079Y-66585228D01*
X161189911Y-66585165D01*
X160969091Y-66618955D01*
X160756756Y-66688357D01*
X160726443Y-66704137D01*
X160635462Y-66751499D01*
X160558607Y-66791507D01*
X160554474Y-66794610D01*
X160554471Y-66794612D01*
X160442427Y-66878737D01*
X160379965Y-66925635D01*
X160376393Y-66929373D01*
X160230011Y-67082553D01*
X160225629Y-67087138D01*
X160118201Y-67244621D01*
X160063293Y-67289621D01*
X159992768Y-67297792D01*
X159929021Y-67266538D01*
X159908324Y-67242054D01*
X159827822Y-67117617D01*
X159827820Y-67117614D01*
X159825014Y-67113277D01*
X159674670Y-66948051D01*
X159670619Y-66944852D01*
X159670615Y-66944848D01*
X159503414Y-66812800D01*
X159503410Y-66812798D01*
X159499359Y-66809598D01*
X159303789Y-66701638D01*
X159298920Y-66699914D01*
X159298916Y-66699912D01*
X159098087Y-66628795D01*
X159098083Y-66628794D01*
X159093212Y-66627069D01*
X159088119Y-66626162D01*
X159088116Y-66626161D01*
X158878373Y-66588800D01*
X158878367Y-66588799D01*
X158873284Y-66587894D01*
X158799452Y-66586992D01*
X158655081Y-66585228D01*
X158655079Y-66585228D01*
X158649911Y-66585165D01*
X158429091Y-66618955D01*
X158216756Y-66688357D01*
X158186443Y-66704137D01*
X158095462Y-66751499D01*
X158018607Y-66791507D01*
X158014474Y-66794610D01*
X158014471Y-66794612D01*
X157902427Y-66878737D01*
X157839965Y-66925635D01*
X157836393Y-66929373D01*
X157690011Y-67082553D01*
X157685629Y-67087138D01*
X157578201Y-67244621D01*
X157523293Y-67289621D01*
X157452768Y-67297792D01*
X157389021Y-67266538D01*
X157368324Y-67242054D01*
X157287822Y-67117617D01*
X157287820Y-67117614D01*
X157285014Y-67113277D01*
X157134670Y-66948051D01*
X157130619Y-66944852D01*
X157130615Y-66944848D01*
X156963414Y-66812800D01*
X156963410Y-66812798D01*
X156959359Y-66809598D01*
X156763789Y-66701638D01*
X156758920Y-66699914D01*
X156758916Y-66699912D01*
X156558087Y-66628795D01*
X156558083Y-66628794D01*
X156553212Y-66627069D01*
X156548118Y-66626162D01*
X156543126Y-66624843D01*
X156543442Y-66623649D01*
X156485142Y-66594635D01*
X156448773Y-66533662D01*
X156451142Y-66462705D01*
X156481691Y-66413122D01*
X157115146Y-65779667D01*
X157177458Y-65745641D01*
X157214128Y-65743151D01*
X157276825Y-65748086D01*
X157276836Y-65748086D01*
X157281766Y-65748474D01*
X157534169Y-65728609D01*
X157538976Y-65727455D01*
X157538982Y-65727454D01*
X157713253Y-65685615D01*
X157780357Y-65669505D01*
X157784930Y-65667611D01*
X158009694Y-65574511D01*
X158009698Y-65574509D01*
X158014268Y-65572616D01*
X158139152Y-65496087D01*
X158207686Y-65477549D01*
X158275362Y-65499005D01*
X158305812Y-65527953D01*
X158358505Y-65598261D01*
X158475061Y-65685615D01*
X158611450Y-65736745D01*
X158673632Y-65743500D01*
X160969900Y-65743500D01*
X161032082Y-65736745D01*
X161168471Y-65685615D01*
X161285027Y-65598261D01*
X161372381Y-65481705D01*
X161423511Y-65345316D01*
X161430266Y-65283134D01*
X161430266Y-63309456D01*
X161450268Y-63241335D01*
X161503924Y-63194842D01*
X161574198Y-63184738D01*
X161638778Y-63214232D01*
G37*
%TD.AperFunction*%
%TA.AperFunction,Conductor*%
G36*
X137557191Y-74438502D02*
G01*
X137603684Y-74492158D01*
X137615069Y-74544140D01*
X137615079Y-74547705D01*
X137622349Y-74551000D01*
X138092458Y-74551000D01*
X138127610Y-74556003D01*
X138137353Y-74558834D01*
X138137360Y-74558835D01*
X138143534Y-74560629D01*
X138149941Y-74561133D01*
X138149945Y-74561134D01*
X138177556Y-74563307D01*
X138177562Y-74563307D01*
X138180011Y-74563500D01*
X138189930Y-74563500D01*
X138558001Y-74563499D01*
X138626120Y-74583501D01*
X138672613Y-74637156D01*
X138684000Y-74689499D01*
X138684000Y-75564566D01*
X138688344Y-75579361D01*
X138700003Y-75581421D01*
X138709977Y-75580637D01*
X138722564Y-75578338D01*
X138864783Y-75537019D01*
X138879222Y-75530770D01*
X139005405Y-75456146D01*
X139017841Y-75446499D01*
X139121499Y-75342841D01*
X139131143Y-75330408D01*
X139192931Y-75225932D01*
X139244824Y-75177480D01*
X139314675Y-75164775D01*
X139380306Y-75191851D01*
X139390479Y-75200977D01*
X139490700Y-75301198D01*
X139495208Y-75304355D01*
X139495211Y-75304357D01*
X139506548Y-75312295D01*
X139678251Y-75432523D01*
X139683233Y-75434846D01*
X139683238Y-75434849D01*
X139717457Y-75450805D01*
X139770742Y-75497722D01*
X139790203Y-75565999D01*
X139769661Y-75633959D01*
X139717457Y-75679195D01*
X139683238Y-75695151D01*
X139683233Y-75695154D01*
X139678251Y-75697477D01*
X139573389Y-75770902D01*
X139495211Y-75825643D01*
X139495208Y-75825645D01*
X139490700Y-75828802D01*
X139328802Y-75990700D01*
X139325645Y-75995208D01*
X139325643Y-75995211D01*
X139316964Y-76007606D01*
X139197477Y-76178251D01*
X139195154Y-76183233D01*
X139195151Y-76183238D01*
X139103039Y-76380775D01*
X139100716Y-76385757D01*
X139099294Y-76391065D01*
X139099293Y-76391067D01*
X139079407Y-76465283D01*
X139041457Y-76606913D01*
X139037858Y-76648054D01*
X139028599Y-76753879D01*
X139002735Y-76819997D01*
X138945232Y-76861636D01*
X138867925Y-76863894D01*
X138722564Y-76821662D01*
X138709977Y-76819363D01*
X138702057Y-76818740D01*
X138686970Y-76821910D01*
X138684000Y-76833374D01*
X138684000Y-77710500D01*
X138663998Y-77778621D01*
X138610342Y-77825114D01*
X138558000Y-77836500D01*
X138189942Y-77836501D01*
X138180012Y-77836501D01*
X138143534Y-77839371D01*
X138137352Y-77841167D01*
X138137347Y-77841168D01*
X138127610Y-77843997D01*
X138092458Y-77849000D01*
X137628100Y-77849000D01*
X137614570Y-77852973D01*
X137611629Y-77873431D01*
X137582136Y-77938012D01*
X137522410Y-77976396D01*
X137486911Y-77981500D01*
X137349594Y-77981500D01*
X137281473Y-77961498D01*
X137260499Y-77944595D01*
X137241219Y-77925315D01*
X137207193Y-77863003D01*
X137209755Y-77799593D01*
X137220866Y-77763019D01*
X137222370Y-77758069D01*
X137251529Y-77536590D01*
X137252030Y-77516081D01*
X137253074Y-77473365D01*
X137253074Y-77473361D01*
X137253156Y-77470000D01*
X137241120Y-77323605D01*
X137615039Y-77323605D01*
X137615079Y-77337705D01*
X137622349Y-77341000D01*
X138157885Y-77341000D01*
X138173124Y-77336525D01*
X138174329Y-77335135D01*
X138176000Y-77327452D01*
X138176000Y-76835434D01*
X138171656Y-76820639D01*
X138159997Y-76818579D01*
X138150023Y-76819363D01*
X138137436Y-76821662D01*
X137995217Y-76862981D01*
X137980778Y-76869230D01*
X137854595Y-76943854D01*
X137842159Y-76953501D01*
X137738501Y-77057159D01*
X137728854Y-77069595D01*
X137654230Y-77195778D01*
X137647981Y-77210217D01*
X137615039Y-77323605D01*
X137241120Y-77323605D01*
X137234852Y-77247361D01*
X137180431Y-77030702D01*
X137091354Y-76825840D01*
X136970014Y-76638277D01*
X136819670Y-76473051D01*
X136815619Y-76469852D01*
X136815615Y-76469848D01*
X136648414Y-76337800D01*
X136648410Y-76337798D01*
X136644359Y-76334598D01*
X136603053Y-76311796D01*
X136553084Y-76261364D01*
X136538312Y-76191921D01*
X136563428Y-76125516D01*
X136590780Y-76098909D01*
X136646191Y-76059385D01*
X136769860Y-75971173D01*
X136774845Y-75966206D01*
X136918075Y-75823475D01*
X136928096Y-75813489D01*
X136987594Y-75730689D01*
X137055435Y-75636277D01*
X137058453Y-75632077D01*
X137073953Y-75600716D01*
X137155136Y-75436453D01*
X137155137Y-75436451D01*
X137157430Y-75431811D01*
X137197436Y-75300135D01*
X137220865Y-75223023D01*
X137220865Y-75223021D01*
X137222370Y-75218069D01*
X137241749Y-75070871D01*
X137613434Y-75070871D01*
X137647981Y-75189783D01*
X137654230Y-75204222D01*
X137728854Y-75330405D01*
X137738501Y-75342841D01*
X137842159Y-75446499D01*
X137854595Y-75456146D01*
X137980778Y-75530770D01*
X137995217Y-75537019D01*
X138137436Y-75578338D01*
X138150023Y-75580637D01*
X138157943Y-75581260D01*
X138173030Y-75578090D01*
X138176000Y-75566626D01*
X138176000Y-75077115D01*
X138171525Y-75061876D01*
X138170135Y-75060671D01*
X138162452Y-75059000D01*
X137628100Y-75059000D01*
X137614569Y-75062973D01*
X137613434Y-75070871D01*
X137241749Y-75070871D01*
X137251529Y-74996590D01*
X137251855Y-74983261D01*
X137253074Y-74933365D01*
X137253074Y-74933361D01*
X137253156Y-74930000D01*
X137234852Y-74707361D01*
X137206821Y-74595765D01*
X137209625Y-74524823D01*
X137239930Y-74475974D01*
X137260499Y-74455405D01*
X137322811Y-74421379D01*
X137349594Y-74418500D01*
X137489070Y-74418500D01*
X137557191Y-74438502D01*
G37*
%TD.AperFunction*%
%TA.AperFunction,Conductor*%
G36*
X141346520Y-75238144D02*
G01*
X141403356Y-75280691D01*
X141423485Y-75321047D01*
X141457981Y-75439783D01*
X141464229Y-75454220D01*
X141491522Y-75500370D01*
X141508982Y-75569187D01*
X141491523Y-75628646D01*
X141459731Y-75682404D01*
X141457520Y-75690015D01*
X141457519Y-75690017D01*
X141423082Y-75808550D01*
X141384869Y-75868386D01*
X141320373Y-75898063D01*
X141250070Y-75888160D01*
X141212990Y-75862492D01*
X141179300Y-75828802D01*
X141174792Y-75825645D01*
X141174789Y-75825643D01*
X141096611Y-75770902D01*
X140991749Y-75697477D01*
X140986767Y-75695154D01*
X140986762Y-75695151D01*
X140952543Y-75679195D01*
X140899258Y-75632278D01*
X140879797Y-75564001D01*
X140900339Y-75496041D01*
X140952543Y-75450805D01*
X140986762Y-75434849D01*
X140986767Y-75434846D01*
X140991749Y-75432523D01*
X141163452Y-75312295D01*
X141174789Y-75304357D01*
X141174792Y-75304355D01*
X141179300Y-75301198D01*
X141213393Y-75267105D01*
X141275705Y-75233079D01*
X141346520Y-75238144D01*
G37*
%TD.AperFunction*%
M02*
